{
.appVersion = "1246";
DisplayStrings = (
"01S2H3SH456789/one.ss01 o/zero.tosf/one.tosf/two.tosf a/three.tosf/four.tosf/five.tosf/six.tosf 69/seven.tosf/eight.tosf 8/nine.tosf/one.tosf.ss01"
);
classes = (
{
automatic = 1;

glyphs = (
{
glyphname = A;
lastChange = "2019-08-30 15:23:55 +0000";
layers = (
{
anchors = (
{
name = bottom;
position = "{322, 0}";
},
{
name = ogonek;
position = "{645, 0}";
},
{
name = top;
position = "{434, 705}";
}
);
background = {
anchors = (
{
name = bottom;
position = "{320, 0}";
},
{
name = ogonek;
position = "{643, 0}";
},
{
name = top;
position = "{432, 705}";
}
);
paths = (
{
closed = 1;
nodes = (
"451 705 LINE",
"411 705 LINE",
"-4 0 LINE",
"41 0 LINE",
"161 204 LINE",
"131 195 LINE",
"567 195 LINE",
"542 204 LINE",
"597 0 LINE",
"642 0 LINE"
);
},
{
closed = 1;
nodes = (
"556 234 LINE",
"154 234 LINE",
"175 228 LINE",
"440 680 LINE",
"414 680 LINE",
"535 228 LINE"
);
}
);
};
layerId = "F1F93986-3ED8-4AAE-84C4-CA3EEECDDFA0";
paths = (
{
closed = 1;
nodes = (
"46 0 LINE",
"166 204 LINE",
"134 195 LINE",
"570 195 LINE",
"546 204 LINE",
"601 0 LINE",
"643 0 LINE",
"452 705 LINE",
"412 705 LINE",
"-3 0 LINE"
);
},
{
closed = 1;
nodes = (
"445 680 LINE",
"418 680 LINE",
"539 228 LINE",
"559 234 LINE",
"157 234 LINE",
"180 228 LINE"
);
}
);
width = 716;
},
{
anchors = (
{
name = bottom;
position = "{348, 0}";
},
{
name = ogonek;
position = "{683, 0}";
},
{
name = top;
position = "{458, 705}";
}
);
background = {
anchors = (
{
name = bottom;
position = "{348, 0}";
},
{
name = ogonek;
position = "{683, 0}";
},
{
name = top;
position = "{458, 705}";
}
);
paths = (
{
closed = 1;
nodes = (
"543 705 LINE",
"374 705 LINE",
"-72 0 LINE",
"142 0 LINE",
"254 191 LINE",
"165 131 LINE",
"572 131 LINE",
"501 191 LINE",
"553 0 LINE",
"767 0 LINE"
);
},
{
closed = 1;
nodes = (
"527 295 LINE",
"260 295 LINE",
"281 238 LINE",
"450 530 LINE",
"413 530 LINE",
"488 238 LINE"
);
}
);
};
layerId = "4121B50C-FD42-45C5-8FBE-41E76D98F91E";
paths = (
{
closed = 1;
nodes = (
"150 0 LINE",
"250 170 LINE",
"182 131 LINE",
"573 131 LINE",
"517 175 LINE",
"562 0 LINE",
"767 0 LINE",
"545 705 LINE",
"375 705 LINE",
"-72 0 LINE"
);
},
{
closed = 1;
nodes = (
"531 295 LINE",
"278 295 LINE",
"300 256 LINE",
"458 524 LINE",
"427 524 LINE",
"497 251 LINE"
);
}
);
width = 773;
}
);
leftKerningGroup = A;
rightKerningGroup = A;
unicode = 0041;
userData = {
anchors = (
);
b = {
};
com.typemytype.robofont.layerData = {
b = {
anchors = (
);
components = (
);
contours = (
{
points = (
{
segmentType = line;
smooth = 0;
x = 403;
y = 502;
},
{
segmentType = line;
smooth = 0;
x = 703;
y = 1275;
},
{
segmentType = line;
smooth = 0;
x = 705;
y = 1275;
},
{
segmentType = line;
smooth = 0;
x = 1004;
y = 502;
}
);
},
{
points = (
{
segmentType = curve;
smooth = 1;
x = 150;
y = 0;
},
{
smooth = 0;
x = 181;
y = 0;
},
{
smooth = 0;
x = 214;
y = 15;
},
{
segmentType = curve;
smooth = 1;
x = 229;
y = 53;
},
{
segmentType = line;
smooth = 0;
x = 356;
y = 373;
},
{
segmentType = line;
smooth = 0;
x = 1051;
y = 373;
},
{
segmentType = line;
smooth = 1;
x = 1179;
y = 53;
},
{
smooth = 0;
x = 1193;
y = 17;
},
{
smooth = 0;
x = 1228;
y = 0;
},
{
segmentType = curve;
smooth = 1;
x = 1260;
y = 0;
},
{
smooth = 0;
x = 1306;
y = 0;
},
{
smooth = 0;
x = 1354;
y = 31;
},
{
segmentType = curve;
smooth = 1;
x = 1354;
y = 80;
},
{
smooth = 0;
x = 1354;
y = 87;
},
{
smooth = 0;
x = 1352;
y = 97;
},
{
segmentType = curve;
smooth = 0;
x = 1349;
y = 108;
},
{
segmentType = line;
smooth = 1;
x = 871;
y = 1288;
},
{
smooth = 0;
x = 817;
y = 1420;
},
{
smooth = 0;
x = 777;
y = 1430;
},
{
segmentType = curve;
smooth = 1;
x = 710;
y = 1430;
},
{
smooth = 0;
x = 644;
y = 1430;
},
{
smooth = 0;
x = 596;
y = 1413;
},
{
segmentType = curve;
smooth = 1;
x = 542;
y = 1280;
},
{
segmentType = line;
smooth = 1;
x = 66;
y = 108;
},
{
smooth = 0;
x = 62;
y = 97;
},
{
smooth = 0;
x = 60;
y = 87;
},
{
segmentType = curve;
smooth = 1;
x = 60;
y = 78;
},
{
smooth = 0;
x = 60;
y = 32;
},
{
smooth = 0;
x = 106;
y = 0;
}
);
}
);
lib = {
};
name = A;
unicodes = (
);
width = 1414;
};
};
components = (
);
contours = {
};
lib = {
};
name = A;
points = {
};
segmentType = line;
unicodes = (
);
width = 1445;
x = 718;
y = 1232;
};
},
{
glyphname = AE;
lastChange = "2019-08-30 14:16:40 +0000";
layers = (
{
anchors = (
{
name = bottom;
position = "{448, 0}";
},
{
name = top;
position = "{559, 705}";
}
);
background = {
anchors = (
{
name = bottom;
position = "{448, 0}";
},
{
name = top;
position = "{559, 705}";
}
);
paths = (
{
closed = 1;
nodes = (
"10 0 LINE",
"166 207 LINE",
"145 195 LINE",
"540 195 LINE",
"522 207 LINE",
"532 0 LINE",
"882 0 LINE",
"889 39 LINE",
"554 39 LINE",
"572 20 LINE",
"554 348 LINE",
"540 338 LINE",
"916 338 LINE",
"922 377 LINE",
"538 377 LINE",
"553 366 LINE",
"537 690 LINE",
"526 666 LINE",
"988 666 LINE",
"994 705 LINE",
"495 705 LINE",
"-37 0 LINE"
);
},
{
closed = 1;
nodes = (
"179 224 LINE",
"518 676 LINE",
"497 676 LINE",
"521 225 LINE",
"528 234 LINE",
"171 234 LINE"
);
}
);
};
guideLines = (
{
angle = 101.863;
position = "{583, 338}";
},
{
angle = 239.3238;
position = "{334, 338}";
}
);
layerId = "F1F93986-3ED8-4AAE-84C4-CA3EEECDDFA0";
paths = (
{
closed = 1;
nodes = (
"10 0 LINE",
"166 207 LINE",
"145 195 LINE",
"540 195 LINE",
"522 207 LINE",
"532 0 LINE",
"882 0 LINE",
"889 39 LINE",
"554 39 LINE",
"572 20 LINE",
"554 348 LINE",
"540 338 LINE",
"916 338 LINE",
"922 377 LINE",
"538 377 LINE",
"553 366 LINE",
"537 690 LINE",
"526 666 LINE",
"988 666 LINE",
"994 705 LINE",
"495 705 LINE",
"-37 0 LINE"
);
},
{
closed = 1;
nodes = (
"179 224 LINE",
"518 676 LINE",
"497 676 LINE",
"521 225 LINE",
"528 234 LINE",
"171 234 LINE"
);
}
);
width = 971;
},
{
anchors = (
{
name = bottom;
position = "{450, 0}";
},
{
name = top;
position = "{562, 705}";
}
);
background = {
anchors = (
{
name = bottom;
position = "{489, 0}";
},
{
name = top;
position = "{490, 705}";
}
);
paths = (
{
closed = 1;
nodes = (
"150 0 LINE",
"261 186 LINE",
"184 131 LINE",
"562 131 LINE",
"498 194 LINE",
"541 0 LINE",
"961 0 LINE",
"961 164 LINE",
"636 164 LINE",
"706 109 LINE",
"655 335 LINE",
"613 276 LINE",
"938 276 LINE",
"938 440 LINE",
"576 440 LINE",
"645 381 LINE",
"600 584 LINE",
"546 541 LINE",
"961 541 LINE",
"961 705 LINE",
"382 705 LINE",
"-74 0 LINE"
);
},
{
closed = 1;
nodes = (
"294 243 LINE",
"461 523 LINE",
"424 523 LINE",
"489 235 LINE",
"531 295 LINE",
"285 295 LINE"
);
}
);
};
guideLines = (
{
angle = 102.61;
position = "{599, 262}";
},
{
angle = 102.61;
position = "{792, 261}";
},
{
angle = 59.2623;
position = "{427, 262}";
}
);
layerId = "4121B50C-FD42-45C5-8FBE-41E76D98F91E";
paths = (
{
closed = 1;
nodes = (
"111 0 LINE",
"251 186 LINE",
"166 131 LINE",
"544 131 LINE",
"489 194 LINE",
"502 0 LINE",
"922 0 LINE",
"948 164 LINE",
"623 164 LINE",
"684 109 LINE",
"669 335 LINE",
"617 276 LINE",
"942 276 LINE",
"968 440 LINE",
"606 440 LINE",
"666 381 LINE",
"653 584 LINE",
"592 541 LINE",
"1007 541 LINE",
"1033 705 LINE",
"454 705 LINE",
"-113 0 LINE"
);
},
{
closed = 1;
nodes = (
"293 243 LINE",
"505 523 LINE",
"468 523 LINE",
"487 235 LINE",
"538 295 LINE",
"292 295 LINE"
);
}
);
width = 1014;
}
);
leftKerningGroup = A;
rightKerningGroup = E;
rightMetricsKey = E;
unicode = 00C6;
userData = {
com.typemytype.robofont.layerData = {
b = {
anchors = (
);
components = (
);
contours = (
);
lib = {
};
name = AE;
unicodes = (
);
width = 1976;
};
};
};
},
{
glyphname = B;
lastChange = "2019-09-04 08:14:23 +0000";
layers = (
{
anchors = (
{
name = bottom;
position = "{300, 0}";
},
{
name = top;
position = "{411, 705}";
}
);
background = {
anchors = (
{
name = bottom;
position = "{298, 0}";
},
{
name = top;
position = "{409, 705}";
}
);
paths = (
{
closed = 1;
nodes = (
"541 370 OFFCURVE",
"609 431 OFFCURVE",
"623 520 CURVE SMOOTH",
"642 639 OFFCURVE",
"570 705 OFFCURVE",
"427 705 CURVE SMOOTH",
"169 705 LINE",
"57 0 LINE",
"328 0 LINE SMOOTH",
"474 0 OFFCURVE",
"567 65 OFFCURVE",
"587 191 CURVE SMOOTH",
"603 292 OFFCURVE",
"549 355 OFFCURVE",
"450 365 CURVE",
"448 351 LINE"
);
},
{
closed = 1;
nodes = (
"538 666 OFFCURVE",
"594 615 OFFCURVE",
"579 521 CURVE SMOOTH",
"564 427 OFFCURVE",
"492 376 OFFCURVE",
"372 376 CURVE SMOOTH",
"159 376 LINE",
"205 666 LINE",
"418 666 LINE SMOOTH"
);
},
{
closed = 1;
nodes = (
"106 39 LINE",
"153 337 LINE",
"381 337 LINE SMOOTH",
"504 337 OFFCURVE",
"558 290 OFFCURVE",
"542 188 CURVE SMOOTH",
"526 86 OFFCURVE",
"457 39 OFFCURVE",
"334 39 CURVE SMOOTH"
);
}
);
};
guideLines = (
{
position = "{324, 220}";
showMeasurement = 1;
}
);
layerId = "F1F93986-3ED8-4AAE-84C4-CA3EEECDDFA0";
paths = (
{
closed = 1;
nodes = (
"346 0 LINE SMOOTH",
"503 0 OFFCURVE",
"588 70 OFFCURVE",
"588 207 CURVE SMOOTH",
"588 288 OFFCURVE",
"535 346 OFFCURVE",
"449 360 CURVE",
"447 349 LINE",
"557 365 OFFCURVE",
"625 436 OFFCURVE",
"625 540 CURVE SMOOTH",
"625 643 OFFCURVE",
"555 705 OFFCURVE",
"419 705 CURVE SMOOTH",
"170 705 LINE",
"58 0 LINE"
);
},
{
closed = 1;
nodes = (
"206 666 LINE",
"414 666 LINE SMOOTH",
"527 666 OFFCURVE",
"581 622 OFFCURVE",
"581 540 CURVE SMOOTH",
"581 441 OFFCURVE",
"505 376 OFFCURVE",
"387 376 CURVE SMOOTH",
"150 376 LINE",
"144 337 LINE",
"379 337 LINE SMOOTH",
"485 337 OFFCURVE",
"544 292 OFFCURVE",
"544 208 CURVE SMOOTH",
"544 96 OFFCURVE",
"479 39 OFFCURVE",
"350 39 CURVE SMOOTH",
"106 39 LINE"
);
}
);
width = 666;
},
{
anchors = (
{
name = bottom;
position = "{315, 0}";
},
{
name = top;
position = "{426, 705}";
}
);
background = {
anchors = (
{
name = bottom;
position = "{314, 0}";
},
{
name = top;
position = "{425, 705}";
}
);
paths = (
{
closed = 1;
nodes = (
"629 379 OFFCURVE",
"688 441 OFFCURVE",
"701 523 CURVE SMOOTH",
"718 633 OFFCURVE",
"641 705 OFFCURVE",
"487 705 CURVE SMOOTH",
"129 705 LINE",
"18 0 LINE",
"385 0 LINE SMOOTH",
"540 0 OFFCURVE",
"649 79 OFFCURVE",
"669 202 CURVE SMOOTH",
"683 294 OFFCURVE",
"641 355 OFFCURVE",
"549 375 CURVE",
"546 358 LINE"
);
},
{
closed = 1;
nodes = (
"479 549 OFFCURVE",
"498 533 OFFCURVE",
"492 493 CURVE SMOOTH",
"486 453 OFFCURVE",
"461 436 OFFCURVE",
"405 436 CURVE SMOOTH",
"292 436 LINE",
"310 549 LINE",
"423 549 LINE SMOOTH"
);
},
{
closed = 1;
nodes = (
"247 156 LINE",
"267 280 LINE",
"399 280 LINE SMOOTH",
"455 280 OFFCURVE",
"475 259 OFFCURVE",
"468 218 CURVE SMOOTH",
"462 177 OFFCURVE",
"435 156 OFFCURVE",
"379 156 CURVE SMOOTH"
);
}
);
};
guideLines = (
{
position = "{298, 541}";
showMeasurement = 1;
}
);
layerId = "4121B50C-FD42-45C5-8FBE-41E76D98F91E";
paths = (
{
closed = 1;
nodes = (
"397 0 LINE SMOOTH",
"561 0 OFFCURVE",
"668 76 OFFCURVE",
"668 212 CURVE SMOOTH",
"668 288 OFFCURVE",
"624 348 OFFCURVE",
"545 369 CURVE",
"542 357 LINE",
"636 374 OFFCURVE",
"699 440 OFFCURVE",
"699 534 CURVE SMOOTH",
"699 628 OFFCURVE",
"616 705 OFFCURVE",
"473 705 CURVE SMOOTH",
"130 705 LINE",
"18 0 LINE"
);
},
{
closed = 1;
nodes = (
"310 549 LINE",
"426 549 LINE SMOOTH",
"475 549 OFFCURVE",
"495 533 OFFCURVE",
"495 505 CURVE SMOOTH",
"495 458 OFFCURVE",
"467 437 OFFCURVE",
"406 437 CURVE SMOOTH",
"276 437 LINE",
"252 279 LINE",
"393 279 LINE SMOOTH",
"440 279 OFFCURVE",
"465 263 OFFCURVE",
"465 227 CURVE SMOOTH",
"465 183 OFFCURVE",
"439 156 OFFCURVE",
"383 156 CURVE SMOOTH",
"248 156 LINE"
);
}
);
width = 710;
}
);
leftKerningGroup = H;
leftMetricsKey = H;
rightKerningGroup = B;
unicode = 0042;
userData = {
anchors = (
);
b = {
};
com.typemytype.robofont.layerData = {
b = {
anchors = (
);
components = (
);
contours = (
{
points = (
{
segmentType = curve;
smooth = 1;
x = 266;
y = 0;
},
{
segmentType = line;
smooth = 1;
x = 1035;
y = 0;
},
{
smooth = 0;
x = 1084;
y = 0;
},
{
smooth = 0;
x = 1108;
y = 36;
},
{
segmentType = curve;
smooth = 1;
x = 1108;
y = 73;
},
{
smooth = 0;
x = 1108;
y = 109;
},
{
smooth = 0;
x = 1084;
y = 145;
},
{
segmentType = curve;
smooth = 1;
x = 1035;
y = 145;
},
{
segmentType = line;
smooth = 0;
x = 353;
y = 145;
},
{
segmentType = line;
smooth = 0;
x = 353;
y = 662;
},
{
segmentType = line;
smooth = 1;
x = 975;
y = 662;
},
{
smooth = 0;
x = 1024;
y = 662;
},
{
smooth = 0;
x = 1049;
y = 698;
},
{
segmentType = curve;
smooth = 1;
x = 1049;
y = 734;
},
{
smooth = 0;
x = 1049;
y = 770;
},
{
smooth = 0;
x = 1026;
y = 806;
},
{
segmentType = curve;
smooth = 1;
x = 975;
y = 806;
},
{
segmentType = line;
smooth = 0;
x = 353;
y = 806;
},
{
segmentType = line;
smooth = 0;
x = 353;
y = 1281;
},
{
segmentType = line;
smooth = 1;
x = 1007;
y = 1281;
},
{
smooth = 0;
x = 1056;
y = 1281;
},
{
smooth = 0;
x = 1080;
y = 1317;
},
{
segmentType = curve;
smooth = 1;
x = 1080;
y = 1354;
},
{
smooth = 0;
x = 1080;
y = 1390;
},
{
smooth = 0;
x = 1056;
y = 1426;
},
{
segmentType = curve;
smooth = 1;
x = 1007;
y = 1426;
},
{
segmentType = line;
smooth = 1;
x = 261;
y = 1426;
},
{
smooth = 0;
x = 213;
y = 1426;
},
{
smooth = 0;
x = 178;
y = 1383;
},
{
segmentType = curve;
smooth = 1;
x = 178;
y = 1340;
},
{
segmentType = line;
smooth = 1;
x = 178;
y = 86;
},
{
smooth = 0;
x = 178;
y = 41;
},
{
smooth = 0;
x = 222;
y = 0;
}
);
}
);
lib = {
};
name = B;
unicodes = (
);
width = 1292;
};
};
components = (
);
contours = {
};
lib = {
};
name = B;
points = {
};
segmentType = curve;
unicodes = (
);
width = 1395;
x = 676;
y = 1260;
};
},
{
glyphname = C;
lastChange = "2019-08-30 15:23:53 +0000";
layers = (
{
anchors = (
{
name = bottom;
position = "{342, 0}";
},
{
name = top;
position = "{456, 705}";
}
);
background = {
anchors = (
{
name = bottom;
position = "{341, 0}";
},
{
name = top;
position = "{455, 705}";
}
);
paths = (
{
closed = 1;
nodes = (
"439 -8 OFFCURVE",
"526 24 OFFCURVE",
"594 87 CURVE",
"578 122 LINE",
"505 59 OFFCURVE",
"435 33 OFFCURVE",
"347 33 CURVE SMOOTH",
"175 33 OFFCURVE",
"97 150 OFFCURVE",
"129 353 CURVE SMOOTH",
"161 555 OFFCURVE",
"276 672 OFFCURVE",
"448 672 CURVE SMOOTH",
"536 672 OFFCURVE",
"598 646 OFFCURVE",
"651 583 CURVE",
"678 618 LINE",
"630 681 OFFCURVE",
"553 713 OFFCURVE",
"455 713 CURVE SMOOTH",
"257 713 OFFCURVE",
"120 576 OFFCURVE",
"84 353 CURVE SMOOTH",
"49 129 OFFCURVE",
"143 -8 OFFCURVE",
"341 -8 CURVE SMOOTH"
);
}
);
};
guideLines = (
{
angle = 233.427;
position = "{522, 398}";
}
);
layerId = "F1F93986-3ED8-4AAE-84C4-CA3EEECDDFA0";
paths = (
{
closed = 1;
nodes = (
"452 -8 OFFCURVE",
"530 20 OFFCURVE",
"593 75 CURVE",
"572 111 LINE",
"505 56 OFFCURVE",
"442 33 OFFCURVE",
"365 33 CURVE SMOOTH",
"215 33 OFFCURVE",
"127 127 OFFCURVE",
"127 284 CURVE SMOOTH",
"127 489 OFFCURVE",
"227 672 OFFCURVE",
"423 672 CURVE SMOOTH",
"519 672 OFFCURVE",
"584 641 OFFCURVE",
"641 570 CURVE",
"666 604 LINE",
"616 675 OFFCURVE",
"531 713 OFFCURVE",
"424 713 CURVE SMOOTH",
"205 713 OFFCURVE",
"82 516 OFFCURVE",
"82 285 CURVE SMOOTH",
"82 107 OFFCURVE",
"191 -8 OFFCURVE",
"364 -8 CURVE SMOOTH"
);
}
);
width = 667;
},
{
anchors = (
{
name = bottom;
position = "{370, 0}";
},
{
name = top;
position = "{480, 705}";
}
);
background = {
anchors = (
{
name = bottom;
position = "{363, 0}";
},
{
name = top;
position = "{473, 705}";
}
);
paths = (
{
closed = 1;
nodes = (
"480 -12 OFFCURVE",
"581 19 OFFCURVE",
"640 63 CURVE",
"605 232 LINE",
"540 193 OFFCURVE",
"481 175 OFFCURVE",
"425 175 CURVE SMOOTH",
"311 175 OFFCURVE",
"266 237 OFFCURVE",
"285 353 CURVE SMOOTH",
"303 468 OFFCURVE",
"368 530 OFFCURVE",
"482 530 CURVE SMOOTH",
"538 530 OFFCURVE",
"591 512 OFFCURVE",
"643 473 CURVE",
"731 642 LINE",
"686 686 OFFCURVE",
"595 717 OFFCURVE",
"503 717 CURVE SMOOTH",
"261 717 OFFCURVE",
"92 572 OFFCURVE",
"58 353 CURVE SMOOTH",
"23 133 OFFCURVE",
"146 -12 OFFCURVE",
"388 -12 CURVE SMOOTH"
);
}
);
};
layerId = "4121B50C-FD42-45C5-8FBE-41E76D98F91E";
paths = (
{
closed = 1;
nodes = (
"495 -12 OFFCURVE",
"584 14 OFFCURVE",
"638 53 CURVE",
"585 223 LINE",
"519 189 OFFCURVE",
"474 176 OFFCURVE",
"422 176 CURVE SMOOTH",
"335 176 OFFCURVE",
"286 224 OFFCURVE",
"286 323 CURVE SMOOTH",
"286 437 OFFCURVE",
"345 529 OFFCURVE",
"450 529 CURVE SMOOTH",
"512 529 OFFCURVE",
"564 515 OFFCURVE",
"625 461 CURVE",
"714 619 LINE",
"643 689 OFFCURVE",
"541 717 OFFCURVE",
"451 717 CURVE SMOOTH",
"222 717 OFFCURVE",
"59 541 OFFCURVE",
"59 317 CURVE SMOOTH",
"59 119 OFFCURVE",
"197 -12 OFFCURVE",
"409 -12 CURVE SMOOTH"
);
}
);
width = 692;
}
);
leftKerningGroup = O;
leftMetricsKey = O;
rightKerningGroup = C;
unicode = 0043;
userData = {
anchors = (
);
b = {
};
com.typemytype.robofont.layerData = {
b = {
anchors = (
);
components = (
);
contours = (
);
lib = {
};
name = C;
unicodes = (
);
width = 1353.89001;
};
};
components = (
);
contours = (
);
lib = {
};
name = C;
unicodes = (
);
width = 1354;
};
},
{
glyphname = D;
lastChange = "2019-09-04 07:56:01 +0000";
layers = (
{
anchors = (
{
name = bottom;
position = "{325, 0}";
},
{
name = center;
position = "{192, 358}";
},
{
name = top;
position = "{436, 705}";
}
);
background = {
anchors = (
{
name = bottom;
position = "{324, 0}";
},
{
name = center;
position = "{191, 358}";
},
{
name = top;
position = "{435, 705}";
}
);
paths = (
{
closed = 1;
nodes = (
"274 0 LINE SMOOTH",
"495 0 OFFCURVE",
"639 123 OFFCURVE",
"675 353 CURVE SMOOTH",
"712 583 OFFCURVE",
"607 705 OFFCURVE",
"386 705 CURVE SMOOTH",
"169 705 LINE",
"57 0 LINE"
);
},
{
closed = 1;
nodes = (
"205 666 LINE",
"376 666 LINE SMOOTH",
"579 666 OFFCURVE",
"663 561 OFFCURVE",
"630 353 CURVE SMOOTH",
"597 145 OFFCURVE",
"480 39 OFFCURVE",
"277 39 CURVE SMOOTH",
"106 39 LINE"
);
}
);
};
layerId = "F1F93986-3ED8-4AAE-84C4-CA3EEECDDFA0";
paths = (
{
closed = 1;
nodes = (
"303 0 LINE SMOOTH",
"562 0 OFFCURVE",
"678 190 OFFCURVE",
"678 417 CURVE SMOOTH",
"678 600 OFFCURVE",
"563 705 OFFCURVE",
"363 705 CURVE SMOOTH",
"170 705 LINE",
"58 0 LINE"
);
},
{
closed = 1;
nodes = (
"205 666 LINE",
"358 666 LINE SMOOTH",
"540 666 OFFCURVE",
"633 578 OFFCURVE",
"633 418 CURVE SMOOTH",
"633 215 OFFCURVE",
"540 39 OFFCURVE",
"305 39 CURVE SMOOTH",
"106 39 LINE"
);
}
);
width = 725;
},
{
anchors = (
{
name = bottom;
position = "{354, 0}";
},
{
name = center;
position = "{230, 358}";
},
{
name = top;
position = "{465, 705}";
}
);
background = {
anchors = (
{
name = bottom;
position = "{356, 0}";
},
{
name = center;
position = "{231, 358}";
},
{
name = top;
position = "{467, 705}";
}
);
paths = (
{
closed = 1;
nodes = (
"326 0 LINE SMOOTH",
"576 0 OFFCURVE",
"740 130 OFFCURVE",
"776 353 CURVE SMOOTH",
"811 575 OFFCURVE",
"687 705 OFFCURVE",
"437 705 CURVE SMOOTH",
"129 705 LINE",
"18 0 LINE"
);
},
{
closed = 1;
nodes = (
"317 531 LINE",
"397 531 LINE SMOOTH",
"521 531 OFFCURVE",
"572 475 OFFCURVE",
"553 353 CURVE SMOOTH",
"533 231 OFFCURVE",
"465 174 OFFCURVE",
"340 174 CURVE SMOOTH",
"260 174 LINE"
);
}
);
};
layerId = "4121B50C-FD42-45C5-8FBE-41E76D98F91E";
paths = (
{
closed = 1;
nodes = (
"363 0 LINE SMOOTH",
"627 0 OFFCURVE",
"776 146 OFFCURVE",
"775 402 CURVE SMOOTH",
"774 582 OFFCURVE",
"637 705 OFFCURVE",
"403 705 CURVE SMOOTH",
"130 705 LINE",
"18 0 LINE"
);
},
{
closed = 1;
nodes = (
"318 532 LINE",
"393 532 LINE SMOOTH",
"498 532 OFFCURVE",
"552 481 OFFCURVE",
"552 388 CURVE SMOOTH",
"552 250 OFFCURVE",
"483 174 OFFCURVE",
"355 174 CURVE SMOOTH",
"260 174 LINE"
);
}
);
width = 800;
}
);
leftKerningGroup = H;
leftMetricsKey = H;
rightKerningGroup = O;
rightMetricsKey = O;
unicode = 0044;
userData = {
anchors = (
);
b = {
};
com.typemytype.robofont.layerData = {
b = {
anchors = (
);
components = (
);
contours = (
{
points = (
{
segmentType = curve;
smooth = 1;
x = 266;
y = 0;
},
{
segmentType = line;
smooth = 1;
x = 1035;
y = 0;
},
{
smooth = 0;
x = 1084;
y = 0;
},
{
smooth = 0;
x = 1108;
y = 34;
},
{
segmentType = curve;
smooth = 1;
x = 1108;
y = 71;
},
{
smooth = 0;
x = 1108;
y = 107;
},
{
smooth = 0;
x = 1084;
y = 141;
},
{
segmentType = curve;
smooth = 1;
x = 1035;
y = 141;
},
{
segmentType = line;
smooth = 0;
x = 356;
y = 141;
},
{
segmentType = line;
smooth = 0;
x = 356;
y = 665;
},
{
segmentType = line;
smooth = 1;
x = 975;
y = 665;
},
{
smooth = 0;
x = 1024;
y = 665;
},
{
smooth = 0;
x = 1049;
y = 698;
},
{
segmentType = curve;
smooth = 1;
x = 1049;
y = 734;
},
{
smooth = 0;
x = 1049;
y = 770;
},
{
smooth = 0;
x = 1026;
y = 803;
},
{
segmentType = curve;
smooth = 1;
x = 975;
y = 803;
},
{
segmentType = line;
smooth = 0;
x = 356;
y = 803;
},
{
segmentType = line;
smooth = 0;
x = 356;
y = 1285;
},
{
segmentType = line;
smooth = 1;
x = 1007;
y = 1285;
},
{
smooth = 0;
x = 1056;
y = 1285;
},
{
smooth = 0;
x = 1080;
y = 1319;
},
{
segmentType = curve;
smooth = 1;
x = 1080;
y = 1356;
},
{
smooth = 0;
x = 1080;
y = 1392;
},
{
smooth = 0;
x = 1056;
y = 1426;
},
{
segmentType = curve;
smooth = 1;
x = 1007;
y = 1426;
},
{
segmentType = line;
smooth = 1;
x = 261;
y = 1426;
},
{
smooth = 0;
x = 213;
y = 1426;
},
{
smooth = 0;
x = 178;
y = 1383;
},
{
segmentType = curve;
smooth = 1;
x = 178;
y = 1340;
},
{
segmentType = line;
smooth = 1;
x = 178;
y = 86;
},
{
smooth = 0;
x = 178;
y = 41;
},
{
smooth = 0;
x = 222;
y = 0;
}
);
}
);
lib = {
};
name = D;
unicodes = (
);
width = 1499;
};
};
components = (
);
contours = (
);
lib = {
};
name = D;
unicodes = (
);
width = 1535;
};
},
{
glyphname = E;
lastChange = "2019-08-30 16:06:38 +0000";
layers = (
{
anchors = (
{
name = bottom;
position = "{282, 0}";
},
{
name = ogonek;
position = "{452, 0}";
},
{
name = top;
position = "{394, 705}";
},
{
name = topleft;
position = "{101, 705}";
}
);
background = {
anchors = (
{
name = bottom;
position = "{281, 0}";
},
{
name = ogonek;
position = "{451, 0}";
},
{
name = top;
position = "{393, 705}";
},
{
name = topleft;
position = "{100, 705}";
}
);
paths = (
{
closed = 1;
nodes = (
"593 705 LINE",
"169 705 LINE",
"57 0 LINE",
"481 0 LINE",
"488 39 LINE",
"106 39 LINE",
"153 338 LINE",
"515 338 LINE",
"521 377 LINE",
"159 377 LINE",
"205 666 LINE",
"587 666 LINE"
);
}
);
};
layerId = "F1F93986-3ED8-4AAE-84C4-CA3EEECDDFA0";
paths = (
{
closed = 1;
nodes = (
"481 0 LINE",
"487 39 LINE",
"106 39 LINE",
"154 338 LINE",
"514 338 LINE",
"521 377 LINE",
"160 377 LINE",
"206 666 LINE",
"586 666 LINE",
"593 705 LINE",
"170 705 LINE",
"58 0 LINE"
);
}
);
width = 570;
},
{
anchors = (
{
name = bottom;
position = "{296, 0}";
},
{
name = ogonek;
position = "{501, 0}";
},
{
name = top;
position = "{407, 705}";
},
{
name = topleft;
position = "{88, 705}";
}
);
background = {
anchors = (
{
name = bottom;
position = "{297, 0}";
},
{
name = ogonek;
position = "{502, 0}";
},
{
name = top;
position = "{408, 705}";
},
{
name = topleft;
position = "{90, 705}";
}
);
paths = (
{
closed = 1;
nodes = (
"643 705 LINE",
"129 705 LINE",
"18 0 LINE",
"532 0 LINE",
"558 164 LINE",
"249 164 LINE",
"266 276 LINE",
"552 276 LINE",
"578 440 LINE",
"292 440 LINE",
"308 541 LINE",
"617 541 LINE"
);
}
);
};
layerId = "4121B50C-FD42-45C5-8FBE-41E76D98F91E";
paths = (
{
closed = 1;
nodes = (
"532 0 LINE",
"558 164 LINE",
"250 164 LINE",
"267 276 LINE",
"553 276 LINE",
"579 440 LINE",
"293 440 LINE",
"309 541 LINE",
"618 541 LINE",
"643 705 LINE",
"130 705 LINE",
"19 0 LINE"
);
}
);
width = 624;
}
);
leftKerningGroup = H;
leftMetricsKey = H;
rightKerningGroup = E;
unicode = 0045;
userData = {
anchors = (
);
b = {
};
com.typemytype.robofont.layerData = {
b = {
anchors = (
);
components = (
);
contours = (
);
lib = {
};
name = E;
unicodes = (
);
width = 1234;
};
};
components = (
);
contours = (
);
lib = {
};
name = E;
unicodes = (
);
width = 1258;
};
},
{
glyphname = F;
lastChange = "2019-08-30 16:06:40 +0000";
layers = (
{
anchors = (
{
name = bottom;
position = "{255, 0}";
},
{
name = top;
position = "{367, 705}";
}
);
background = {
anchors = (
{
name = bottom;
position = "{254, 0}";
},
{
name = top;
position = "{366, 705}";
}
);
paths = (
{
closed = 1;
nodes = (
"583 705 LINE",
"169 705 LINE",
"57 0 LINE",
"99 0 LINE",
"153 338 LINE",
"505 338 LINE",
"511 377 LINE",
"159 377 LINE",
"205 666 LINE",
"577 666 LINE"
);
}
);
};
layerId = "F1F93986-3ED8-4AAE-84C4-CA3EEECDDFA0";
paths = (
{
closed = 1;
nodes = (
"100 0 LINE",
"154 338 LINE",
"504 338 LINE",
"511 377 LINE",
"160 377 LINE",
"206 666 LINE",
"576 666 LINE",
"583 705 LINE",
"170 705 LINE",
"58 0 LINE"
);
}
);
width = 536;
},
{
anchors = (
{
name = bottom;
position = "{266, 0}";
},
{
name = top;
position = "{383, 705}";
}
);
background = {
anchors = (
{
name = bottom;
position = "{267, 0}";
},
{
name = top;
position = "{384, 705}";
}
);
paths = (
{
closed = 1;
nodes = (
"638 705 LINE",
"129 705 LINE",
"18 0 LINE",
"233 0 LINE",
"275 267 LINE",
"546 267 LINE",
"572 431 LINE",
"301 431 LINE",
"318 541 LINE",
"612 541 LINE"
);
}
);
};
layerId = "4121B50C-FD42-45C5-8FBE-41E76D98F91E";
paths = (
{
closed = 1;
nodes = (
"234 0 LINE",
"277 267 LINE",
"547 267 LINE",
"573 431 LINE",
"303 431 LINE",
"319 541 LINE",
"613 541 LINE",
"639 705 LINE",
"130 705 LINE",
"19 0 LINE"
);
}
);
width = 588;
}
);
leftKerningGroup = H;
leftMetricsKey = H;
rightKerningGroup = F;
unicode = 0046;
userData = {
anchors = (
);
b = {
};
com.typemytype.robofont.layerData = {
b = {
anchors = (
);
components = (
);
contours = (
{
points = (
{
segmentType = curve;
smooth = 1;
x = 266;
y = 0;
},
{
segmentType = line;
smooth = 1;
x = 1035;
y = 0;
},
{
smooth = 0;
x = 1084;
y = 0;
},
{
smooth = 0;
x = 1108;
y = 34;
},
{
segmentType = curve;
smooth = 1;
x = 1108;
y = 71;
},
{
smooth = 0;
x = 1108;
y = 107;
},
{
smooth = 0;
x = 1084;
y = 141;
},
{
segmentType = curve;
smooth = 1;
x = 1035;
y = 141;
},
{
segmentType = line;
smooth = 0;
x = 353;
y = 141;
},
{
segmentType = line;
smooth = 0;
x = 353;
y = 665;
},
{
segmentType = line;
smooth = 1;
x = 975;
y = 665;
},
{
smooth = 0;
x = 1024;
y = 665;
},
{
smooth = 0;
x = 1049;
y = 698;
},
{
segmentType = curve;
smooth = 1;
x = 1049;
y = 734;
},
{
smooth = 0;
x = 1049;
y = 770;
},
{
smooth = 0;
x = 1026;
y = 803;
},
{
segmentType = curve;
smooth = 1;
x = 975;
y = 803;
},
{
segmentType = line;
smooth = 0;
x = 353;
y = 803;
},
{
segmentType = line;
smooth = 0;
x = 353;
y = 1285;
},
{
segmentType = line;
smooth = 1;
x = 1007;
y = 1285;
},
{
smooth = 0;
x = 1056;
y = 1285;
},
{
smooth = 0;
x = 1080;
y = 1319;
},
{
segmentType = curve;
smooth = 1;
x = 1080;
y = 1356;
},
{
smooth = 0;
x = 1080;
y = 1392;
},
{
smooth = 0;
x = 1056;
y = 1426;
},
{
segmentType = curve;
smooth = 1;
x = 1007;
y = 1426;
},
{
segmentType = line;
smooth = 1;
x = 261;
y = 1426;
},
{
smooth = 0;
x = 213;
y = 1426;
},
{
smooth = 0;
x = 178;
y = 1383;
},
{
segmentType = curve;
smooth = 1;
x = 178;
y = 1340;
},
{
segmentType = line;
smooth = 1;
x = 178;
y = 86;
},
{
smooth = 0;
x = 178;
y = 41;
},
{
smooth = 0;
x = 222;
y = 0;
}
);
}
);
lib = {
};
name = F;
unicodes = (
);
width = 1142;
};
};
components = (
);
contours = (
);
lib = {
};
name = F;
unicodes = (
);
width = 1175;
};
},
{
glyphname = G;
lastChange = "2019-08-30 15:25:42 +0000";
layers = (
{
anchors = (
{
name = bottom;
position = "{349, 0}";
},
{
name = top;
position = "{454, 705}";
}
);
background = {
anchors = (
{
name = bottom;
position = "{351, 0}";
},
{
name = top;
position = "{456, 705}";
}
);
paths = (
{
closed = 1;
nodes = (
"442 -8 OFFCURVE",
"542 13 OFFCURVE",
"596 40 CURVE",
"646 355 LINE",
"412 355 LINE",
"405 316 LINE",
"599 316 LINE",
"555 35 LINE",
"573 73 LINE",
"512 47 OFFCURVE",
"442 33 OFFCURVE",
"368 33 CURVE SMOOTH",
"175 33 OFFCURVE",
"96 145 OFFCURVE",
"129 353 CURVE SMOOTH",
"161 555 OFFCURVE",
"276 672 OFFCURVE",
"448 672 CURVE SMOOTH",
"538 672 OFFCURVE",
"601 646 OFFCURVE",
"656 583 CURVE",
"683 618 LINE",
"633 681 OFFCURVE",
"555 713 OFFCURVE",
"455 713 CURVE SMOOTH",
"257 713 OFFCURVE",
"120 576 OFFCURVE",
"84 353 CURVE SMOOTH",
"48 124 OFFCURVE",
"143 -8 OFFCURVE",
"362 -8 CURVE SMOOTH"
);
}
);
};
layerId = "F1F93986-3ED8-4AAE-84C4-CA3EEECDDFA0";
paths = (
{
closed = 1;
nodes = (
"463 -8 OFFCURVE",
"547 10 OFFCURVE",
"595 32 CURVE",
"646 355 LINE",
"412 355 LINE",
"406 316 LINE",
"600 316 LINE",
"555 35 LINE",
"573 68 LINE",
"520 48 OFFCURVE",
"462 33 OFFCURVE",
"390 33 CURVE SMOOTH",
"215 33 OFFCURVE",
"127 127 OFFCURVE",
"127 284 CURVE SMOOTH",
"127 489 OFFCURVE",
"227 672 OFFCURVE",
"427 672 CURVE SMOOTH",
"529 672 OFFCURVE",
"591 642 OFFCURVE",
"654 571 CURVE",
"677 605 LINE",
"621 675 OFFCURVE",
"543 713 OFFCURVE",
"432 713 CURVE SMOOTH",
"205 713 OFFCURVE",
"82 516 OFFCURVE",
"82 285 CURVE SMOOTH",
"82 107 OFFCURVE",
"191 -8 OFFCURVE",
"389 -8 CURVE SMOOTH"
);
}
);
width = 718;
},
{
anchors = (
{
name = bottom;
position = "{426, 0}";
},
{
name = top;
position = "{419, 705}";
}
);
background = {
anchors = (
{
name = bottom;
position = "{387, 0}";
},
{
name = top;
position = "{491, 705}";
}
);
paths = (
{
closed = 1;
nodes = (
"484 -12 OFFCURVE",
"583 7 OFFCURVE",
"669 44 CURVE",
"726 406 LINE",
"422 406 LINE",
"399 258 LINE",
"529 258 LINE",
"505 110 LINE",
"555 187 LINE",
"507 174 OFFCURVE",
"462 167 OFFCURVE",
"429 167 CURVE SMOOTH",
"313 167 OFFCURVE",
"261 228 OFFCURVE",
"280 348 CURVE SMOOTH",
"299 470 OFFCURVE",
"368 534 OFFCURVE",
"495 534 CURVE SMOOTH",
"561 534 OFFCURVE",
"618 519 OFFCURVE",
"673 484 CURVE",
"763 649 LINE",
"715 689 OFFCURVE",
"620 717 OFFCURVE",
"522 717 CURVE SMOOTH",
"266 717 OFFCURVE",
"92 572 OFFCURVE",
"57 348 CURVE SMOOTH",
"23 136 OFFCURVE",
"140 -12 OFFCURVE",
"388 -12 CURVE SMOOTH"
);
}
);
};
layerId = "4121B50C-FD42-45C5-8FBE-41E76D98F91E";
paths = (
{
closed = 1;
nodes = (
"511 -12 OFFCURVE",
"603 9 OFFCURVE",
"670 39 CURVE",
"728 406 LINE",
"425 406 LINE",
"401 258 LINE",
"531 258 LINE",
"507 110 LINE",
"556 184 LINE",
"515 174 OFFCURVE",
"476 167 OFFCURVE",
"445 167 CURVE SMOOTH",
"338 167 OFFCURVE",
"281 218 OFFCURVE",
"281 311 CURVE SMOOTH",
"281 442 OFFCURVE",
"342 535 OFFCURVE",
"476 535 CURVE SMOOTH",
"547 535 OFFCURVE",
"608 516 OFFCURVE",
"669 474 CURVE",
"754 626 LINE",
"697 680 OFFCURVE",
"584 717 OFFCURVE",
"481 717 CURVE SMOOTH",
"222 717 OFFCURVE",
"57 541 OFFCURVE",
"58 305 CURVE SMOOTH",
"59 119 OFFCURVE",
"197 -12 OFFCURVE",
"428 -12 CURVE SMOOTH"
);
}
);
width = 754;
}
);
leftKerningGroup = O;
leftMetricsKey = O;
rightKerningGroup = G;
unicode = 0047;
userData = {
anchors = (
);
b = {
};
com.typemytype.robofont.layerData = {
b = {
anchors = (
);
components = (
);
contours = (
{
points = (
{
segmentType = curve;
smooth = 1;
x = 783;
y = "-22";
},
{
smooth = 0;
x = 965;
y = "-22";
},
{
smooth = 0;
x = 1086;
y = 34;
},
{
segmentType = curve;
smooth = 1;
x = 1166;
y = 86;
},
{
smooth = 0;
x = 1270;
y = 154;
},
{
smooth = 0;
x = 1186;
y = 258;
},
{
segmentType = curve;
smooth = 1;
x = 1112;
y = 214;
},
{
smooth = 0;
x = 1024;
y = 162;
},
{
smooth = 0;
x = 939;
y = 120;
},
{
segmentType = curve;
smooth = 1;
x = 806;
y = 120;
},
{
smooth = 0;
x = 446;
y = 120;
},
{
smooth = 0;
x = 316;
y = 406;
},
{
segmentType = curve;
smooth = 1;
x = 316;
y = 706;
},
{
smooth = 0;
x = 316;
y = 1005;
},
{
smooth = 0;
x = 450;
y = 1296;
},
{
segmentType = curve;
smooth = 1;
x = 801;
y = 1296;
},
{
smooth = 0;
x = 980;
y = 1296;
},
{
smooth = 0;
x = 1053;
y = 1246;
},
{
segmentType = curve;
smooth = 1;
x = 1094;
y = 1225;
},
{
smooth = 0;
x = 1174;
y = 1184;
},
{
smooth = 0;
x = 1231;
y = 1300;
},
{
segmentType = curve;
smooth = 1;
x = 1156;
y = 1343;
},
{
smooth = 0;
x = 1106;
y = 1372;
},
{
smooth = 0;
x = 995;
y = 1438;
},
{
segmentType = curve;
smooth = 1;
x = 797;
y = 1438;
},
{
smooth = 0;
x = 359;
y = 1438;
},
{
smooth = 0;
x = 128;
y = 1093;
},
{
segmentType = curve;
smooth = 1;
x = 128;
y = 704;
},
{
smooth = 0;
x = 128;
y = 307;
},
{
smooth = 0;
x = 350;
y = "-22";
}
);
}
);
lib = {
};
name = G;
unicodes = (
);
width = 1448;
};
};
components = (
);
contours = (
);
lib = {
};
name = G;
unicodes = (
);
width = 1538;
};
},
{
glyphname = H;
lastChange = "2019-09-04 07:56:54 +0000";
layers = (
{
anchors = (
{
name = bottom;
position = "{375, 0}";
},
{
name = center;
position = "{375, 546}";
},
{
name = top;
position = "{374, 705}";
},
{
name = topleft;
position = "{26, 705}";
}
);
background = {
anchors = (
{
name = bottom;
position = "{337, 0}";
},
{
name = center;
position = "{424, 546}";
},
{
name = top;
position = "{448, 705}";
},
{
name = topleft;
position = "{100, 705}";
}
);
paths = (
{
closed = 1;
nodes = (
"634 377 LINE",
"159 377 LINE",
"211 705 LINE",
"169 705 LINE",
"57 0 LINE",
"99 0 LINE",
"153 338 LINE",
"628 338 LINE",
"574 0 LINE",
"616 0 LINE",
"728 705 LINE",
"686 705 LINE"
);
}
);
};
layerId = "F1F93986-3ED8-4AAE-84C4-CA3EEECDDFA0";
paths = (
{
closed = 1;
nodes = (
"574 0 LINE",
"616 0 LINE",
"728 705 LINE",
"686 705 LINE"
);
},
{
closed = 1;
nodes = (
"212 705 LINE",
"170 705 LINE",
"58 0 LINE",
"100 0 LINE"
);
},
{
closed = 1;
nodes = (
"645 377 LINE",
"150 377 LINE",
"143 338 LINE",
"638 338 LINE"
);
}
);
width = 751;
},
{
anchors = (
{
name = bottom;
position = "{354, 0}";
},
{
name = center;
position = "{450, 575}";
},
{
name = top;
position = "{471, 705}";
},
{
name = topleft;
position = "{91, 705}";
}
);
background = {
anchors = (
{
name = bottom;
position = "{358, 0}";
},
{
name = center;
position = "{449, 575}";
},
{
name = top;
position = "{469, 705}";
},
{
name = topleft;
position = "{90, 705}";
}
);
paths = (
{
closed = 1;
nodes = (
"553 445 LINE",
"303 445 LINE",
"344 705 LINE",
"129 705 LINE",
"18 0 LINE",
"233 0 LINE",
"275 269 LINE",
"525 269 LINE",
"483 0 LINE",
"698 0 LINE",
"809 705 LINE",
"594 705 LINE"
);
}
);
};
layerId = "4121B50C-FD42-45C5-8FBE-41E76D98F91E";
paths = (
{
closed = 1;
nodes = (
"483 0 LINE",
"698 0 LINE",
"810 705 LINE",
"595 705 LINE"
);
},
{
closed = 1;
nodes = (
"345 705 LINE",
"130 705 LINE",
"18 0 LINE",
"233 0 LINE"
);
},
{
closed = 1;
nodes = (
"568 445 LINE",
"287 445 LINE",
"260 269 LINE",
"540 269 LINE"
);
}
);
width = 794;
}
);
leftKerningGroup = H;
rightKerningGroup = H;
unicode = 0048;
userData = {
anchors = (
);
b = {
};
com.typemytype.robofont.layerData = {
b = {
anchors = (
);
components = (
);
contours = (
);
lib = {
};
name = H;
unicodes = (
);
width = 1464;
};
};
components = (
);
contours = (
);
lib = {
};
name = H;
unicodes = (
);
width = 1524;
};
},
{
glyphname = I;
lastChange = "2019-09-04 07:47:52 +0000";
layers = (
{
anchors = (
{
name = bottom;
position = "{79, 0}";
},
{
name = ogonek;
position = "{100, 0}";
},
{
name = top;
position = "{191, 705}";
},
{
name = topleft;
position = "{102, 705}";
}
);
background = {
anchors = (
{
name = bottom;
position = "{78, 0}";
},
{
name = ogonek;
position = "{99, 0}";
},
{
name = top;
position = "{190, 705}";
},
{
name = topleft;
position = "{101, 705}";
}
);
paths = (
{
closed = 1;
nodes = (
"99 0 LINE",
"211 705 LINE",
"169 705 LINE",
"57 0 LINE"
);
}
);
};
layerId = "F1F93986-3ED8-4AAE-84C4-CA3EEECDDFA0";
paths = (
{
closed = 1;
nodes = (
"100 0 LINE",
"212 705 LINE",
"170 705 LINE",
"58 0 LINE"
);
}
);
width = 234;
},
{
anchors = (
{
name = bottom;
position = "{125, 0}";
},
{
name = ogonek;
position = "{176, 0}";
},
{
name = top;
position = "{236, 705}";
},
{
name = topleft;
position = "{89, 705}";
}
);
background = {
anchors = (
{
name = bottom;
position = "{125, 0}";
},
{
name = ogonek;
position = "{176, 0}";
},
{
name = top;
position = "{236, 705}";
},
{
name = topleft;
position = "{90, 705}";
}
);
paths = (
{
closed = 1;
nodes = (
"233 0 LINE",
"344 705 LINE",
"129 705 LINE",
"18 0 LINE"
);
}
);
};
layerId = "4121B50C-FD42-45C5-8FBE-41E76D98F91E";
paths = (
{
closed = 1;
nodes = (
"233 0 LINE",
"345 705 LINE",
"130 705 LINE",
"18 0 LINE"
);
}
);
width = 329;
}
);
leftKerningGroup = H;
leftMetricsKey = H;
rightKerningGroup = H;
unicode = 0049;
userData = {
anchors = (
);
b = {
};
com.typemytype.robofont.layerData = {
b = {
anchors = (
);
components = (
);
contours = (
);
lib = {
};
name = I;
unicodes = (
);
width = 592;
};
};
components = (
);
contours = (
);
lib = {
};
name = I;
unicodes = (
);
width = 637;
};
},
{
glyphname = J;
lastChange = "2019-09-04 07:42:05 +0000";
layers = (
{
anchors = (
{
name = bottom;
position = "{143, 0}";
},
{
name = top;
position = "{254, 705}";
}
);
background = {
anchors = (
{
name = bottom;
position = "{142, 0}";
},
{
name = top;
position = "{253, 705}";
}
);
paths = (
{
closed = 1;
nodes = (
"5 -2 LINE SMOOTH",
"107 5 OFFCURVE",
"173 70 OFFCURVE",
"190 177 CURVE SMOOTH",
"274 705 LINE",
"232 705 LINE",
"149 179 LINE SMOOTH",
"136 96 OFFCURVE",
"84 42 OFFCURVE",
"8 36 CURVE SMOOTH",
"-44 32 LINE",
"-46 -6 LINE"
);
}
);
};
layerId = "F1F93986-3ED8-4AAE-84C4-CA3EEECDDFA0";
paths = (
{
closed = 1;
nodes = (
"12 -2 LINE SMOOTH",
"112 5 OFFCURVE",
"173 68 OFFCURVE",
"190 177 CURVE SMOOTH",
"274 705 LINE",
"232 705 LINE",
"148 179 LINE SMOOTH",
"135 96 OFFCURVE",
"83 42 OFFCURVE",
"8 36 CURVE SMOOTH",
"-43 32 LINE",
"-45 -6 LINE"
);
}
);
width = 297;
},
{
anchors = (
{
name = bottom;
position = "{207, 0}";
},
{
name = top;
position = "{318, 705}";
}
);
background = {
anchors = (
{
name = bottom;
position = "{207, 0}";
},
{
name = top;
position = "{318, 705}";
}
);
paths = (
{
closed = 1;
nodes = (
"77 -7 LINE SMOOTH",
"238 2 OFFCURVE",
"327 76 OFFCURVE",
"350 221 CURVE SMOOTH",
"426 705 LINE",
"211 705 LINE",
"134 217 LINE SMOOTH",
"128 177 OFFCURVE",
"110 166 OFFCURVE",
"67 164 CURVE SMOOTH",
"-23 159 LINE",
"-37 -12 LINE"
);
}
);
};
layerId = "4121B50C-FD42-45C5-8FBE-41E76D98F91E";
paths = (
{
closed = 1;
nodes = (
"87 -6 LINE SMOOTH",
"265 3 OFFCURVE",
"327 74 OFFCURVE",
"349 215 CURVE SMOOTH",
"427 705 LINE",
"212 705 LINE",
"134 217 LINE SMOOTH",
"128 177 OFFCURVE",
"111 166 OFFCURVE",
"67 164 CURVE SMOOTH",
"-22 159 LINE",
"-28 -12 LINE"
);
}
);
width = 411;
}
);
leftKerningGroup = J;
rightKerningGroup = J;
rightMetricsKey = H;
unicode = 004A;
userData = {
anchors = (
);
b = {
};
com.typemytype.robofont.layerData = {
b = {
anchors = (
);
components = (
);
contours = (
);
lib = {
};
name = J;
unicodes = (
);
width = 1003;
};
};
components = (
);
contours = (
);
lib = {
};
name = J;
unicodes = (
);
width = 1126;
};
},
{
glyphname = K;
lastChange = "2019-09-04 08:18:10 +0000";
layers = (
{
anchors = (
{
name = bottom;
position = "{264, 0}";
},
{
name = top;
position = "{375, 705}";
},
{
name = topleft;
position = "{101, 705}";
}
);
background = {
anchors = (
{
name = bottom;
position = "{263, 0}";
},
{
name = top;
position = "{374, 705}";
},
{
name = topleft;
position = "{100, 705}";
}
);
paths = (
{
closed = 1;
nodes = (
"181 374 LINE",
"174 342 LINE",
"641 705 LINE",
"582 705 LINE",
"161 377 LINE",
"159 377 LINE",
"211 705 LINE",
"169 705 LINE",
"57 0 LINE",
"99 0 LINE",
"153 338 LINE",
"155 338 LINE",
"493 0 LINE",
"555 0 LINE"
);
}
);
};
layerId = "F1F93986-3ED8-4AAE-84C4-CA3EEECDDFA0";
paths = (
{
closed = 1;
nodes = (
"100 0 LINE",
"153 338 LINE",
"155 338 LINE",
"498 0 LINE",
"556 0 LINE",
"181 369 LINE",
"175 339 LINE",
"645 705 LINE",
"584 705 LINE",
"161 377 LINE",
"159 377 LINE",
"212 705 LINE",
"170 705 LINE",
"58 0 LINE"
);
}
);
width = 590;
},
{
anchors = (
{
name = bottom;
position = "{322, 0}";
},
{
name = top;
position = "{433, 705}";
},
{
name = topleft;
position = "{88, 705}";
}
);
background = {
anchors = (
{
name = bottom;
position = "{323, 0}";
},
{
name = top;
position = "{434, 705}";
},
{
name = topleft;
position = "{90, 705}";
}
);
paths = (
{
closed = 1;
nodes = (
"473 416 LINE",
"459 331 LINE",
"852 705 LINE",
"599 705 LINE",
"299 408 LINE",
"297 408 LINE",
"344 705 LINE",
"129 705 LINE",
"18 0 LINE",
"233 0 LINE",
"282 314 LINE",
"284 314 LINE",
"495 0 LINE",
"749 0 LINE"
);
}
);
};
guideLines = (
{
angle = -55.165;
position = "{588, 232}";
}
);
layerId = "4121B50C-FD42-45C5-8FBE-41E76D98F91E";
paths = (
{
closed = 1;
nodes = (
"233 0 LINE",
"284 319 LINE",
"286 319 LINE",
"509 0 LINE",
"750 0 LINE",
"462 416 LINE",
"472 329 LINE",
"850 705 LINE",
"589 705 LINE",
"300 409 LINE",
"298 409 LINE",
"345 705 LINE",
"130 705 LINE",
"18 0 LINE"
);
}
);
width = 739;
}
);
leftKerningGroup = H;
leftMetricsKey = H;
rightKerningGroup = K;
unicode = 004B;
userData = {
anchors = (
);
b = {
};
com.typemytype.robofont.layerData = {
b = {
anchors = (
);
components = (
);
contours = (
);
lib = {
};
name = K;
unicodes = (
);
width = 1210;
};
};
components = (
);
contours = (
);
lib = {
};
name = K;
unicodes = (
);
width = 1329;
};
},
{
glyphname = L;
lastChange = "2019-09-04 07:49:17 +0000";
layers = (
{
anchors = (
{
name = bottom;
position = "{267, 0}";
},
{
name = center;
position = "{185, 387}";
},
{
name = dot;
position = "{407, 386}";
},
{
name = top;
position = "{191, 705}";
},
{
name = topright;
position = "{333, 705}";
}
);
background = {
anchors = (
{
name = bottom;
position = "{266, 0}";
},
{
name = center;
position = "{184, 387}";
},
{
name = dot;
position = "{406, 386}";
},
{
name = top;
position = "{190, 705}";
},
{
name = topright;
position = "{333, 705}";
}
);
paths = (
{
closed = 1;
nodes = (
"475 0 LINE",
"482 39 LINE",
"106 39 LINE",
"211 705 LINE",
"169 705 LINE",
"57 0 LINE"
);
}
);
};
layerId = "F1F93986-3ED8-4AAE-84C4-CA3EEECDDFA0";
paths = (
{
closed = 1;
nodes = (
"476 0 LINE",
"482 39 LINE",
"106 39 LINE",
"212 705 LINE",
"170 705 LINE",
"58 0 LINE"
);
}
);
width = 527;
},
{
anchors = (
{
name = bottom;
position = "{275, 0}";
},
{
name = center;
position = "{233, 387}";
},
{
name = dot;
position = "{488, 402}";
},
{
name = top;
position = "{235, 705}";
},
{
name = topright;
position = "{433, 705}";
}
);
background = {
anchors = (
{
name = bottom;
position = "{276, 0}";
},
{
name = center;
position = "{234, 387}";
},
{
name = dot;
position = "{489, 402}";
},
{
name = top;
position = "{236, 705}";
},
{
name = topright;
position = "{434, 705}";
}
);
paths = (
{
closed = 1;
nodes = (
"533 0 LINE",
"561 178 LINE",
"261 178 LINE",
"344 705 LINE",
"129 705 LINE",
"18 0 LINE"
);
}
);
};
layerId = "4121B50C-FD42-45C5-8FBE-41E76D98F91E";
paths = (
{
closed = 1;
nodes = (
"534 0 LINE",
"562 178 LINE",
"261 178 LINE",
"345 705 LINE",
"130 705 LINE",
"18 0 LINE"
);
}
);
width = 598;
}
);
leftKerningGroup = H;
leftMetricsKey = H;
rightKerningGroup = L;
unicode = 004C;
userData = {
anchors = (
);
b = {
};
com.typemytype.robofont.layerData = {
b = {
anchors = (
);
components = (
);
contours = (
{
points = (
{
segmentType = curve;
smooth = 1;
x = 266;
y = 0;
},
{
segmentType = line;
smooth = 1;
x = 1035;
y = 0;
},
{
smooth = 0;
x = 1084;
y = 0;
},
{
smooth = 0;
x = 1108;
y = 34;
},
{
segmentType = curve;
smooth = 1;
x = 1108;
y = 71;
},
{
smooth = 0;
x = 1108;
y = 107;
},
{
smooth = 0;
x = 1084;
y = 141;
},
{
segmentType = curve;
smooth = 1;
x = 1035;
y = 141;
},
{
segmentType = line;
smooth = 0;
x = 356;
y = 141;
},
{
segmentType = line;
smooth = 0;
x = 356;
y = 665;
},
{
segmentType = line;
smooth = 1;
x = 975;
y = 665;
},
{
smooth = 0;
x = 1024;
y = 665;
},
{
smooth = 0;
x = 1049;
y = 698;
},
{
segmentType = curve;
smooth = 1;
x = 1049;
y = 734;
},
{
smooth = 0;
x = 1049;
y = 770;
},
{
smooth = 0;
x = 1026;
y = 803;
},
{
segmentType = curve;
smooth = 1;
x = 975;
y = 803;
},
{
segmentType = line;
smooth = 0;
x = 356;
y = 803;
},
{
segmentType = line;
smooth = 0;
x = 356;
y = 1285;
},
{
segmentType = line;
smooth = 1;
x = 1007;
y = 1285;
},
{
smooth = 0;
x = 1056;
y = 1285;
},
{
smooth = 0;
x = 1080;
y = 1319;
},
{
segmentType = curve;
smooth = 1;
x = 1080;
y = 1356;
},
{
smooth = 0;
x = 1080;
y = 1392;
},
{
smooth = 0;
x = 1056;
y = 1426;
},
{
segmentType = curve;
smooth = 1;
x = 1007;
y = 1426;
},
{
segmentType = line;
smooth = 1;
x = 261;
y = 1426;
},
{
smooth = 0;
x = 213;
y = 1426;
},
{
smooth = 0;
x = 178;
y = 1383;
},
{
segmentType = curve;
smooth = 1;
x = 178;
y = 1340;
},
{
segmentType = line;
smooth = 1;
x = 178;
y = 86;
},
{
smooth = 0;
x = 178;
y = 41;
},
{
smooth = 0;
x = 222;
y = 0;
}
);
}
);
lib = {
};
name = L;
unicodes = (
);
width = 1095;
};
};
components = (
);
contours = (
);
lib = {
};
name = L;
unicodes = (
);
width = 1169;
};
},
{
glyphname = M;
lastChange = "2019-09-04 08:01:41 +0000";
layers = (
{
anchors = (
{
name = bottom;
position = "{384, 0}";
},
{
name = top;
position = "{496, 705}";
}
);
background = {
anchors = (
{
name = bottom;
position = "{383, 0}";
},
{
name = top;
position = "{495, 705}";
}
);
paths = (
{
closed = 1;
nodes = (
"98 0 LINE",
"204 666 LINE",
"179 666 LINE",
"385 110 LINE",
"420 110 LINE",
"798 665 LINE",
"774 665 LINE",
"668 0 LINE",
"707 0 LINE",
"819 705 LINE",
"783 705 LINE",
"390 127 LINE",
"418 127 LINE",
"207 705 LINE",
"171 705 LINE",
"59 0 LINE"
);
}
);
};
guideLines = (
{
angle = -69.5796;
position = "{318, 396}";
}
);
layerId = "F1F93986-3ED8-4AAE-84C4-CA3EEECDDFA0";
paths = (
{
closed = 1;
nodes = (
"99 0 LINE",
"204 666 LINE",
"181 666 LINE",
"386 110 LINE",
"421 110 LINE",
"798 665 LINE",
"773 665 LINE",
"668 0 LINE",
"707 0 LINE",
"819 705 LINE",
"782 705 LINE",
"389 127 LINE",
"417 127 LINE",
"207 705 LINE",
"172 705 LINE",
"60 0 LINE"
);
}
);
width = 844;
},
{
anchors = (
{
name = bottom;
position = "{408, 0}";
},
{
name = top;
position = "{519, 705}";
}
);
background = {
anchors = (
{
name = bottom;
position = "{408, 0}";
},
{
name = top;
position = "{519, 705}";
}
);
paths = (
{
closed = 1;
nodes = (
"214 0 LINE",
"272 365 LINE",
"249 365 LINE",
"365 103 LINE",
"479 103 LINE",
"679 365 LINE",
"659 365 LINE",
"601 0 LINE",
"795 0 LINE",
"906 705 LINE",
"732 705 LINE",
"439 301 LINE",
"475 301 LINE",
"310 705 LINE",
"131 705 LINE",
"20 0 LINE"
);
}
);
};
layerId = "4121B50C-FD42-45C5-8FBE-41E76D98F91E";
paths = (
{
closed = 1;
nodes = (
"214 0 LINE",
"273 366 LINE",
"249 366 LINE",
"368 103 LINE",
"482 103 LINE",
"683 365 LINE",
"660 365 LINE",
"601 0 LINE",
"795 0 LINE",
"907 705 LINE",
"730 705 LINE",
"430 301 LINE",
"466 301 LINE",
"308 705 LINE",
"132 705 LINE",
"20 0 LINE"
);
}
);
width = 893;
}
);
leftKerningGroup = H;
leftMetricsKey = "=H+2";
rightKerningGroup = H;
rightMetricsKey = "=H+2";
unicode = 004D;
userData = {
anchors = (
);
b = {
};
com.typemytype.robofont.layerData = {
b = {
anchors = (
);
components = (
);
contours = (
);
lib = {
};
name = M;
unicodes = (
);
width = 1899;
};
};
components = (
);
contours = (
);
lib = {
};
name = M;
unicodes = (
);
width = 1984;
};
},
{
glyphname = N;
lastChange = "2019-09-04 07:55:26 +0000";
layers = (
{
anchors = (
{
name = bottom;
position = "{328, 0}";
},
{
name = top;
position = "{440, 705}";
}
);
background = {
anchors = (
{
name = bottom;
position = "{327, 0}";
},
{
name = top;
position = "{439, 705}";
}
);
paths = (
{
closed = 1;
nodes = (
"96 0 LINE",
"201 663 LINE",
"180 663 LINE",
"563 0 LINE",
"597 0 LINE",
"709 705 LINE",
"670 705 LINE",
"565 42 LINE",
"587 42 LINE",
"204 705 LINE",
"169 705 LINE",
"57 0 LINE"
);
}
);
};
layerId = "F1F93986-3ED8-4AAE-84C4-CA3EEECDDFA0";
paths = (
{
closed = 1;
nodes = (
"97 0 LINE",
"202 663 LINE",
"183 665 LINE",
"563 0 LINE",
"597 0 LINE",
"709 705 LINE",
"670 705 LINE",
"564 42 LINE",
"584 40 LINE",
"205 705 LINE",
"170 705 LINE",
"58 0 LINE"
);
}
);
width = 732;
},
{
anchors = (
{
name = bottom;
position = "{342, 0}";
},
{
name = top;
position = "{452, 705}";
}
);
background = {
anchors = (
{
name = bottom;
position = "{343, 0}";
},
{
name = top;
position = "{453, 705}";
}
);
paths = (
{
closed = 1;
nodes = (
"218 0 LINE",
"280 390 LINE",
"250 390 LINE",
"510 0 LINE",
"667 0 LINE",
"778 705 LINE",
"578 705 LINE",
"517 315 LINE",
"547 315 LINE",
"286 705 LINE",
"129 705 LINE",
"18 0 LINE"
);
}
);
};
layerId = "4121B50C-FD42-45C5-8FBE-41E76D98F91E";
paths = (
{
closed = 1;
nodes = (
"218 0 LINE",
"281 394 LINE",
"251 413 LINE",
"511 0 LINE",
"667 0 LINE",
"779 705 LINE",
"579 705 LINE",
"516 311 LINE",
"546 292 LINE",
"287 705 LINE",
"130 705 LINE",
"18 0 LINE"
);
}
);
width = 763;
}
);
leftKerningGroup = H;
leftMetricsKey = H;
rightKerningGroup = H;
rightMetricsKey = H;
unicode = 004E;
userData = {
anchors = (
);
b = {
};
com.typemytype.robofont.layerData = {
b = {
anchors = (
);
components = (
);
contours = (
);
lib = {
};
name = N;
unicodes = (
);
width = 1499;
};
};
components = (
);
contours = (
);
lib = {
};
name = N;
unicodes = (
);
width = 1557;
};
},
{
glyphname = Eng;
lastChange = "2019-08-30 14:16:40 +0000";
layers = (
{
anchors = (
{
name = bottom;
position = "{327, 0}";
},
{
name = top;
position = "{439, 705}";
}
);
background = {
anchors = (
{
name = bottom;
position = "{327, 0}";
},
{
name = top;
position = "{439, 705}";
}
);
paths = (
{
closed = 1;
nodes = (
"709 705 LINE",
"670 705 LINE",
"565 42 LINE",
"587 42 LINE",
"204 705 LINE",
"169 705 LINE",
"57 0 LINE",
"96 0 LINE",
"201 663 LINE",
"180 663 LINE",
"563 0 LINE",
"562 25 LINE",
"555 -22 LINE SMOOTH",
"542 -102 OFFCURVE",
"497 -147 OFFCURVE",
"426 -152 CURVE SMOOTH",
"385 -155 LINE",
"382 -193 LINE",
"425 -190 LINE SMOOTH",
"516 -184 OFFCURVE",
"578 -124 OFFCURVE",
"594 -21 CURVE SMOOTH"
);
}
);
};
layerId = "F1F93986-3ED8-4AAE-84C4-CA3EEECDDFA0";
paths = (
{
closed = 1;
nodes = (
"709 705 LINE",
"670 705 LINE",
"565 42 LINE",
"587 42 LINE",
"204 705 LINE",
"169 705 LINE",
"57 0 LINE",
"96 0 LINE",
"201 663 LINE",
"180 663 LINE",
"563 0 LINE",
"562 25 LINE",
"555 -22 LINE SMOOTH",
"542 -102 OFFCURVE",
"497 -147 OFFCURVE",
"426 -152 CURVE SMOOTH",
"385 -155 LINE",
"382 -193 LINE",
"425 -190 LINE SMOOTH",
"516 -184 OFFCURVE",
"578 -124 OFFCURVE",
"594 -21 CURVE SMOOTH"
);
}
);
width = 732;
},
{
anchors = (
{
name = bottom;
position = "{343, 0}";
},
{
name = top;
position = "{453, 705}";
}
);
background = {
anchors = (
{
name = bottom;
position = "{382, 0}";
},
{
name = top;
position = "{381, 705}";
}
);
paths = (
{
closed = 1;
nodes = (
"1506 705 LINE",
"1306 705 LINE",
"1306 314 LINE",
"1334 314 LINE",
"1012 705 LINE",
"857 705 LINE",
"857 0 LINE",
"1057 0 LINE",
"1057 391 LINE",
"1028 391 LINE",
"1347 0 LINE",
"1307 76 LINE",
"1307 8 LINE SMOOTH",
"1307 -24 OFFCURVE",
"1290 -38 OFFCURVE",
"1254 -42 CURVE SMOOTH",
"1199 -48 LINE",
"1213 -193 LINE",
"1257 -190 LINE SMOOTH",
"1447 -177 OFFCURVE",
"1506 -120 OFFCURVE",
"1506 39 CURVE SMOOTH"
);
},
{
closed = 1;
nodes = (
"257 0 LINE",
"257 390 LINE",
"227 390 LINE",
"549 0 LINE",
"706 0 LINE",
"706 705 LINE",
"506 705 LINE",
"506 315 LINE",
"536 315 LINE",
"214 705 LINE",
"57 705 LINE",
"57 0 LINE"
);
}
);
};
layerId = "4121B50C-FD42-45C5-8FBE-41E76D98F91E";
paths = (
{
closed = 1;
nodes = (
"778 705 LINE",
"578 705 LINE",
"517 315 LINE",
"547 315 LINE",
"286 705 LINE",
"129 705 LINE",
"18 0 LINE",
"218 0 LINE",
"280 390 LINE",
"250 390 LINE",
"510 0 LINE",
"480 76 LINE",
"469 8 LINE SMOOTH",
"464 -24 OFFCURVE",
"445 -38 OFFCURVE",
"408 -42 CURVE SMOOTH",
"352 -48 LINE",
"343 -193 LINE",
"388 -190 LINE SMOOTH",
"580 -177 OFFCURVE",
"648 -120 OFFCURVE",
"673 39 CURVE SMOOTH"
);
}
);
width = 763;
}
);
leftKerningGroup = H;
leftMetricsKey = N;
widthMetricsKey = N;
rightKerningGroup = H;
unicode = 014A;
userData = {
com.typemytype.robofont.layerData = {
b = {
anchors = (
);
components = (
);
contours = (
);
lib = {
};
name = Eng;
unicodes = (
);
width = 1495;
};
};
};
},
{
glyphname = O;
lastChange = "2019-09-04 07:40:41 +0000";
layers = (
{
anchors = (
{
name = Qtail;
position = "{315, -8}";
},
{
name = bottom;
position = "{316, 0}";
},
{
name = center;
position = "{373, 353}";
},
{
name = ogonek;
position = "{371, 0}";
},
{
name = top;
position = "{428, 705}";
},
{
name = topleft;
position = "{79, 705}";
},
{
name = topright;
position = "{501, 705}";
}
);
background = {
anchors = (
{
name = Qtail;
position = "{335, -8}";
},
{
name = bottom;
position = "{336, 0}";
},
{
name = center;
position = "{393, 353}";
},
{
name = ogonek;
position = "{391, 0}";
},
{
name = top;
position = "{448, 705}";
},
{
name = topleft;
position = "{99, 705}";
},
{
name = topright;
position = "{521, 705}";
}
);
paths = (
{
closed = 1;
nodes = (
"526 -8 OFFCURVE",
"666 130 OFFCURVE",
"701 353 CURVE SMOOTH",
"737 576 OFFCURVE",
"641 713 OFFCURVE",
"449 713 CURVE SMOOTH",
"257 713 OFFCURVE",
"120 576 OFFCURVE",
"84 352 CURVE SMOOTH",
"49 130 OFFCURVE",
"145 -8 OFFCURVE",
"335 -8 CURVE SMOOTH"
);
},
{
closed = 1;
nodes = (
"175 33 OFFCURVE",
"97 151 OFFCURVE",
"129 353 CURVE SMOOTH",
"161 555 OFFCURVE",
"276 672 OFFCURVE",
"443 672 CURVE SMOOTH",
"612 672 OFFCURVE",
"688 556 OFFCURVE",
"656 353 CURVE SMOOTH",
"624 150 OFFCURVE",
"510 33 OFFCURVE",
"342 33 CURVE SMOOTH"
);
}
);
};
layerId = "F1F93986-3ED8-4AAE-84C4-CA3EEECDDFA0";
paths = (
{
closed = 1;
nodes = (
"581 -8 OFFCURVE",
"704 189 OFFCURVE",
"704 420 CURVE SMOOTH",
"704 596 OFFCURVE",
"595 713 OFFCURVE",
"423 713 CURVE SMOOTH",
"205 713 OFFCURVE",
"82 516 OFFCURVE",
"82 285 CURVE SMOOTH",
"82 107 OFFCURVE",
"191 -8 OFFCURVE",
"363 -8 CURVE SMOOTH"
);
},
{
closed = 1;
nodes = (
"215 33 OFFCURVE",
"127 127 OFFCURVE",
"127 284 CURVE SMOOTH",
"127 489 OFFCURVE",
"227 672 OFFCURVE",
"422 672 CURVE SMOOTH",
"571 672 OFFCURVE",
"659 576 OFFCURVE",
"659 421 CURVE SMOOTH",
"659 216 OFFCURVE",
"559 33 OFFCURVE",
"364 33 CURVE SMOOTH"
);
}
);
width = 751;
},
{
anchors = (
{
name = Qtail;
position = "{374, -12}";
},
{
name = bottom;
position = "{376, 0}";
},
{
name = center;
position = "{432, 353}";
},
{
name = ogonek;
position = "{440, 0}";
},
{
name = top;
position = "{486, 705}";
},
{
name = topleft;
position = "{104, 705}";
},
{
name = topright;
position = "{551, 705}";
}
);
background = {
anchors = (
{
name = Qtail;
position = "{368, -12}";
},
{
name = bottom;
position = "{370, 0}";
},
{
name = center;
position = "{426, 353}";
},
{
name = ogonek;
position = "{434, 0}";
},
{
name = top;
position = "{480, 705}";
},
{
name = topleft;
position = "{98, 705}";
},
{
name = topright;
position = "{545, 705}";
}
);
paths = (
{
closed = 1;
nodes = (
"588 -12 OFFCURVE",
"761 135 OFFCURVE",
"796 354 CURVE SMOOTH",
"830 572 OFFCURVE",
"703 717 OFFCURVE",
"484 717 CURVE SMOOTH",
"265 717 OFFCURVE",
"92 572 OFFCURVE",
"58 354 CURVE SMOOTH",
"23 136 OFFCURVE",
"150 -12 OFFCURVE",
"369 -12 CURVE SMOOTH"
);
},
{
closed = 1;
nodes = (
"306 167 OFFCURVE",
"262 236 OFFCURVE",
"281 353 CURVE SMOOTH",
"299 470 OFFCURVE",
"365 538 OFFCURVE",
"456 538 CURVE SMOOTH",
"547 538 OFFCURVE",
"591 469 OFFCURVE",
"573 353 CURVE SMOOTH",
"554 237 OFFCURVE",
"488 167 OFFCURVE",
"397 167 CURVE SMOOTH"
);
}
);
};
layerId = "4121B50C-FD42-45C5-8FBE-41E76D98F91E";
paths = (
{
closed = 1;
nodes = (
"633 -12 OFFCURVE",
"796 164 OFFCURVE",
"796 397 CURVE SMOOTH",
"796 586 OFFCURVE",
"658 717 OFFCURVE",
"454 717 CURVE SMOOTH",
"221 717 OFFCURVE",
"58 541 OFFCURVE",
"58 308 CURVE SMOOTH",
"58 119 OFFCURVE",
"196 -12 OFFCURVE",
"400 -12 CURVE SMOOTH"
);
},
{
closed = 1;
nodes = (
"327 167 OFFCURVE",
"281 220 OFFCURVE",
"281 312 CURVE SMOOTH",
"281 429 OFFCURVE",
"336 538 OFFCURVE",
"447 538 CURVE SMOOTH",
"527 538 OFFCURVE",
"573 485 OFFCURVE",
"573 393 CURVE SMOOTH",
"573 276 OFFCURVE",
"518 167 OFFCURVE",
"407 167 CURVE SMOOTH"
);
}
);
width = 820;
}
);
leftKerningGroup = O;
rightKerningGroup = O;
rightMetricsKey = "=|";
unicode = 004F;
userData = {
anchors = (
);
b = {
};
com.typemytype.robofont.guides = (
);
com.typemytype.robofont.layerData = {
b = {
anchors = (
);
components = (
);
contours = (
);
lib = {
};
name = O;
unicodes = (
);
width = 1597;
};
};
components = (
);
contours = (
);
lib = {
};
name = O;
unicodes = (
);
width = 1604;
};
},
{
glyphname = OE;
lastChange = "2019-08-30 14:16:40 +0000";
layers = (
{
anchors = (
{
name = bottom;
position = "{546, 0}";
},
{
name = top;
position = "{658, 705}";
}
);
background = {
anchors = (
{
name = bottom;
position = "{546, 0}";
},
{
name = top;
position = "{658, 705}";
}
);
paths = (
{
closed = 1;
nodes = (
"1061 705 LINE",
"485 705 LINE SMOOTH",
"264 705 OFFCURVE",
"121 583 OFFCURVE",
"84 353 CURVE SMOOTH",
"48 123 OFFCURVE",
"152 0 OFFCURVE",
"373 0 CURVE SMOOTH",
"949 0 LINE",
"956 39 LINE",
"574 39 LINE",
"621 338 LINE",
"983 338 LINE",
"989 377 LINE",
"627 377 LINE",
"673 666 LINE",
"1055 666 LINE"
);
},
{
closed = 1;
nodes = (
"384 39 LINE SMOOTH",
"181 39 OFFCURVE",
"96 145 OFFCURVE",
"129 353 CURVE SMOOTH",
"162 561 OFFCURVE",
"280 666 OFFCURVE",
"483 666 CURVE SMOOTH",
"631 666 LINE",
"532 39 LINE"
);
}
);
};
layerId = "F1F93986-3ED8-4AAE-84C4-CA3EEECDDFA0";
paths = (
{
closed = 1;
nodes = (
"1061 705 LINE",
"485 705 LINE SMOOTH",
"264 705 OFFCURVE",
"121 583 OFFCURVE",
"84 353 CURVE SMOOTH",
"48 123 OFFCURVE",
"152 0 OFFCURVE",
"373 0 CURVE SMOOTH",
"949 0 LINE",
"956 39 LINE",
"574 39 LINE",
"621 338 LINE",
"983 338 LINE",
"989 377 LINE",
"627 377 LINE",
"673 666 LINE",
"1055 666 LINE"
);
},
{
closed = 1;
nodes = (
"384 39 LINE SMOOTH",
"181 39 OFFCURVE",
"96 145 OFFCURVE",
"129 353 CURVE SMOOTH",
"162 561 OFFCURVE",
"280 666 OFFCURVE",
"483 666 CURVE SMOOTH",
"631 666 LINE",
"532 39 LINE"
);
}
);
width = 1038;
},
{
anchors = (
{
name = bottom;
position = "{571, 0}";
},
{
name = top;
position = "{682, 705}";
}
);
background = {
anchors = (
{
name = bottom;
position = "{609, 0}";
},
{
name = top;
position = "{609, 705}";
}
);
paths = (
{
closed = 1;
nodes = (
"743 705 LINE",
"435 705 LINE SMOOTH",
"185 705 OFFCURVE",
"41 575 OFFCURVE",
"41 353 CURVE SMOOTH",
"41 130 OFFCURVE",
"185 0 OFFCURVE",
"435 0 CURVE SMOOTH",
"743 0 LINE"
);
},
{
closed = 1;
nodes = (
"448 174 LINE SMOOTH",
"323 174 OFFCURVE",
"264 231 OFFCURVE",
"264 353 CURVE SMOOTH",
"264 475 OFFCURVE",
"324 531 OFFCURVE",
"448 531 CURVE SMOOTH",
"528 531 LINE",
"528 174 LINE"
);
},
{
closed = 1;
nodes = (
"1018 705 LINE",
"504 705 LINE",
"504 0 LINE",
"1018 0 LINE",
"1018 164 LINE",
"709 164 LINE",
"709 276 LINE",
"995 276 LINE",
"995 440 LINE",
"709 440 LINE",
"709 541 LINE",
"1018 541 LINE"
);
}
);
};
layerId = "4121B50C-FD42-45C5-8FBE-41E76D98F91E";
paths = (
{
closed = 1;
nodes = (
"1093 705 LINE",
"507 705 LINE SMOOTH",
"257 705 OFFCURVE",
"93 575 OFFCURVE",
"58 353 CURVE SMOOTH",
"22 130 OFFCURVE",
"146 0 OFFCURVE",
"396 0 CURVE SMOOTH",
"982 0 LINE",
"1008 164 LINE",
"699 164 LINE",
"716 276 LINE",
"1002 276 LINE",
"1028 440 LINE",
"742 440 LINE",
"758 541 LINE",
"1067 541 LINE"
);
},
{
closed = 1;
nodes = (
"435 174 LINE SMOOTH",
"311 174 OFFCURVE",
"261 231 OFFCURVE",
"281 353 CURVE SMOOTH",
"300 475 OFFCURVE",
"369 531 OFFCURVE",
"492 531 CURVE SMOOTH",
"552 531 LINE",
"495 174 LINE"
);
}
);
width = 1074;
}
);
leftKerningGroup = O;
leftMetricsKey = O;
rightKerningGroup = E;
rightMetricsKey = E;
unicode = 0152;
},
{
glyphname = P;
lastChange = "2019-09-04 07:58:14 +0000";
layers = (
{
anchors = (
{
name = bottom;
position = "{278, 0}";
},
{
name = top;
position = "{390, 705}";
}
);
background = {
anchors = (
{
name = bottom;
position = "{277, 0}";
},
{
name = top;
position = "{389, 705}";
}
);
paths = (
{
closed = 1;
nodes = (
"169 705 LINE",
"57 0 LINE",
"99 0 LINE",
"146 297 LINE",
"359 297 LINE SMOOTH",
"507 297 OFFCURVE",
"600 370 OFFCURVE",
"621 501 CURVE SMOOTH",
"641 632 OFFCURVE",
"572 705 OFFCURVE",
"424 705 CURVE SMOOTH"
);
},
{
closed = 1;
nodes = (
"153 336 LINE",
"205 666 LINE",
"417 666 LINE SMOOTH",
"541 666 OFFCURVE",
"594 609 OFFCURVE",
"577 501 CURVE SMOOTH",
"560 393 OFFCURVE",
"489 336 OFFCURVE",
"365 336 CURVE SMOOTH"
);
}
);
};
layerId = "F1F93986-3ED8-4AAE-84C4-CA3EEECDDFA0";
paths = (
{
closed = 1;
nodes = (
"206 666 LINE",
"407 666 LINE SMOOTH",
"518 666 OFFCURVE",
"577 621 OFFCURVE",
"577 521 CURVE SMOOTH",
"577 405 OFFCURVE",
"506 336 OFFCURVE",
"372 336 CURVE SMOOTH",
"143 336 LINE",
"137 297 LINE",
"372 297 LINE SMOOTH",
"533 297 OFFCURVE",
"621 386 OFFCURVE",
"621 525 CURVE SMOOTH",
"621 652 OFFCURVE",
"540 705 OFFCURVE",
"407 705 CURVE SMOOTH",
"170 705 LINE",
"58 0 LINE",
"100 0 LINE"
);
}
);
width = 616;
},
{
anchors = (
{
name = bottom;
position = "{307, 0}";
},
{
name = top;
position = "{418, 705}";
}
);
background = {
anchors = (
{
name = bottom;
position = "{309, 0}";
},
{
name = top;
position = "{419, 705}";
}
);
paths = (
{
closed = 1;
nodes = (
"129 705 LINE",
"18 0 LINE",
"233 0 LINE",
"269 231 LINE",
"412 231 LINE SMOOTH",
"574 231 OFFCURVE",
"682 321 OFFCURVE",
"705 468 CURVE SMOOTH",
"728 615 OFFCURVE",
"649 705 OFFCURVE",
"487 705 CURVE SMOOTH"
);
},
{
closed = 1;
nodes = (
"295 395 LINE",
"318 541 LINE",
"421 541 LINE SMOOTH",
"479 541 OFFCURVE",
"509 518 OFFCURVE",
"501 468 CURVE SMOOTH",
"493 418 OFFCURVE",
"456 395 OFFCURVE",
"398 395 CURVE SMOOTH"
);
}
);
};
guideLines = (
{
angle = 261.0524;
position = "{286, 335}";
}
);
layerId = "4121B50C-FD42-45C5-8FBE-41E76D98F91E";
paths = (
{
closed = 1;
nodes = (
"319 541 LINE",
"411 541 LINE SMOOTH",
"474 541 OFFCURVE",
"501 521 OFFCURVE",
"501 477 CURVE SMOOTH",
"501 423 OFFCURVE",
"470 395 OFFCURVE",
"409 395 CURVE SMOOTH",
"279 395 LINE",
"253 231 LINE",
"421 231 LINE SMOOTH",
"599 231 OFFCURVE",
"705 324 OFFCURVE",
"705 497 CURVE SMOOTH",
"705 624 OFFCURVE",
"620 705 OFFCURVE",
"461 705 CURVE SMOOTH",
"130 705 LINE",
"18 0 LINE",
"233 0 LINE"
);
}
);
width = 689;
}
);
leftKerningGroup = H;
leftMetricsKey = H;
rightKerningGroup = P;
unicode = 0050;
userData = {
anchors = (
);
b = {
};
com.typemytype.robofont.layerData = {
b = {
anchors = (
);
components = (
);
contours = (
{
points = (
{
segmentType = curve;
smooth = 1;
x = 266;
y = 0;
},
{
segmentType = line;
smooth = 1;
x = 1035;
y = 0;
},
{
smooth = 0;
x = 1084;
y = 0;
},
{
smooth = 0;
x = 1108;
y = 34;
},
{
segmentType = curve;
smooth = 1;
x = 1108;
y = 71;
},
{
smooth = 0;
x = 1108;
y = 107;
},
{
smooth = 0;
x = 1084;
y = 141;
},
{
segmentType = curve;
smooth = 1;
x = 1035;
y = 141;
},
{
segmentType = line;
smooth = 0;
x = 356;
y = 141;
},
{
segmentType = line;
smooth = 0;
x = 356;
y = 665;
},
{
segmentType = line;
smooth = 1;
x = 975;
y = 665;
},
{
smooth = 0;
x = 1024;
y = 665;
},
{
smooth = 0;
x = 1049;
y = 698;
},
{
segmentType = curve;
smooth = 1;
x = 1049;
y = 734;
},
{
smooth = 0;
x = 1049;
y = 770;
},
{
smooth = 0;
x = 1026;
y = 803;
},
{
segmentType = curve;
smooth = 1;
x = 975;
y = 803;
},
{
segmentType = line;
smooth = 0;
x = 356;
y = 803;
},
{
segmentType = line;
smooth = 0;
x = 356;
y = 1285;
},
{
segmentType = line;
smooth = 1;
x = 1007;
y = 1285;
},
{
smooth = 0;
x = 1056;
y = 1285;
},
{
smooth = 0;
x = 1080;
y = 1319;
},
{
segmentType = curve;
smooth = 1;
x = 1080;
y = 1356;
},
{
smooth = 0;
x = 1080;
y = 1392;
},
{
smooth = 0;
x = 1056;
y = 1426;
},
{
segmentType = curve;
smooth = 1;
x = 1007;
y = 1426;
},
{
segmentType = line;
smooth = 1;
x = 261;
y = 1426;
},
{
smooth = 0;
x = 213;
y = 1426;
},
{
smooth = 0;
x = 178;
y = 1383;
},
{
segmentType = curve;
smooth = 1;
x = 178;
y = 1340;
},
{
segmentType = line;
smooth = 1;
x = 178;
y = 86;
},
{
smooth = 0;
x = 178;
y = 41;
},
{
smooth = 0;
x = 222;
y = 0;
}
);
}
);
lib = {
};
name = P;
unicodes = (
);
width = 1201;
};
};
components = (
);
contours = (
);
lib = {
};
name = P;
unicodes = (
);
width = 1319;
};
},
{
glyphname = Thorn;
lastChange = "2019-08-30 14:16:40 +0000";
layers = (
{
anchors = (
{
name = bottom;
position = "{277, 0}";
},
{
name = top;
position = "{389, 705}";
}
);
background = {
anchors = (
{
name = bottom;
position = "{277, 0}";
},
{
name = top;
position = "{389, 705}";
}
);
paths = (
{
closed = 1;
nodes = (
"189 569 LINE",
"211 705 LINE",
"169 705 LINE",
"57 0 LINE",
"99 0 LINE",
"125 161 LINE",
"338 161 LINE SMOOTH",
"486 161 OFFCURVE",
"578 234 OFFCURVE",
"599 365 CURVE SMOOTH",
"620 496 OFFCURVE",
"550 569 OFFCURVE",
"402 569 CURVE SMOOTH"
);
},
{
closed = 1;
nodes = (
"131 200 LINE",
"183 530 LINE",
"395 530 LINE SMOOTH",
"519 530 OFFCURVE",
"572 473 OFFCURVE",
"555 365 CURVE SMOOTH",
"538 257 OFFCURVE",
"467 200 OFFCURVE",
"343 200 CURVE SMOOTH"
);
}
);
};
layerId = "F1F93986-3ED8-4AAE-84C4-CA3EEECDDFA0";
paths = (
{
closed = 1;
nodes = (
"189 569 LINE",
"211 705 LINE",
"169 705 LINE",
"57 0 LINE",
"99 0 LINE",
"125 161 LINE",
"338 161 LINE SMOOTH",
"486 161 OFFCURVE",
"578 234 OFFCURVE",
"599 365 CURVE SMOOTH",
"620 496 OFFCURVE",
"550 569 OFFCURVE",
"402 569 CURVE SMOOTH"
);
},
{
closed = 1;
nodes = (
"131 200 LINE",
"183 530 LINE",
"395 530 LINE SMOOTH",
"519 530 OFFCURVE",
"572 473 OFFCURVE",
"555 365 CURVE SMOOTH",
"538 257 OFFCURVE",
"467 200 OFFCURVE",
"343 200 CURVE SMOOTH"
);
}
);
width = 616;
},
{
anchors = (
{
name = bottom;
position = "{313, 0}";
},
{
name = top;
position = "{423, 705}";
}
);
background = {
anchors = (
{
name = bottom;
position = "{352, 0}";
},
{
name = top;
position = "{351, 705}";
}
);
paths = (
{
closed = 1;
nodes = (
"1072 600 LINE",
"1072 705 LINE",
"861 705 LINE",
"861 0 LINE",
"1072 0 LINE",
"1072 135 LINE",
"1221 135 LINE SMOOTH",
"1378 135 OFFCURVE",
"1472 222 OFFCURVE",
"1472 366 CURVE SMOOTH",
"1472 512 OFFCURVE",
"1379 600 OFFCURVE",
"1221 600 CURVE SMOOTH"
);
},
{
closed = 1;
nodes = (
"1072 295 LINE",
"1072 440 LINE",
"1191 440 LINE SMOOTH",
"1246 440 OFFCURVE",
"1272 418 OFFCURVE",
"1272 366 CURVE SMOOTH",
"1272 316 OFFCURVE",
"1245 295 OFFCURVE",
"1191 295 CURVE SMOOTH"
);
},
{
closed = 1;
nodes = (
"61 605 LINE",
"61 -100 LINE",
"276 -100 LINE",
"276 131 LINE",
"419 131 LINE SMOOTH",
"581 131 OFFCURVE",
"674 221 OFFCURVE",
"674 368 CURVE SMOOTH",
"674 515 OFFCURVE",
"581 605 OFFCURVE",
"419 605 CURVE SMOOTH"
);
},
{
closed = 1;
nodes = (
"276 295 LINE",
"276 441 LINE",
"379 441 LINE SMOOTH",
"437 441 OFFCURVE",
"470 418 OFFCURVE",
"470 368 CURVE SMOOTH",
"470 318 OFFCURVE",
"437 295 OFFCURVE",
"379 295 CURVE SMOOTH"
);
}
);
};
layerId = "4121B50C-FD42-45C5-8FBE-41E76D98F91E";
paths = (
{
closed = 1;
nodes = (
"329 605 LINE",
"344 705 LINE",
"129 705 LINE",
"18 0 LINE",
"233 0 LINE",
"254 131 LINE",
"401 131 LINE SMOOTH",
"563 131 OFFCURVE",
"670 221 OFFCURVE",
"693 368 CURVE SMOOTH",
"716 515 OFFCURVE",
"638 605 OFFCURVE",
"476 605 CURVE SMOOTH"
);
},
{
closed = 1;
nodes = (
"279 295 LINE",
"303 441 LINE",
"410 441 LINE SMOOTH",
"468 441 OFFCURVE",
"497 418 OFFCURVE",
"489 368 CURVE SMOOTH",
"481 318 OFFCURVE",
"444 295 OFFCURVE",
"386 295 CURVE SMOOTH"
);
}
);
width = 693;
}
);
leftKerningGroup = H;
leftMetricsKey = H;
rightKerningGroup = THORN;
unicode = 00DE;
},
{
glyphname = R;
lastChange = "2019-09-04 07:52:11 +0000";
layers = (
{
anchors = (
{
name = bottom;
position = "{292, 0}";
},
{
name = top;
position = "{402, 705}";
}
);
background = {
anchors = (
{
name = bottom;
position = "{295, 0}";
},
{
name = top;
position = "{407, 705}";
}
);
paths = (
{
closed = 1;
nodes = (
"99 0 LINE",
"149 312 LINE",
"306 312 LINE SMOOTH",
"384 312 OFFCURVE",
"421 295 OFFCURVE",
"447 226 CURVE SMOOTH",
"533 0 LINE",
"579 0 LINE",
"487 242 LINE SMOOTH",
"464 302 OFFCURVE",
"434 327 OFFCURVE",
"383 327 CURVE SMOOTH",
"375 327 LINE",
"362 315 LINE",
"506 315 OFFCURVE",
"602 385 OFFCURVE",
"622 508 CURVE SMOOTH",
"642 635 OFFCURVE",
"572 705 OFFCURVE",
"424 705 CURVE SMOOTH",
"169 705 LINE",
"57 0 LINE"
);
},
{
closed = 1;
nodes = (
"205 666 LINE",
"414 666 LINE SMOOTH",
"540 666 OFFCURVE",
"594 612 OFFCURVE",
"578 509 CURVE SMOOTH",
"561 405 OFFCURVE",
"490 351 OFFCURVE",
"364 351 CURVE SMOOTH",
"155 351 LINE"
);
}
);
};
layerId = "F1F93986-3ED8-4AAE-84C4-CA3EEECDDFA0";
paths = (
{
closed = 1;
nodes = (
"206 666 LINE",
"404 666 LINE SMOOTH",
"526 666 OFFCURVE",
"580 616 OFFCURVE",
"580 519 CURVE SMOOTH",
"580 412 OFFCURVE",
"510 353 OFFCURVE",
"389 352 CURVE SMOOTH",
"146 351 LINE",
"140 312 LINE",
"317 312 LINE SMOOTH",
"395 312 OFFCURVE",
"429 288 OFFCURVE",
"455 221 CURVE SMOOTH",
"539 0 LINE",
"580 0 LINE",
"491 234 LINE SMOOTH",
"468 294 OFFCURVE",
"434 327 OFFCURVE",
"381 327 CURVE SMOOTH",
"373 327 LINE",
"383 316 LINE",
"534 316 OFFCURVE",
"624 392 OFFCURVE",
"624 520 CURVE SMOOTH",
"624 634 OFFCURVE",
"552 705 OFFCURVE",
"404 705 CURVE SMOOTH",
"170 705 LINE",
"58 0 LINE",
"100 0 LINE"
);
}
);
width = 654;
},
{
anchors = (
{
name = bottom;
position = "{323, 0}";
},
{
name = top;
position = "{433, 705}";
}
);
background = {
anchors = (
{
name = bottom;
position = "{324, 0}";
},
{
name = top;
position = "{434, 705}";
}
);
paths = (
{
closed = 1;
nodes = (
"233 0 LINE",
"273 252 LINE",
"306 252 LINE SMOOTH",
"327 252 OFFCURVE",
"347 243 OFFCURVE",
"355 224 CURVE SMOOTH",
"443 0 LINE",
"679 0 LINE",
"604 191 LINE SMOOTH",
"583 245 OFFCURVE",
"541 273 OFFCURVE",
"483 273 CURVE SMOOTH",
"426 273 LINE",
"416 254 LINE",
"579 254 OFFCURVE",
"685 340 OFFCURVE",
"707 479 CURVE SMOOTH",
"729 619 OFFCURVE",
"649 705 OFFCURVE",
"487 705 CURVE SMOOTH",
"129 705 LINE",
"18 0 LINE"
);
},
{
closed = 1;
nodes = (
"318 541 LINE",
"421 541 LINE SMOOTH",
"479 541 OFFCURVE",
"509 519 OFFCURVE",
"502 472 CURVE SMOOTH",
"494 424 OFFCURVE",
"457 402 OFFCURVE",
"399 402 CURVE SMOOTH",
"296 402 LINE"
);
}
);
};
layerId = "4121B50C-FD42-45C5-8FBE-41E76D98F91E";
paths = (
{
closed = 1;
nodes = (
"319 541 LINE",
"411 541 LINE SMOOTH",
"473 541 OFFCURVE",
"501 521 OFFCURVE",
"501 480 CURVE SMOOTH",
"501 427 OFFCURVE",
"469 402 OFFCURVE",
"408 402 CURVE SMOOTH",
"281 402 LINE",
"257 252 LINE",
"314 252 LINE SMOOTH",
"345 252 OFFCURVE",
"361 240 OFFCURVE",
"373 210 CURVE SMOOTH",
"458 -1 LINE",
"679 0 LINE",
"609 175 LINE SMOOTH",
"583 239 OFFCURVE",
"545 273 OFFCURVE",
"473 273 CURVE SMOOTH",
"415 273 LINE",
"419 254 LINE",
"592 254 OFFCURVE",
"705 337 OFFCURVE",
"705 493 CURVE SMOOTH",
"705 628 OFFCURVE",
"612 705 OFFCURVE",
"449 705 CURVE SMOOTH",
"130 705 LINE",
"18 0 LINE",
"233 0 LINE"
);
}
);
width = 718;
}
);
leftKerningGroup = H;
leftMetricsKey = H;
rightKerningGroup = R;
unicode = 0052;
userData = {
anchors = (
);
b = {
};
com.typemytype.robofont.guides = (
);
com.typemytype.robofont.layerData = {
b = {
anchors = (
);
components = (
);
contours = (
{
points = (
{
segmentType = curve;
smooth = 1;
x = 267;
y = 0;
},
{
smooth = 0;
x = 311;
y = 0;
},
{
smooth = 0;
x = 356;
y = 27;
},
{
segmentType = curve;
smooth = 1;
x = 356;
y = 84;
},
{
segmentType = line;
smooth = 0;
x = 356;
y = 628;
},
{
segmentType = line;
smooth = 1;
x = 669;
y = 628;
},
{
smooth = 0;
x = 962;
y = 628;
},
{
smooth = 0;
x = 1182;
y = 722;
},
{
segmentType = curve;
smooth = 1;
x = 1182;
y = 1026;
},
{
smooth = 0;
x = 1182;
y = 1324;
},
{
smooth = 0;
x = 993;
y = 1426;
},
{
segmentType = curve;
smooth = 1;
x = 684;
y = 1426;
},
{
segmentType = line;
smooth = 1;
x = 268;
y = 1426;
},
{
smooth = 0;
x = 217;
y = 1426;
},
{
smooth = 0;
x = 178;
y = 1387;
},
{
segmentType = curve;
smooth = 1;
x = 178;
y = 1339;
},
{
segmentType = line;
smooth = 1;
x = 178;
y = 84;
},
{
smooth = 0;
x = 178;
y = 28;
},
{
smooth = 0;
x = 222;
y = 0;
}
);
},
{
points = (
{
segmentType = line;
smooth = 0;
x = 356;
y = 764;
},
{
segmentType = line;
smooth = 0;
x = 356;
y = 1285;
},
{
segmentType = line;
smooth = 1;
x = 684;
y = 1285;
},
{
smooth = 0;
x = 914;
y = 1285;
},
{
smooth = 0;
x = 1008;
y = 1210;
},
{
segmentType = curve;
smooth = 1;
x = 1008;
y = 1026;
},
{
smooth = 0;
x = 1008;
y = 838;
},
{
smooth = 0;
x = 901;
y = 764;
},
{
segmentType = curve;
smooth = 1;
x = 670;
y = 764;
}
);
}
);
lib = {
};
name = R;
unicodes = (
);
width = 1363;
};
};
components = (
);
contours = (
);
lib = {
};
name = R;
unicodes = (
);
width = 1408;
};
},
{
glyphname = S;
lastChange = "2019-08-30 14:28:02 +0000";
layers = (
{
anchors = (
{
name = bottom;
position = "{269, 0}";
},
{
name = top;
position = "{375, 705}";
}
);
background = {
anchors = (
{
name = bottom;
position = "{271, 0}";
},
{
name = top;
position = "{377, 705}";
}
);
paths = (
{
closed = 1;
nodes = (
"422 -8 OFFCURVE",
"527 69 OFFCURVE",
"545 180 CURVE SMOOTH",
"560 275 OFFCURVE",
"504 325 OFFCURVE",
"372 353 CURVE SMOOTH",
"276 373 LINE SMOOTH",
"179 393 OFFCURVE",
"142 435 OFFCURVE",
"155 513 CURVE SMOOTH",
"170 609 OFFCURVE",
"258 672 OFFCURVE",
"376 672 CURVE SMOOTH",
"461 672 OFFCURVE",
"520 647 OFFCURVE",
"573 586 CURVE",
"599 622 LINE",
"551 682 OFFCURVE",
"477 713 OFFCURVE",
"382 713 CURVE SMOOTH",
"241 713 OFFCURVE",
"129 632 OFFCURVE",
"111 513 CURVE SMOOTH",
"95 413 OFFCURVE",
"147 356 OFFCURVE",
"268 331 CURVE SMOOTH",
"364 311 LINE SMOOTH",
"472 288 OFFCURVE",
"512 251 OFFCURVE",
"501 179 CURVE SMOOTH",
"487 91 OFFCURVE",
"410 33 OFFCURVE",
"277 33 CURVE SMOOTH",
"172 33 OFFCURVE",
"113 58 OFFCURVE",
"52 115 CURVE",
"26 79 LINE",
"81 22 OFFCURVE",
"160 -8 OFFCURVE",
"270 -8 CURVE SMOOTH"
);
}
);
};
layerId = "F1F93986-3ED8-4AAE-84C4-CA3EEECDDFA0";
paths = (
{
closed = 1;
nodes = (
"434 -8 OFFCURVE",
"544 62 OFFCURVE",
"544 188 CURVE SMOOTH",
"544 270 OFFCURVE",
"484 319 OFFCURVE",
"368 349 CURVE SMOOTH",
"273 374 LINE SMOOTH",
"184 397 OFFCURVE",
"147 434 OFFCURVE",
"147 503 CURVE SMOOTH",
"147 603 OFFCURVE",
"238 672 OFFCURVE",
"355 672 CURVE SMOOTH",
"437 672 OFFCURVE",
"510 645 OFFCURVE",
"570 585 CURVE",
"591 620 LINE",
"534 682 OFFCURVE",
"447 713 OFFCURVE",
"357 713 CURVE SMOOTH",
"215 713 OFFCURVE",
"103 626 OFFCURVE",
"103 503 CURVE SMOOTH",
"103 412 OFFCURVE",
"158 364 OFFCURVE",
"264 335 CURVE SMOOTH",
"359 309 LINE SMOOTH",
"458 282 OFFCURVE",
"500 246 OFFCURVE",
"500 184 CURVE SMOOTH",
"500 89 OFFCURVE",
"415 33 OFFCURVE",
"295 33 CURVE SMOOTH",
"195 33 OFFCURVE",
"116 53 OFFCURVE",
"46 115 CURVE",
"27 81 LINE",
"93 16 OFFCURVE",
"190 -8 OFFCURVE",
"293 -8 CURVE SMOOTH"
);
}
);
width = 600;
},
{
anchors = (
{
name = bottom;
position = "{340, 0}";
},
{
name = top;
position = "{345, 705}";
}
);
background = {
anchors = (
{
name = bottom;
position = "{296, 0}";
},
{
name = top;
position = "{417, 705}";
}
);
paths = (
{
closed = 1;
nodes = (
"477 -12 OFFCURVE",
"614 81 OFFCURVE",
"636 224 CURVE SMOOTH",
"653 328 OFFCURVE",
"600 395 OFFCURVE",
"477 423 CURVE SMOOTH",
"361 449 LINE SMOOTH",
"310 460 OFFCURVE",
"297 473 OFFCURVE",
"300 491 CURVE SMOOTH",
"304 521 OFFCURVE",
"341 542 OFFCURVE",
"406 542 CURVE SMOOTH",
"481 542 OFFCURVE",
"547 521 OFFCURVE",
"590 488 CURVE",
"673 644 LINE",
"626 688 OFFCURVE",
"533 717 OFFCURVE",
"436 717 CURVE SMOOTH",
"250 717 OFFCURVE",
"110 623 OFFCURVE",
"88 480 CURVE SMOOTH",
"71 373 OFFCURVE",
"122 305 OFFCURVE",
"247 277 CURVE SMOOTH",
"363 251 LINE SMOOTH",
"413 240 OFFCURVE",
"427 227 OFFCURVE",
"423 206 CURVE SMOOTH",
"420 183 OFFCURVE",
"394 163 OFFCURVE",
"317 163 CURVE SMOOTH",
"237 163 OFFCURVE",
"148 190 OFFCURVE",
"94 227 CURVE",
"9 61 LINE",
"69 17 OFFCURVE",
"177 -12 OFFCURVE",
"289 -12 CURVE SMOOTH"
);
}
);
};
layerId = "4121B50C-FD42-45C5-8FBE-41E76D98F91E";
paths = (
{
closed = 1;
nodes = (
"496 -12 OFFCURVE",
"633 73 OFFCURVE",
"633 224 CURVE SMOOTH",
"633 326 OFFCURVE",
"567 389 OFFCURVE",
"475 414 CURVE SMOOTH",
"358 446 LINE SMOOTH",
"312 459 OFFCURVE",
"296 468 OFFCURVE",
"296 491 CURVE SMOOTH",
"296 527 OFFCURVE",
"335 542 OFFCURVE",
"386 542 CURVE SMOOTH",
"454 542 OFFCURVE",
"541 512 OFFCURVE",
"590 475 CURVE",
"663 624 LINE",
"601 684 OFFCURVE",
"489 717 OFFCURVE",
"395 717 CURVE SMOOTH",
"220 717 OFFCURVE",
"85 628 OFFCURVE",
"85 477 CURVE SMOOTH",
"85 374 OFFCURVE",
"149 313 OFFCURVE",
"245 286 CURVE SMOOTH",
"362 253 LINE SMOOTH",
"404 241 OFFCURVE",
"420 228 OFFCURVE",
"420 207 CURVE SMOOTH",
"420 176 OFFCURVE",
"384 163 OFFCURVE",
"335 163 CURVE SMOOTH",
"251 163 OFFCURVE",
"151 191 OFFCURVE",
"93 232 CURVE",
"12 78 LINE",
"97 11 OFFCURVE",
"216 -12 OFFCURVE",
"319 -12 CURVE SMOOTH"
);
}
);
width = 663;
}
);
leftKerningGroup = S;
rightKerningGroup = S;
unicode = 0053;
userData = {
anchors = (
);
b = {
};
com.typemytype.robofont.layerData = {
b = {
anchors = (
);
components = (
);
contours = (
);
lib = {
};
name = S;
unicodes = (
);
width = 1274;
};
};
components = (
);
contours = (
);
lib = {
};
name = S;
unicodes = (
);
width = 1317;
};
},
{
glyphname = Germandbls;
lastChange = "2019-08-30 14:16:40 +0000";
layers = (
{
background = {
paths = (
{
closed = 1;
nodes = (
"99 0 LINE",
"173 467 LINE SMOOTH",
"195 604 OFFCURVE",
"283 673 OFFCURVE",
"427 673 CURVE SMOOTH",
"546 673 OFFCURVE",
"604 621 OFFCURVE",
"588 524 CURVE SMOOTH",
"573 427 OFFCURVE",
"499 374 OFFCURVE",
"396 374 CURVE SMOOTH",
"276 374 LINE",
"269 335 LINE",
"416 335 LINE SMOOTH",
"537 335 OFFCURVE",
"588 281 OFFCURVE",
"573 186 CURVE SMOOTH",
"558 91 OFFCURVE",
"490 33 OFFCURVE",
"380 33 CURVE SMOOTH",
"310 33 OFFCURVE",
"259 50 OFFCURVE",
"215 97 CURVE",
"187 62 LINE",
"226 17 OFFCURVE",
"292 -7 OFFCURVE",
"373 -7 CURVE SMOOTH",
"507 -7 OFFCURVE",
"597 62 OFFCURVE",
"617 186 CURVE SMOOTH",
"633 290 OFFCURVE",
"577 354 OFFCURVE",
"475 367 CURVE",
"473 353 LINE",
"557 370 OFFCURVE",
"619 440 OFFCURVE",
"633 529 CURVE SMOOTH",
"651 643 OFFCURVE",
"572 713 OFFCURVE",
"432 713 CURVE SMOOTH",
"269 713 OFFCURVE",
"157 630 OFFCURVE",
"132 470 CURVE SMOOTH",
"57 0 LINE"
);
}
);
};
layerId = "F1F93986-3ED8-4AAE-84C4-CA3EEECDDFA0";
paths = (
{
closed = 1;
nodes = (
"99 0 LINE",
"173 467 LINE SMOOTH",
"195 604 OFFCURVE",
"283 673 OFFCURVE",
"427 673 CURVE SMOOTH",
"546 673 OFFCURVE",
"604 621 OFFCURVE",
"588 524 CURVE SMOOTH",
"573 427 OFFCURVE",
"499 374 OFFCURVE",
"396 374 CURVE SMOOTH",
"276 374 LINE",
"269 335 LINE",
"416 335 LINE SMOOTH",
"537 335 OFFCURVE",
"588 281 OFFCURVE",
"573 186 CURVE SMOOTH",
"558 91 OFFCURVE",
"490 33 OFFCURVE",
"380 33 CURVE SMOOTH",
"310 33 OFFCURVE",
"259 50 OFFCURVE",
"215 97 CURVE",
"187 62 LINE",
"226 17 OFFCURVE",
"292 -7 OFFCURVE",
"373 -7 CURVE SMOOTH",
"507 -7 OFFCURVE",
"597 62 OFFCURVE",
"617 186 CURVE SMOOTH",
"633 290 OFFCURVE",
"577 354 OFFCURVE",
"475 367 CURVE",
"473 353 LINE",
"557 370 OFFCURVE",
"619 440 OFFCURVE",
"633 529 CURVE SMOOTH",
"651 643 OFFCURVE",
"572 713 OFFCURVE",
"432 713 CURVE SMOOTH",
"269 713 OFFCURVE",
"157 630 OFFCURVE",
"132 470 CURVE SMOOTH",
"57 0 LINE"
);
}
);
width = 697;
},
{
background = {
paths = (
{
closed = 1;
nodes = (
"1168 0 LINE",
"1168 441 LINE SMOOTH",
"1168 520 OFFCURVE",
"1213 553 OFFCURVE",
"1291 553 CURVE SMOOTH",
"1354 553 OFFCURVE",
"1383 533 OFFCURVE",
"1383 493 CURVE SMOOTH",
"1383 457 OFFCURVE",
"1365 432 OFFCURVE",
"1306 432 CURVE SMOOTH",
"1228 432 LINE",
"1228 271 LINE",
"1318 271 LINE SMOOTH",
"1394 271 OFFCURVE",
"1421 254 OFFCURVE",
"1421 203 CURVE SMOOTH",
"1421 163 OFFCURVE",
"1402 142 OFFCURVE",
"1356 142 CURVE SMOOTH",
"1314 142 OFFCURVE",
"1282 157 OFFCURVE",
"1243 180 CURVE",
"1188 38 LINE",
"1248 1 OFFCURVE",
"1301 -12 OFFCURVE",
"1387 -12 CURVE SMOOTH",
"1523 -12 OFFCURVE",
"1621 77 OFFCURVE",
"1621 195 CURVE SMOOTH",
"1621 293 OFFCURVE",
"1554 358 OFFCURVE",
"1464 368 CURVE",
"1464 354 LINE",
"1531 382 OFFCURVE",
"1583 439 OFFCURVE",
"1583 520 CURVE SMOOTH",
"1583 636 OFFCURVE",
"1486 716 OFFCURVE",
"1297 716 CURVE SMOOTH",
"1073 716 OFFCURVE",
"957 609 OFFCURVE",
"957 430 CURVE SMOOTH",
"957 0 LINE"
);
},
{
closed = 1;
nodes = (
"656 379 OFFCURVE",
"705 441 OFFCURVE",
"705 523 CURVE SMOOTH",
"705 633 OFFCURVE",
"617 705 OFFCURVE",
"463 705 CURVE SMOOTH",
"105 705 LINE",
"105 0 LINE",
"472 0 LINE SMOOTH",
"627 0 OFFCURVE",
"724 79 OFFCURVE",
"724 202 CURVE SMOOTH",
"724 294 OFFCURVE",
"672 355 OFFCURVE",
"577 375 CURVE",
"577 358 LINE"
);
},
{
closed = 1;
nodes = (
"479 549 OFFCURVE",
"501 533 OFFCURVE",
"501 493 CURVE SMOOTH",
"501 453 OFFCURVE",
"479 437 OFFCURVE",
"423 437 CURVE SMOOTH",
"310 437 LINE",
"310 549 LINE",
"423 549 LINE SMOOTH"
);
},
{
closed = 1;
nodes = (
"310 156 LINE",
"310 279 LINE",
"442 279 LINE SMOOTH",
"498 279 OFFCURVE",
"521 259 OFFCURVE",
"521 218 CURVE SMOOTH",
"521 177 OFFCURVE",
"498 156 OFFCURVE",
"442 156 CURVE SMOOTH"
);
}
);
};
layerId = "4121B50C-FD42-45C5-8FBE-41E76D98F91E";
paths = (
{
closed = 1;
nodes = (
"233 0 LINE",
"301 430 LINE SMOOTH",
"314 511 OFFCURVE",
"359 548 OFFCURVE",
"444 548 CURVE SMOOTH",
"508 548 OFFCURVE",
"536 529 OFFCURVE",
"529 490 CURVE SMOOTH",
"523 452 OFFCURVE",
"493 432 OFFCURVE",
"441 432 CURVE SMOOTH",
"383 432 LINE",
"358 271 LINE",
"428 271 LINE SMOOTH",
"500 271 OFFCURVE",
"528 253 OFFCURVE",
"521 211 CURVE SMOOTH",
"516 177 OFFCURVE",
"487 154 OFFCURVE",
"449 154 CURVE SMOOTH",
"411 154 OFFCURVE",
"381 164 OFFCURVE",
"344 188 CURVE",
"265 38 LINE",
"317 1 OFFCURVE",
"368 -12 OFFCURVE",
"449 -12 CURVE SMOOTH",
"599 -12 OFFCURVE",
"701 67 OFFCURVE",
"722 195 CURVE SMOOTH",
"737 293 OFFCURVE",
"686 365 OFFCURVE",
"593 375 CURVE",
"590 354 LINE",
"673 384 OFFCURVE",
"725 444 OFFCURVE",
"737 520 CURVE SMOOTH",
"756 641 OFFCURVE",
"659 716 OFFCURVE",
"484 716 CURVE SMOOTH",
"254 716 OFFCURVE",
"115 617 OFFCURVE",
"86 430 CURVE SMOOTH",
"18 0 LINE"
);
}
);
width = 764;
}
);
leftKerningGroup = H;
leftMetricsKey = H;
rightKerningGroup = Germandbls;
rightMetricsKey = B;
unicode = 1E9E;
},
{
glyphname = Schwa;
lastChange = "2019-08-30 14:16:40 +0000";
layers = (
{
anchors = (
{
name = bottom;
position = "{332, 0}";
},
{
name = top;
position = "{444, 705}";
}
);
background = {
anchors = (
{
name = bottom;
position = "{332, 0}";
},
{
name = top;
position = "{444, 705}";
}
);
paths = (
{
closed = 1;
nodes = (
"526 -8 OFFCURVE",
"666 129 OFFCURVE",
"701 353 CURVE SMOOTH",
"737 577 OFFCURVE",
"632 713 OFFCURVE",
"429 713 CURVE SMOOTH",
"318 713 OFFCURVE",
"227 681 OFFCURVE",
"152 618 CURVE",
"168 583 LINE",
"246 646 OFFCURVE",
"316 672 OFFCURVE",
"422 672 CURVE SMOOTH",
"603 672 OFFCURVE",
"688 556 OFFCURVE",
"656 353 CURVE SMOOTH",
"624 151 OFFCURVE",
"508 33 OFFCURVE",
"346 33 CURVE SMOOTH",
"166 33 OFFCURVE",
"95 146 OFFCURVE",
"128 353 CURVE",
"114 337 LINE",
"659 337 LINE",
"665 376 LINE",
"88 376 LINE",
"83 348 LINE SMOOTH",
"49 132 OFFCURVE",
"130 -8 OFFCURVE",
"340 -8 CURVE SMOOTH"
);
}
);
};
layerId = "F1F93986-3ED8-4AAE-84C4-CA3EEECDDFA0";
paths = (
{
closed = 1;
nodes = (
"526 -8 OFFCURVE",
"666 129 OFFCURVE",
"701 353 CURVE SMOOTH",
"737 577 OFFCURVE",
"632 713 OFFCURVE",
"429 713 CURVE SMOOTH",
"318 713 OFFCURVE",
"227 681 OFFCURVE",
"152 618 CURVE",
"168 583 LINE",
"246 646 OFFCURVE",
"316 672 OFFCURVE",
"422 672 CURVE SMOOTH",
"603 672 OFFCURVE",
"688 556 OFFCURVE",
"656 353 CURVE SMOOTH",
"624 151 OFFCURVE",
"508 33 OFFCURVE",
"346 33 CURVE SMOOTH",
"166 33 OFFCURVE",
"95 146 OFFCURVE",
"128 353 CURVE",
"114 337 LINE",
"659 337 LINE",
"665 376 LINE",
"88 376 LINE",
"83 348 LINE SMOOTH",
"49 132 OFFCURVE",
"130 -8 OFFCURVE",
"340 -8 CURVE SMOOTH"
);
}
);
width = 751;
},
{
anchors = (
{
name = bottom;
position = "{376, 0}";
},
{
name = top;
position = "{487, 705}";
}
);
background = {
paths = (
{
closed = 1;
nodes = (
"629 -12 OFFCURVE",
"779 135 OFFCURVE",
"779 354 CURVE SMOOTH",
"779 572 OFFCURVE",
"629 717 OFFCURVE",
"410 717 CURVE SMOOTH",
"191 717 OFFCURVE",
"41 572 OFFCURVE",
"41 354 CURVE SMOOTH",
"41 136 OFFCURVE",
"191 -12 OFFCURVE",
"410 -12 CURVE SMOOTH"
);
},
{
closed = 1;
nodes = (
"319 167 OFFCURVE",
"264 236 OFFCURVE",
"264 353 CURVE SMOOTH",
"264 470 OFFCURVE",
"319 538 OFFCURVE",
"410 538 CURVE SMOOTH",
"501 538 OFFCURVE",
"556 469 OFFCURVE",
"556 353 CURVE SMOOTH",
"556 237 OFFCURVE",
"501 167 OFFCURVE",
"410 167 CURVE SMOOTH"
);
}
);
};
layerId = "4121B50C-FD42-45C5-8FBE-41E76D98F91E";
paths = (
{
closed = 1;
nodes = (
"587 -12 OFFCURVE",
"761 132 OFFCURVE",
"795 351 CURVE SMOOTH",
"831 577 OFFCURVE",
"694 717 OFFCURVE",
"459 717 CURVE SMOOTH",
"333 717 OFFCURVE",
"218 688 OFFCURVE",
"136 646 CURVE",
"178 484 LINE",
"249 519 OFFCURVE",
"330 538 OFFCURVE",
"402 538 CURVE SMOOTH",
"536 538 OFFCURVE",
"592 476 OFFCURVE",
"573 353 CURVE SMOOTH",
"551 218 OFFCURVE",
"491 158 OFFCURVE",
"394 158 CURVE SMOOTH",
"297 158 OFFCURVE",
"254 218 OFFCURVE",
"276 353 CURVE",
"207 271 LINE",
"616 271 LINE",
"641 432 LINE",
"70 432 LINE",
"60 370 LINE SMOOTH",
"25 146 OFFCURVE",
"133 -12 OFFCURVE",
"378 -12 CURVE SMOOTH"
);
}
);
width = 820;
}
);
leftKerningGroup = O;
leftMetricsKey = O;
rightKerningGroup = O;
rightMetricsKey = O;
unicode = 018F;
},
{
glyphname = T;
lastChange = "2019-08-30 14:28:02 +0000";
layers = (
{
anchors = (
{
name = bottom;
position = "{254, 0}";
},
{
name = center;
position = "{311, 358}";
},
{
name = top;
position = "{366, 705}";
}
);
background = {
anchors = (
{
name = bottom;
position = "{254, 0}";
},
{
name = center;
position = "{311, 358}";
},
{
name = top;
position = "{366, 705}";
}
);
paths = (
{
closed = 1;
nodes = (
"275 0 LINE",
"381 666 LINE",
"650 666 LINE",
"656 705 LINE",
"76 705 LINE",
"70 666 LINE",
"339 666 LINE",
"233 0 LINE"
);
}
);
};
layerId = "F1F93986-3ED8-4AAE-84C4-CA3EEECDDFA0";
paths = (
{
closed = 1;
nodes = (
"274 0 LINE",
"380 667 LINE",
"650 667 LINE",
"656 705 LINE",
"76 705 LINE",
"70 667 LINE",
"339 667 LINE",
"233 0 LINE"
);
}
);
width = 586;
},
{
anchors = (
{
name = bottom;
position = "{291, 0}";
},
{
name = center;
position = "{346, 358}";
},
{
name = top;
position = "{401, 705}";
}
);
background = {
anchors = (
{
name = bottom;
position = "{290, 0}";
},
{
name = center;
position = "{345, 358}";
},
{
name = top;
position = "{400, 705}";
}
);
paths = (
{
closed = 1;
nodes = (
"397 0 LINE",
"481 531 LINE",
"695 531 LINE",
"722 705 LINE",
"79 705 LINE",
"52 531 LINE",
"266 531 LINE",
"182 0 LINE"
);
}
);
};
layerId = "4121B50C-FD42-45C5-8FBE-41E76D98F91E";
paths = (
{
closed = 1;
nodes = (
"397 0 LINE",
"481 531 LINE",
"695 531 LINE",
"722 705 LINE",
"79 705 LINE",
"52 531 LINE",
"266 531 LINE",
"182 0 LINE"
);
}
);
width = 657;
}
);
leftKerningGroup = T;
rightKerningGroup = T;
unicode = 0054;
userData = {
anchors = (
);
b = {
};
com.typemytype.robofont.layerData = {
b = {
anchors = (
);
components = (
);
contours = (
{
points = (
{
segmentType = curve;
smooth = 1;
x = 581;
y = 0;
},
{
segmentType = line;
smooth = 1;
x = 1350;
y = 0;
},
{
smooth = 0;
x = 1399;
y = 0;
},
{
smooth = 0;
x = 1423;
y = 34;
},
{
segmentType = curve;
smooth = 1;
x = 1423;
y = 71;
},
{
smooth = 0;
x = 1423;
y = 107;
},
{
smooth = 0;
x = 1399;
y = 141;
},
{
segmentType = curve;
smooth = 1;
x = 1350;
y = 141;
},
{
segmentType = line;
smooth = 0;
x = 671;
y = 141;
},
{
segmentType = line;
smooth = 0;
x = 671;
y = 665;
},
{
segmentType = line;
smooth = 1;
x = 1290;
y = 665;
},
{
smooth = 0;
x = 1339;
y = 665;
},
{
smooth = 0;
x = 1364;
y = 698;
},
{
segmentType = curve;
smooth = 1;
x = 1364;
y = 734;
},
{
smooth = 0;
x = 1364;
y = 770;
},
{
smooth = 0;
x = 1341;
y = 803;
},
{
segmentType = curve;
smooth = 1;
x = 1290;
y = 803;
},
{
segmentType = line;
smooth = 0;
x = 671;
y = 803;
},
{
segmentType = line;
smooth = 0;
x = 671;
y = 1285;
},
{
segmentType = line;
smooth = 1;
x = 1322;
y = 1285;
},
{
smooth = 0;
x = 1371;
y = 1285;
},
{
smooth = 0;
x = 1395;
y = 1319;
},
{
segmentType = curve;
smooth = 1;
x = 1395;
y = 1356;
},
{
smooth = 0;
x = 1395;
y = 1392;
},
{
smooth = 0;
x = 1371;
y = 1426;
},
{
segmentType = curve;
smooth = 1;
x = 1322;
y = 1426;
},
{
segmentType = line;
smooth = 1;
x = 576;
y = 1426;
},
{
smooth = 0;
x = 528;
y = 1426;
},
{
smooth = 0;
x = 493;
y = 1383;
},
{
segmentType = curve;
smooth = 1;
x = 493;
y = 1340;
},
{
segmentType = line;
smooth = 1;
x = 493;
y = 86;
},
{
smooth = 0;
x = 493;
y = 41;
},
{
smooth = 0;
x = 537;
y = 0;
}
);
}
);
lib = {
};
name = T;
unicodes = (
);
width = 1158;
};
};
components = (
);
contours = (
);
lib = {
};
name = T;
unicodes = (
);
width = 1199;
};
},
{
glyphname = U;
lastChange = "2019-09-04 07:59:40 +0000";
layers = (
{
anchors = (
{
name = bottom;
position = "{321, 0}";
},
{
name = ogonek;
position = "{378, 0}";
},
{
name = top;
position = "{433, 705}";
},
{
name = topright;
position = "{661, 705}";
}
);
background = {
anchors = (
{
name = bottom;
position = "{321, 0}";
},
{
name = ogonek;
position = "{378, 0}";
},
{
name = top;
position = "{433, 705}";
},
{
name = topright;
position = "{661, 705}";
}
);
paths = (
{
closed = 1;
nodes = (
"496 -8 OFFCURVE",
"605 90 OFFCURVE",
"633 271 CURVE SMOOTH",
"702 705 LINE",
"660 705 LINE",
"592 277 LINE SMOOTH",
"566 113 OFFCURVE",
"477 33 OFFCURVE",
"327 33 CURVE SMOOTH",
"177 33 OFFCURVE",
"112 113 OFFCURVE",
"138 277 CURVE SMOOTH",
"206 705 LINE",
"164 705 LINE",
"95 271 LINE SMOOTH",
"67 90 OFFCURVE",
"144 -8 OFFCURVE",
"320 -8 CURVE SMOOTH"
);
}
);
};
layerId = "F1F93986-3ED8-4AAE-84C4-CA3EEECDDFA0";
paths = (
{
closed = 1;
nodes = (
"505 -8 OFFCURVE",
"602 91 OFFCURVE",
"629 261 CURVE SMOOTH",
"700 705 LINE",
"658 705 LINE",
"589 271 LINE SMOOTH",
"564 114 OFFCURVE",
"479 33 OFFCURVE",
"329 33 CURVE SMOOTH",
"179 33 OFFCURVE",
"113 114 OFFCURVE",
"139 280 CURVE SMOOTH",
"206 705 LINE",
"164 705 LINE",
"97 279 LINE SMOOTH",
"67 91 OFFCURVE",
"153 -8 OFFCURVE",
"327 -8 CURVE SMOOTH"
);
}
);
width = 720;
},
{
anchors = (
{
name = bottom;
position = "{339, 0}";
},
{
name = ogonek;
position = "{397, 0}";
},
{
name = top;
position = "{450, 705}";
},
{
name = topright;
position = "{627, 705}";
}
);
background = {
anchors = (
{
name = bottom;
position = "{340, 0}";
},
{
name = ogonek;
position = "{398, 0}";
},
{
name = top;
position = "{451, 705}";
},
{
name = topright;
position = "{629, 705}";
}
);
paths = (
{
closed = 1;
nodes = (
"550 -12 OFFCURVE",
"677 93 OFFCURVE",
"711 307 CURVE SMOOTH",
"774 705 LINE",
"563 705 LINE",
"500 303 LINE SMOOTH",
"485 213 OFFCURVE",
"438 167 OFFCURVE",
"366 167 CURVE SMOOTH",
"294 167 OFFCURVE",
"261 213 OFFCURVE",
"276 303 CURVE SMOOTH",
"339 705 LINE",
"124 705 LINE",
"61 307 LINE SMOOTH",
"27 93 OFFCURVE",
"126 -12 OFFCURVE",
"338 -12 CURVE SMOOTH"
);
}
);
};
layerId = "4121B50C-FD42-45C5-8FBE-41E76D98F91E";
paths = (
{
closed = 1;
nodes = (
"581 -12 OFFCURVE",
"677 90 OFFCURVE",
"708 286 CURVE SMOOTH",
"774 705 LINE",
"564 705 LINE",
"499 293 LINE SMOOTH",
"486 210 OFFCURVE",
"444 167 OFFCURVE",
"372 167 CURVE SMOOTH",
"300 167 OFFCURVE",
"262 213 OFFCURVE",
"276 303 CURVE SMOOTH",
"339 705 LINE",
"124 705 LINE",
"64 325 LINE SMOOTH",
"27 93 OFFCURVE",
"157 -12 OFFCURVE",
"358 -12 CURVE SMOOTH"
);
}
);
width = 754;
}
);
leftKerningGroup = U;
rightKerningGroup = U;
unicode = 0055;
userData = {
anchors = (
);
b = {
};
com.typemytype.robofont.layerData = {
b = {
anchors = (
);
components = (
);
contours = (
);
lib = {
};
name = U;
unicodes = (
);
width = 1490;
};
};
components = (
);
contours = (
);
lib = {
};
name = U;
unicodes = (
);
width = 1513;
};
},
{
glyphname = V;
lastChange = "2019-08-30 14:28:02 +0000";
layers = (
{
anchors = (
{
name = bottom;
position = "{295, 0}";
},
{
name = top;
position = "{406, 705}";
}
);
background = {
anchors = (
{
name = bottom;
position = "{295, 0}";
},
{
name = top;
position = "{406, 705}";
}
);
paths = (
{
closed = 1;
nodes = (
"317 0 LINE",
"732 705 LINE",
"688 705 LINE",
"288 24 LINE",
"311 24 LINE",
"126 705 LINE",
"81 705 LINE",
"272 0 LINE"
);
}
);
};
layerId = "F1F93986-3ED8-4AAE-84C4-CA3EEECDDFA0";
paths = (
{
closed = 1;
nodes = (
"316 0 LINE",
"732 705 LINE",
"684 705 LINE",
"284 24 LINE",
"308 24 LINE",
"124 705 LINE",
"81 705 LINE",
"271 0 LINE"
);
}
);
width = 666;
},
{
anchors = (
{
name = bottom;
position = "{340, 0}";
},
{
name = top;
position = "{450, 705}";
}
);
background = {
anchors = (
{
name = bottom;
position = "{341, 0}";
},
{
name = top;
position = "{451, 705}";
}
);
paths = (
{
closed = 1;
nodes = (
"425 0 LINE",
"861 705 LINE",
"641 705 LINE",
"345 203 LINE",
"408 203 LINE",
"271 705 LINE",
"42 705 LINE",
"256 0 LINE"
);
}
);
};
layerId = "4121B50C-FD42-45C5-8FBE-41E76D98F91E";
paths = (
{
closed = 1;
nodes = (
"425 0 LINE",
"861 705 LINE",
"626 705 LINE",
"330 203 LINE",
"392 203 LINE",
"256 705 LINE",
"42 705 LINE",
"256 0 LINE"
);
}
);
width = 759;
}
);
leftKerningGroup = V;
rightKerningGroup = V;
unicode = 0056;
userData = {
anchors = (
);
b = {
};
com.typemytype.robofont.guides = (
);
com.typemytype.robofont.layerData = {
b = {
anchors = (
);
components = (
);
contours = (
{
points = (
{
segmentType = curve;
smooth = 1;
x = 644;
y = "-5";
},
{
smooth = 0;
x = 712;
y = "-5";
},
{
smooth = 0;
x = 764;
y = 38;
},
{
segmentType = curve;
smooth = 1;
x = 793;
y = 117;
},
{
segmentType = line;
smooth = 1;
x = 1243;
y = 1324;
},
{
smooth = 0;
x = 1247;
y = 1335;
},
{
smooth = 0;
x = 1248;
y = 1342;
},
{
segmentType = curve;
smooth = 1;
x = 1248;
y = 1351;
},
{
smooth = 0;
x = 1248;
y = 1395;
},
{
smooth = 0;
x = 1203;
y = 1427;
},
{
segmentType = curve;
smooth = 1;
x = 1160;
y = 1427;
},
{
smooth = 0;
x = 1125;
y = 1427;
},
{
smooth = 0;
x = 1090;
y = 1408;
},
{
segmentType = curve;
smooth = 1;
x = 1076;
y = 1369;
},
{
segmentType = line;
smooth = 0;
x = 651;
y = 192;
},
{
segmentType = line;
smooth = 0;
x = 650;
y = 190;
},
{
segmentType = line;
smooth = 1;
x = 214;
y = 1370;
},
{
smooth = 0;
x = 200;
y = 1407;
},
{
smooth = 0;
x = 170;
y = 1427;
},
{
segmentType = curve;
smooth = 1;
x = 135;
y = 1427;
},
{
smooth = 0;
x = 90;
y = 1427;
},
{
smooth = 0;
x = 43;
y = 1392;
},
{
segmentType = curve;
smooth = 1;
x = 43;
y = 1344;
},
{
smooth = 0;
x = 43;
y = 1336;
},
{
smooth = 0;
x = 44;
y = 1326;
},
{
segmentType = curve;
smooth = 0;
x = 48;
y = 1318;
},
{
segmentType = line;
smooth = 1;
x = 501;
y = 117;
},
{
smooth = 0;
x = 532;
y = 35;
},
{
smooth = 0;
x = 581;
y = "-5";
}
);
}
);
lib = {
};
name = V;
unicodes = (
);
width = 1289;
};
};
components = (
);
contours = (
);
lib = {
};
name = V;
unicodes = (
);
width = 1365;
};
},
{
glyphname = W;
lastChange = "2019-08-30 14:28:02 +0000";
layers = (
{
anchors = (
{
name = bottom;
position = "{507, 0}";
},
{
name = top;
position = "{618, 705}";
}
);
background = {
anchors = (
{
name = bottom;
position = "{507, 0}";
},
{
name = top;
position = "{618, 705}";
}
);
paths = (
{
closed = 1;
nodes = (
"284 0 LINE",
"623 671 LINE",
"603 671 LINE",
"727 0 LINE",
"770 0 LINE",
"1126 705 LINE",
"1083 705 LINE",
"737 19 LINE",
"765 19 LINE",
"637 705 LINE",
"598 705 LINE",
"252 19 LINE",
"282 19 LINE",
"155 705 LINE",
"111 705 LINE",
"243 0 LINE"
);
}
);
};
layerId = "F1F93986-3ED8-4AAE-84C4-CA3EEECDDFA0";
paths = (
{
closed = 1;
nodes = (
"284 0 LINE",
"622 671 LINE",
"602 671 LINE",
"727 0 LINE",
"770 0 LINE",
"1126 705 LINE",
"1080 705 LINE",
"735 19 LINE",
"762 19 LINE",
"634 705 LINE",
"595 705 LINE",
"249 19 LINE",
"280 19 LINE",
"153 705 LINE",
"111 705 LINE",
"243 0 LINE"
);
}
);
width = 1091;
},
{
anchors = (
{
name = bottom;
position = "{528, 0}";
},
{
name = top;
position = "{640, 705}";
}
);
background = {
anchors = (
{
name = bottom;
position = "{529, 0}";
},
{
name = top;
position = "{641, 705}";
}
);
paths = (
{
closed = 1;
nodes = (
"392 0 LINE",
"609 412 LINE",
"583 412 LINE",
"666 0 LINE",
"836 0 LINE",
"1204 705 LINE",
"998 705 LINE",
"764 234 LINE",
"806 234 LINE",
"723 705 LINE",
"572 705 LINE",
"328 234 LINE",
"378 234 LINE",
"297 705 LINE",
"77 705 LINE",
"221 0 LINE"
);
}
);
};
layerId = "4121B50C-FD42-45C5-8FBE-41E76D98F91E";
paths = (
{
closed = 1;
nodes = (
"392 0 LINE",
"609 411 LINE",
"583 411 LINE",
"666 0 LINE",
"836 0 LINE",
"1204 705 LINE",
"986 705 LINE",
"751 234 LINE",
"796 234 LINE",
"713 705 LINE",
"561 705 LINE",
"317 234 LINE",
"365 234 LINE",
"284 705 LINE",
"77 705 LINE",
"221 0 LINE"
);
}
);
width = 1136;
}
);
leftKerningGroup = V;
rightKerningGroup = V;
unicode = 0057;
userData = {
anchors = (
);
b = {
};
com.typemytype.robofont.layerData = {
b = {
anchors = (
);
components = (
);
contours = (
);
lib = {
};
name = W;
unicodes = (
);
width = 2126;
};
};
components = (
);
contours = (
);
lib = {
};
name = W;
unicodes = (
);
width = 2070;
};
},
{
glyphname = X;
lastChange = "2019-08-30 14:28:02 +0000";
layers = (
{
anchors = (
{
name = bottom;
position = "{278, 0}";
},
{
name = top;
position = "{390, 705}";
}
);
background = {
anchors = (
{
name = bottom;
position = "{277, 0}";
},
{
name = top;
position = "{389, 705}";
}
);
paths = (
{
closed = 1;
nodes = (
"665 705 LINE",
"615 705 LINE",
"334 387 LINE",
"346 387 LINE",
"162 705 LINE",
"112 705 LINE",
"313 357 LINE",
"314 367 LINE",
"-15 0 LINE",
"36 0 LINE",
"342 342 LINE",
"321 342 LINE",
"517 0 LINE",
"568 0 LINE",
"355 367 LINE",
"354 357 LINE"
);
}
);
};
guideLines = (
{
position = "{168, 362}";
}
);
layerId = "F1F93986-3ED8-4AAE-84C4-CA3EEECDDFA0";
paths = (
{
closed = 1;
nodes = (
"39 0 LINE",
"344 342 LINE",
"325 342 LINE",
"523 0 LINE",
"569 0 LINE",
"354 371 LINE",
"354 352 LINE",
"666 705 LINE",
"613 705 LINE",
"333 387 LINE",
"343 387 LINE",
"160 705 LINE",
"114 705 LINE",
"315 357 LINE",
"315 368 LINE",
"-14 0 LINE"
);
}
);
width = 631;
},
{
anchors = (
{
name = bottom;
position = "{316, 0}";
},
{
name = top;
position = "{425, 705}";
}
);
background = {
anchors = (
{
name = bottom;
position = "{319, 0}";
},
{
name = top;
position = "{428, 705}";
}
);
paths = (
{
closed = 1;
nodes = (
"818 705 LINE",
"568 705 LINE",
"355 461 LINE",
"425 461 LINE",
"289 705 LINE",
"40 705 LINE",
"281 305 LINE",
"297 404 LINE",
"-75 0 LINE",
"175 0 LINE",
"390 245 LINE",
"323 245 LINE",
"460 0 LINE",
"710 0 LINE",
"466 404 LINE",
"450 305 LINE"
);
}
);
};
layerId = "4121B50C-FD42-45C5-8FBE-41E76D98F91E";
paths = (
{
closed = 1;
nodes = (
"185 0 LINE",
"381 245 LINE",
"331 245 LINE",
"473 0 LINE",
"710 0 LINE",
"465 404 LINE",
"465 306 LINE",
"819 705 LINE",
"558 705 LINE",
"360 461 LINE",
"411 461 LINE",
"274 705 LINE",
"39 705 LINE",
"281 306 LINE",
"281 404 LINE",
"-75 0 LINE"
);
}
);
width = 713;
}
);
leftKerningGroup = X;
rightKerningGroup = X;
unicode = 0058;
userData = {
anchors = (
);
b = {
};
com.typemytype.robofont.layerData = {
b = {
anchors = (
);
components = (
);
contours = (
{
points = (
{
segmentType = curve;
smooth = 1;
x = 151;
y = 0;
},
{
smooth = 0;
x = 176;
y = 0;
},
{
smooth = 0;
x = 201;
y = 12;
},
{
segmentType = curve;
smooth = 1;
x = 222;
y = 41;
},
{
segmentType = line;
smooth = 0;
x = 641;
y = 616;
},
{
segmentType = line;
smooth = 0;
x = 746;
y = 734;
},
{
segmentType = line;
smooth = 1;
x = 1175;
y = 1310;
},
{
smooth = 0;
x = 1186;
y = 1325;
},
{
smooth = 0;
x = 1190;
y = 1338;
},
{
segmentType = curve;
smooth = 1;
x = 1190;
y = 1353;
},
{
smooth = 0;
x = 1190;
y = 1393;
},
{
smooth = 0;
x = 1153;
y = 1426;
},
{
segmentType = curve;
smooth = 1;
x = 1110;
y = 1426;
},
{
smooth = 0;
x = 1083;
y = 1426;
},
{
smooth = 0;
x = 1058;
y = 1414;
},
{
segmentType = curve;
smooth = 1;
x = 1037;
y = 1385;
},
{
segmentType = line;
smooth = 0;
x = 648;
y = 844;
},
{
segmentType = line;
smooth = 0;
x = 542;
y = 732;
},
{
segmentType = line;
smooth = 1;
x = 84;
y = 121;
},
{
smooth = 0;
x = 73;
y = 106;
},
{
smooth = 0;
x = 68;
y = 91;
},
{
segmentType = curve;
smooth = 1;
x = 68;
y = 76;
},
{
smooth = 0;
x = 68;
y = 35;
},
{
smooth = 0;
x = 108;
y = 0;
}
);
},
{
points = (
{
segmentType = curve;
smooth = 1;
x = 1104;
y = 0;
},
{
smooth = 0;
x = 1151;
y = 0;
},
{
smooth = 0;
x = 1200;
y = 40;
},
{
segmentType = curve;
smooth = 1;
x = 1200;
y = 85;
},
{
smooth = 0;
x = 1200;
y = 98;
},
{
smooth = 0;
x = 1195;
y = 113;
},
{
segmentType = curve;
smooth = 0;
x = 1186;
y = 126;
},
{
segmentType = line;
smooth = 0;
x = 272;
y = 1385;
},
{
smooth = 0;
x = 252;
y = 1414;
},
{
smooth = 0;
x = 225;
y = 1426;
},
{
segmentType = curve;
smooth = 1;
x = 197;
y = 1426;
},
{
smooth = 0;
x = 149;
y = 1426;
},
{
smooth = 0;
x = 100;
y = 1388;
},
{
segmentType = curve;
smooth = 1;
x = 100;
y = 1343;
},
{
smooth = 0;
x = 100;
y = 1328;
},
{
smooth = 0;
x = 105;
y = 1315;
},
{
segmentType = curve;
smooth = 0;
x = 114;
y = 1303;
},
{
segmentType = line;
smooth = 0;
x = 1033;
y = 40;
},
{
smooth = 0;
x = 1052;
y = 13;
},
{
smooth = 0;
x = 1076;
y = 0;
}
);
}
);
lib = {
};
name = X;
unicodes = (
);
width = 1274;
};
};
components = (
);
contours = (
);
lib = {
};
name = X;
unicodes = (
);
width = 1322;
};
},
{
glyphname = Y;
lastChange = "2019-08-30 14:28:02 +0000";
layers = (
{
anchors = (
{
name = bottom;
position = "{249, 0}";
},
{
name = top;
position = "{361, 705}";
},
{
name = topleft;
position = "{90, 705}";
}
);
background = {
anchors = (
{
name = bottom;
position = "{249, 0}";
},
{
name = top;
position = "{361, 705}";
},
{
name = topleft;
position = "{90, 705}";
}
);
paths = (
{
closed = 1;
nodes = (
"270 0 LINE",
"328 367 LINE",
"312 328 LINE",
"651 705 LINE",
"604 705 LINE",
"302 368 LINE",
"317 368 LINE",
"121 705 LINE",
"72 705 LINE",
"291 328 LINE",
"286 367 LINE",
"228 0 LINE"
);
}
);
};
layerId = "F1F93986-3ED8-4AAE-84C4-CA3EEECDDFA0";
paths = (
{
closed = 1;
nodes = (
"270 0 LINE",
"328 367 LINE",
"311 328 LINE",
"651 705 LINE",
"599 705 LINE",
"296 368 LINE",
"312 368 LINE",
"117 705 LINE",
"72 705 LINE",
"290 328 LINE",
"286 367 LINE",
"228 0 LINE"
);
}
);
width = 577;
},
{
anchors = (
{
name = bottom;
position = "{291, 0}";
},
{
name = top;
position = "{400, 705}";
},
{
name = topleft;
position = "{87, 705}";
}
);
background = {
anchors = (
{
name = bottom;
position = "{292, 0}";
},
{
name = top;
position = "{401, 705}";
},
{
name = topleft;
position = "{88, 705}";
}
);
paths = (
{
closed = 1;
nodes = (
"398 0 LINE",
"455 359 LINE",
"393 243 LINE",
"780 705 LINE",
"540 705 LINE",
"347 467 LINE",
"388 467 LINE",
"269 705 LINE",
"22 705 LINE",
"264 243 LINE",
"240 359 LINE",
"183 0 LINE"
);
}
);
};
layerId = "4121B50C-FD42-45C5-8FBE-41E76D98F91E";
paths = (
{
closed = 1;
nodes = (
"398 0 LINE",
"455 359 LINE",
"393 243 LINE",
"780 705 LINE",
"527 705 LINE",
"334 466 LINE",
"374 466 LINE",
"256 705 LINE",
"22 705 LINE",
"265 243 LINE",
"240 359 LINE",
"183 0 LINE"
);
}
);
width = 660;
}
);
leftKerningGroup = Y;
rightKerningGroup = Y;
unicode = 0059;
userData = {
anchors = (
);
b = {
};
com.typemytype.robofont.guides = (
);
com.typemytype.robofont.layerData = {
b = {
anchors = (
);
components = (
);
contours = (
{
points = (
{
segmentType = curve;
smooth = 1;
x = 641;
y = 0;
},
{
smooth = 0;
x = 685;
y = 0;
},
{
smooth = 0;
x = 730;
y = 29;
},
{
segmentType = curve;
smooth = 1;
x = 730;
y = 85;
},
{
segmentType = line;
smooth = 0;
x = 730;
y = 1285;
},
{
segmentType = line;
smooth = 1;
x = 1115;
y = 1285;
},
{
smooth = 0;
x = 1164;
y = 1285;
},
{
smooth = 0;
x = 1190;
y = 1319;
},
{
segmentType = curve;
smooth = 1;
x = 1190;
y = 1355;
},
{
smooth = 0;
x = 1190;
y = 1392;
},
{
smooth = 0;
x = 1166;
y = 1426;
},
{
segmentType = curve;
smooth = 1;
x = 1115;
y = 1426;
},
{
segmentType = line;
smooth = 1;
x = 160;
y = 1426;
},
{
smooth = 0;
x = 111;
y = 1426;
},
{
smooth = 0;
x = 86;
y = 1392;
},
{
segmentType = curve;
smooth = 1;
x = 86;
y = 1355;
},
{
smooth = 0;
x = 86;
y = 1319;
},
{
smooth = 0;
x = 111;
y = 1285;
},
{
segmentType = curve;
smooth = 1;
x = 160;
y = 1285;
},
{
segmentType = line;
smooth = 0;
x = 552;
y = 1285;
},
{
segmentType = line;
smooth = 1;
x = 552;
y = 85;
},
{
smooth = 0;
x = 552;
y = 29;
},
{
smooth = 0;
x = 596;
y = 0;
}
);
}
);
lib = {
};
name = Y;
unicodes = (
);
width = 1278;
};
};
components = (
);
contours = (
);
lib = {
};
name = Y;
unicodes = (
);
width = 1321;
};
},
{
glyphname = Z;
lastChange = "2019-08-30 14:28:02 +0000";
layers = (
{
anchors = (
{
name = bottom;
position = "{263, 0}";
},
{
name = top;
position = "{374, 705}";
}
);
background = {
anchors = (
{
name = bottom;
position = "{262, 0}";
},
{
name = top;
position = "{373, 705}";
}
);
paths = (
{
closed = 1;
nodes = (
"513 0 LINE",
"520 39 LINE",
"56 39 LINE",
"52 16 LINE",
"606 674 LINE",
"611 705 LINE",
"122 705 LINE",
"116 666 LINE",
"566 666 LINE",
"569 689 LINE",
"15 31 LINE",
"10 0 LINE"
);
}
);
};
layerId = "F1F93986-3ED8-4AAE-84C4-CA3EEECDDFA0";
paths = (
{
closed = 1;
nodes = (
"514 0 LINE",
"520 39 LINE",
"56 39 LINE",
"56 16 LINE",
"607 674 LINE",
"612 705 LINE",
"123 705 LINE",
"116 666 LINE",
"566 666 LINE",
"566 689 LINE",
"16 31 LINE",
"11 0 LINE"
);
}
);
width = 575;
},
{
anchors = (
{
name = bottom;
position = "{288, 0}";
},
{
name = top;
position = "{399, 705}";
}
);
background = {
anchors = (
{
name = bottom;
position = "{287, 0}";
},
{
name = top;
position = "{398, 705}";
}
);
paths = (
{
closed = 1;
nodes = (
"577 0 LINE",
"605 176 LINE",
"234 176 LINE",
"224 117 LINE",
"647 547 LINE",
"672 705 LINE",
"116 705 LINE",
"89 529 LINE",
"444 529 LINE",
"453 588 LINE",
"30 158 LINE",
"5 0 LINE"
);
}
);
};
guideLines = (
{
angle = 226.5038;
position = "{414, 301}";
}
);
layerId = "4121B50C-FD42-45C5-8FBE-41E76D98F91E";
paths = (
{
closed = 1;
nodes = (
"577 0 LINE",
"605 176 LINE",
"234 176 LINE",
"240 118 LINE",
"647 547 LINE",
"672 705 LINE",
"116 705 LINE",
"89 529 LINE",
"444 529 LINE",
"440 588 LINE",
"30 158 LINE",
"5 0 LINE"
);
}
);
width = 636;
}
);
leftKerningGroup = Z;
rightKerningGroup = Z;
unicode = 005A;
userData = {
anchors = (
);
b = {
};
com.typemytype.robofont.layerData = {
b = {
anchors = (
);
components = (
);
contours = (
{
points = (
{
segmentType = curve;
smooth = 1;
x = 266;
y = 0;
},
{
segmentType = line;
smooth = 1;
x = 1035;
y = 0;
},
{
smooth = 0;
x = 1084;
y = 0;
},
{
smooth = 0;
x = 1108;
y = 34;
},
{
segmentType = curve;
smooth = 1;
x = 1108;
y = 71;
},
{
smooth = 0;
x = 1108;
y = 107;
},
{
smooth = 0;
x = 1084;
y = 141;
},
{
segmentType = curve;
smooth = 1;
x = 1035;
y = 141;
},
{
segmentType = line;
smooth = 0;
x = 356;
y = 141;
},
{
segmentType = line;
smooth = 0;
x = 356;
y = 665;
},
{
segmentType = line;
smooth = 1;
x = 975;
y = 665;
},
{
smooth = 0;
x = 1024;
y = 665;
},
{
smooth = 0;
x = 1049;
y = 698;
},
{
segmentType = curve;
smooth = 1;
x = 1049;
y = 734;
},
{
smooth = 0;
x = 1049;
y = 770;
},
{
smooth = 0;
x = 1026;
y = 803;
},
{
segmentType = curve;
smooth = 1;
x = 975;
y = 803;
},
{
segmentType = line;
smooth = 0;
x = 356;
y = 803;
},
{
segmentType = line;
smooth = 0;
x = 356;
y = 1285;
},
{
segmentType = line;
smooth = 1;
x = 1007;
y = 1285;
},
{
smooth = 0;
x = 1056;
y = 1285;
},
{
smooth = 0;
x = 1080;
y = 1319;
},
{
segmentType = curve;
smooth = 1;
x = 1080;
y = 1356;
},
{
smooth = 0;
x = 1080;
y = 1392;
},
{
smooth = 0;
x = 1056;
y = 1426;
},
{
segmentType = curve;
smooth = 1;
x = 1007;
y = 1426;
},
{
segmentType = line;
smooth = 1;
x = 261;
y = 1426;
},
{
smooth = 0;
x = 213;
y = 1426;
},
{
smooth = 0;
x = 178;
y = 1383;
},
{
segmentType = curve;
smooth = 1;
x = 178;
y = 1340;
},
{
segmentType = line;
smooth = 1;
x = 178;
y = 86;
},
{
smooth = 0;
x = 178;
y = 41;
},
{
smooth = 0;
x = 222;
y = 0;
}
);
}
);
lib = {
};
name = Z;
unicodes = (
);
width = 1165;
};
};
components = (
);
contours = (
);
lib = {
};
name = Z;
unicodes = (
);
width = 1222;
};
},
{
glyphname = a;
lastChange = "2019-09-04 08:04:42 +0000";
layers = (
{
anchors = (
{
name = bottom;
position = "{224, 0}";
},
{
name = ogonek;
position = "{393, 0}";
},
{
name = top;
position = "{227, 484}";
}
);
background = {
anchors = (
{
name = bottom;
position = "{223, 0}";
},
{
name = ogonek;
position = "{392, 0}";
},
{
name = top;
position = "{303, 484}";
}
);
paths = (
{
closed = 1;
nodes = (
"276 -8 OFFCURVE",
"348 41 OFFCURVE",
"382 121 CURVE",
"371 121 LINE",
"351 0 LINE",
"392 0 LINE",
"442 315 LINE SMOOTH",
"461 436 OFFCURVE",
"418 492 OFFCURVE",
"308 492 CURVE SMOOTH",
"244 492 OFFCURVE",
"171 470 OFFCURVE",
"114 434 CURVE",
"128 398 LINE",
"192 437 OFFCURVE",
"244 453 OFFCURVE",
"304 453 CURVE SMOOTH",
"386 453 OFFCURVE",
"415 411 OFFCURVE",
"400 315 CURVE SMOOTH",
"382 201 LINE SMOOTH",
"367 103 OFFCURVE",
"291 30 OFFCURVE",
"200 30 CURVE SMOOTH",
"124 30 OFFCURVE",
"83 75 OFFCURVE",
"93 139 CURVE SMOOTH",
"106 216 OFFCURVE",
"162 238 OFFCURVE",
"360 238 CURVE SMOOTH",
"399 238 LINE",
"405 275 LINE",
"364 275 LINE SMOOTH",
"138 275 OFFCURVE",
"64 242 OFFCURVE",
"47 135 CURVE SMOOTH",
"34 55 OFFCURVE",
"97 -8 OFFCURVE",
"191 -8 CURVE SMOOTH"
);
}
);
};
guideLines = (
{
angle = 118.4956;
position = "{122, 415}";
}
);
layerId = "F1F93986-3ED8-4AAE-84C4-CA3EEECDDFA0";
paths = (
{
closed = 1;
nodes = (
"277 -8 OFFCURVE",
"354 32 OFFCURVE",
"380 116 CURVE",
"370 116 LINE",
"352 0 LINE",
"393 0 LINE",
"441 302 LINE SMOOTH",
"460 422 OFFCURVE",
"408 492 OFFCURVE",
"291 492 CURVE SMOOTH",
"224 492 OFFCURVE",
"154 470 OFFCURVE",
"108 436 CURVE",
"126 400 LINE",
"177 437 OFFCURVE",
"228 453 OFFCURVE",
"289 453 CURVE SMOOTH",
"382 453 OFFCURVE",
"416 405 OFFCURVE",
"401 315 CURVE SMOOTH",
"381 191 LINE SMOOTH",
"365 89 OFFCURVE",
"288 30 OFFCURVE",
"208 30 CURVE SMOOTH",
"150 30 OFFCURVE",
"96 66 OFFCURVE",
"96 136 CURVE SMOOTH",
"96 212 OFFCURVE",
"154 238 OFFCURVE",
"340 238 CURVE SMOOTH",
"399 238 LINE",
"405 275 LINE",
"324 275 LINE SMOOTH",
"131 275 OFFCURVE",
"49 235 OFFCURVE",
"49 134 CURVE SMOOTH",
"49 48 OFFCURVE",
"124 -8 OFFCURVE",
"205 -8 CURVE SMOOTH"
);
}
);
width = 514;
},
{
anchors = (
{
name = bottom;
position = "{238, 0}";
},
{
name = ogonek;
position = "{446, 0}";
},
{
name = top;
position = "{325, 495}";
}
);
background = {
anchors = (
{
name = bottom;
position = "{249, 0}";
},
{
name = ogonek;
position = "{469, 0}";
},
{
name = top;
position = "{330, 484}";
}
);
paths = (
{
closed = 1;
nodes = (
"252 -12 OFFCURVE",
"306 27 OFFCURVE",
"325 87 CURVE",
"320 87 LINE",
"306 0 LINE",
"499 0 LINE",
"542 276 LINE SMOOTH",
"567 434 OFFCURVE",
"495 506 OFFCURVE",
"320 506 CURVE SMOOTH",
"242 506 OFFCURVE",
"130 479 OFFCURVE",
"73 444 CURVE",
"102 305 LINE",
"166 337 OFFCURVE",
"234 352 OFFCURVE",
"286 352 CURVE SMOOTH",
"335 352 OFFCURVE",
"357 340 OFFCURVE",
"351 302 CURVE SMOOTH",
"333 194 LINE SMOOTH",
"327 152 OFFCURVE",
"290 125 OFFCURVE",
"251 125 CURVE SMOOTH",
"216 125 OFFCURVE",
"202 142 OFFCURVE",
"205 162 CURVE SMOOTH",
"210 189 OFFCURVE",
"243 201 OFFCURVE",
"295 201 CURVE SMOOTH",
"354 201 LINE",
"369 301 LINE",
"311 301 LINE SMOOTH",
"109 301 OFFCURVE",
"24 261 OFFCURVE",
"7 154 CURVE SMOOTH",
"-8 58 OFFCURVE",
"61 -12 OFFCURVE",
"180 -12 CURVE SMOOTH"
);
}
);
};
layerId = "4121B50C-FD42-45C5-8FBE-41E76D98F91E";
paths = (
{
closed = 1;
nodes = (
"245 -12 OFFCURVE",
"297 17 OFFCURVE",
"329 92 CURVE",
"322 92 LINE",
"307 0 LINE",
"499 0 LINE",
"539 252 LINE SMOOTH",
"560 385 OFFCURVE",
"503 506 OFFCURVE",
"315 506 CURVE SMOOTH",
"217 506 OFFCURVE",
"120 481 OFFCURVE",
"62 446 CURVE",
"101 310 LINE",
"166 344 OFFCURVE",
"225 356 OFFCURVE",
"277 356 CURVE SMOOTH",
"331 356 OFFCURVE",
"355 335 OFFCURVE",
"350 300 CURVE SMOOTH",
"333 187 LINE SMOOTH",
"327 149 OFFCURVE",
"301 126 OFFCURVE",
"253 126 CURVE SMOOTH",
"221 126 OFFCURVE",
"206 142 OFFCURVE",
"206 162 CURVE SMOOTH",
"206 189 OFFCURVE",
"236 204 OFFCURVE",
"280 204 CURVE SMOOTH",
"347 204 LINE",
"362 297 LINE",
"284 297 LINE SMOOTH",
"97 297 OFFCURVE",
"9 252 OFFCURVE",
"9 148 CURVE SMOOTH",
"9 66 OFFCURVE",
"82 -12 OFFCURVE",
"181 -12 CURVE SMOOTH"
);
}
);
width = 580;
},
{
anchors = (
{
name = bottom;
position = "{288, 0}";
},
{
name = ogonek;
position = "{508, 0}";
},
{
name = top;
position = "{293, 484}";
}
);
associatedMasterId = "4121B50C-FD42-45C5-8FBE-41E76D98F91E";
background = {
anchors = (
{
name = bottom;
position = "{210, 0}";
},
{
name = ogonek;
position = "{430, 0}";
},
{
name = top;
position = "{291, 484}";
}
);
paths = (
{
closed = 1;
nodes = (
"252 -12 OFFCURVE",
"306 27 OFFCURVE",
"325 87 CURVE",
"320 87 LINE",
"306 0 LINE",
"499 0 LINE",
"542 276 LINE SMOOTH",
"567 434 OFFCURVE",
"495 506 OFFCURVE",
"320 506 CURVE SMOOTH",
"242 506 OFFCURVE",
"130 479 OFFCURVE",
"73 444 CURVE",
"103 309 LINE",
"167 341 OFFCURVE",
"236 356 OFFCURVE",
"286 356 CURVE SMOOTH",
"341 356 OFFCURVE",
"357 344 OFFCURVE",
"351 306 CURVE SMOOTH",
"333 190 LINE SMOOTH",
"326 148 OFFCURVE",
"289 121 OFFCURVE",
"250 121 CURVE SMOOTH",
"215 121 OFFCURVE",
"202 138 OFFCURVE",
"205 162 CURVE SMOOTH",
"208 189 OFFCURVE",
"243 206 OFFCURVE",
"295 206 CURVE SMOOTH",
"354 206 LINE",
"369 297 LINE",
"311 297 LINE SMOOTH",
"109 297 OFFCURVE",
"24 261 OFFCURVE",
"7 154 CURVE SMOOTH",
"-8 58 OFFCURVE",
"61 -12 OFFCURVE",
"180 -12 CURVE SMOOTH"
);
}
);
};
color = 11;
layerId = "D200CD17-29E7-4DDF-9668-3D8B72725EE2";
name = "Bold [177]";
paths = (
{
closed = 1;
nodes = (
"245 -12 OFFCURVE",
"297 17 OFFCURVE",
"329 92 CURVE",
"322 92 LINE",
"307 0 LINE",
"499 0 LINE",
"539 252 LINE SMOOTH",
"560 385 OFFCURVE",
"503 506 OFFCURVE",
"315 506 CURVE SMOOTH",
"217 506 OFFCURVE",
"120 481 OFFCURVE",
"62 446 CURVE",
"101 310 LINE",
"166 344 OFFCURVE",
"225 356 OFFCURVE",
"277 356 CURVE SMOOTH",
"331 356 OFFCURVE",
"355 335 OFFCURVE",
"350 300 CURVE SMOOTH",
"333 187 LINE SMOOTH",
"327 149 OFFCURVE",
"301 126 OFFCURVE",
"253 126 CURVE SMOOTH",
"221 126 OFFCURVE",
"206 142 OFFCURVE",
"206 162 CURVE SMOOTH",
"206 191 OFFCURVE",
"236 206 OFFCURVE",
"280 206 CURVE SMOOTH",
"347 206 LINE",
"362 296 LINE",
"284 296 LINE SMOOTH",
"97 296 OFFCURVE",
"9 252 OFFCURVE",
"9 148 CURVE SMOOTH",
"9 66 OFFCURVE",
"82 -12 OFFCURVE",
"181 -12 CURVE SMOOTH"
);
}
);
width = 580;
}
);
leftKerningGroup = a;
rightKerningGroup = n;
rightMetricsKey = n;
unicode = 0061;
userData = {
anchors = (
);
b = {
};
com.typemytype.robofont.layerData = {
b = {
anchors = (
);
components = (
);
contours = (
);
lib = {
};
name = a;
unicodes = (
);
width = 1040;
};
};
components = (
);
contours = (
);
lib = {
};
name = a;
unicodes = (
);
width = 1101;
};
},
{
glyphname = ae;
lastChange = "2019-08-30 14:16:40 +0000";
layers = (
{
anchors = (
{
name = bottom;
position = "{377, 0}";
},
{
name = top;
position = "{454, 484}";
}
);
background = {
anchors = (
{
name = bottom;
position = "{377, 0}";
},
{
name = top;
position = "{454, 484}";
}
);
paths = (
{
closed = 1;
nodes = (
"808 237 LINE",
"812 260 LINE SMOOTH",
"834 405 OFFCURVE",
"775 492 OFFCURVE",
"655 492 CURVE SMOOTH",
"559 492 OFFCURVE",
"481 443 OFFCURVE",
"433 354 CURVE",
"453 354 LINE",
"455 444 OFFCURVE",
"411 492 OFFCURVE",
"310 492 CURVE SMOOTH",
"243 492 OFFCURVE",
"171 470 OFFCURVE",
"114 434 CURVE",
"129 399 LINE",
"192 438 OFFCURVE",
"244 453 OFFCURVE",
"306 453 CURVE SMOOTH",
"388 453 OFFCURVE",
"420 411 OFFCURVE",
"405 312 CURVE SMOOTH",
"388 208 LINE SMOOTH",
"372 105 OFFCURVE",
"297 30 OFFCURVE",
"202 30 CURVE SMOOTH",
"124 30 OFFCURVE",
"83 75 OFFCURVE",
"93 139 CURVE SMOOTH",
"106 217 OFFCURVE",
"162 237 OFFCURVE",
"360 237 CURVE SMOOTH",
"403 237 LINE",
"409 274 LINE",
"364 274 LINE SMOOTH",
"141 274 OFFCURVE",
"64 243 OFFCURVE",
"47 135 CURVE SMOOTH",
"34 55 OFFCURVE",
"97 -8 OFFCURVE",
"193 -8 CURVE SMOOTH",
"295 -8 OFFCURVE",
"376 57 OFFCURVE",
"409 160 CURVE",
"391 160 LINE",
"399 50 OFFCURVE",
"468 -8 OFFCURVE",
"584 -8 CURVE SMOOTH",
"649 -8 OFFCURVE",
"724 18 OFFCURVE",
"772 60 CURVE",
"757 94 LINE",
"698 50 OFFCURVE",
"645 31 OFFCURVE",
"586 31 CURVE SMOOTH",
"468 31 OFFCURVE",
"416 109 OFFCURVE",
"437 243 CURVE SMOOTH",
"438 250 LINE SMOOTH",
"457 373 OFFCURVE",
"538 454 OFFCURVE",
"645 454 CURVE SMOOTH",
"749 454 OFFCURVE",
"792 380 OFFCURVE",
"773 263 CURVE",
"791 274 LINE",
"433 274 LINE",
"427 237 LINE"
);
}
);
};
layerId = "F1F93986-3ED8-4AAE-84C4-CA3EEECDDFA0";
paths = (
{
closed = 1;
nodes = (
"808 237 LINE",
"812 260 LINE SMOOTH",
"834 405 OFFCURVE",
"775 492 OFFCURVE",
"655 492 CURVE SMOOTH",
"559 492 OFFCURVE",
"481 443 OFFCURVE",
"433 354 CURVE",
"453 354 LINE",
"455 444 OFFCURVE",
"411 492 OFFCURVE",
"310 492 CURVE SMOOTH",
"243 492 OFFCURVE",
"171 470 OFFCURVE",
"114 434 CURVE",
"129 399 LINE",
"192 438 OFFCURVE",
"244 453 OFFCURVE",
"306 453 CURVE SMOOTH",
"388 453 OFFCURVE",
"420 411 OFFCURVE",
"405 312 CURVE SMOOTH",
"388 208 LINE SMOOTH",
"372 105 OFFCURVE",
"297 30 OFFCURVE",
"202 30 CURVE SMOOTH",
"124 30 OFFCURVE",
"83 75 OFFCURVE",
"93 139 CURVE SMOOTH",
"106 217 OFFCURVE",
"162 237 OFFCURVE",
"360 237 CURVE SMOOTH",
"403 237 LINE",
"409 274 LINE",
"364 274 LINE SMOOTH",
"141 274 OFFCURVE",
"64 243 OFFCURVE",
"47 135 CURVE SMOOTH",
"34 55 OFFCURVE",
"97 -8 OFFCURVE",
"193 -8 CURVE SMOOTH",
"295 -8 OFFCURVE",
"376 57 OFFCURVE",
"409 160 CURVE",
"391 160 LINE",
"399 50 OFFCURVE",
"468 -8 OFFCURVE",
"584 -8 CURVE SMOOTH",
"649 -8 OFFCURVE",
"724 18 OFFCURVE",
"772 60 CURVE",
"757 94 LINE",
"698 50 OFFCURVE",
"645 31 OFFCURVE",
"586 31 CURVE SMOOTH",
"468 31 OFFCURVE",
"416 109 OFFCURVE",
"437 243 CURVE SMOOTH",
"438 250 LINE SMOOTH",
"457 373 OFFCURVE",
"538 454 OFFCURVE",
"645 454 CURVE SMOOTH",
"749 454 OFFCURVE",
"792 380 OFFCURVE",
"773 263 CURVE",
"791 274 LINE",
"433 274 LINE",
"427 237 LINE"
);
}
);
width = 857;
},
{
anchors = (
{
name = bottom;
position = "{375, 0}";
},
{
name = top;
position = "{451, 484}";
}
);
background = {
paths = (
{
closed = 1;
nodes = (
"853 199 LINE",
"853 246 LINE SMOOTH",
"853 404 OFFCURVE",
"754 506 OFFCURVE",
"601 506 CURVE SMOOTH",
"532 506 OFFCURVE",
"474 486 OFFCURVE",
"431 439 CURVE",
"472 439 LINE",
"434 488 OFFCURVE",
"361 506 OFFCURVE",
"279 506 CURVE SMOOTH",
"201 506 OFFCURVE",
"93 479 OFFCURVE",
"42 444 CURVE",
"93 305 LINE",
"152 337 OFFCURVE",
"219 352 OFFCURVE",
"269 352 CURVE SMOOTH",
"318 352 OFFCURVE",
"337 338 OFFCURVE",
"337 304 CURVE SMOOTH",
"337 192 LINE SMOOTH",
"337 152 OFFCURVE",
"312 125 OFFCURVE",
"270 125 CURVE SMOOTH",
"235 125 OFFCURVE",
"219 142 OFFCURVE",
"219 162 CURVE SMOOTH",
"219 189 OFFCURVE",
"250 201 OFFCURVE",
"302 201 CURVE SMOOTH",
"353 201 LINE",
"353 301 LINE",
"308 301 LINE SMOOTH",
"101 301 OFFCURVE",
"22 261 OFFCURVE",
"22 154 CURVE SMOOTH",
"22 58 OFFCURVE",
"102 -12 OFFCURVE",
"238 -12 CURVE SMOOTH",
"335 -12 OFFCURVE",
"401 26 OFFCURVE",
"430 98 CURVE",
"402 98 LINE",
"444 25 OFFCURVE",
"529 -12 OFFCURVE",
"638 -12 CURVE SMOOTH",
"711 -12 OFFCURVE",
"791 10 OFFCURVE",
"845 45 CURVE",
"795 181 LINE",
"754 155 OFFCURVE",
"695 140 OFFCURVE",
"644 140 CURVE SMOOTH",
"568 140 OFFCURVE",
"535 168 OFFCURVE",
"535 256 CURVE SMOOTH",
"535 338 OFFCURVE",
"558 370 OFFCURVE",
"609 370 CURVE SMOOTH",
"654 370 OFFCURVE",
"677 342 OFFCURVE",
"679 286 CURVE",
"698 300 LINE",
"525 300 LINE",
"525 199 LINE"
);
}
);
};
color = 11;
layerId = "4121B50C-FD42-45C5-8FBE-41E76D98F91E";
paths = (
{
closed = 1;
nodes = (
"845 199 LINE",
"853 246 LINE SMOOTH",
"878 404 OFFCURVE",
"795 506 OFFCURVE",
"642 506 CURVE SMOOTH",
"573 506 OFFCURVE",
"512 486 OFFCURVE",
"461 439 CURVE",
"502 439 LINE",
"472 488 OFFCURVE",
"402 506 OFFCURVE",
"320 506 CURVE SMOOTH",
"242 506 OFFCURVE",
"130 479 OFFCURVE",
"73 444 CURVE",
"102 305 LINE",
"166 337 OFFCURVE",
"236 352 OFFCURVE",
"286 352 CURVE SMOOTH",
"335 352 OFFCURVE",
"351 338 OFFCURVE",
"346 304 CURVE SMOOTH",
"328 192 LINE SMOOTH",
"322 152 OFFCURVE",
"293 125 OFFCURVE",
"251 125 CURVE SMOOTH",
"216 125 OFFCURVE",
"202 142 OFFCURVE",
"205 162 CURVE SMOOTH",
"210 189 OFFCURVE",
"243 201 OFFCURVE",
"295 201 CURVE SMOOTH",
"346 201 LINE",
"361 301 LINE",
"316 301 LINE SMOOTH",
"109 301 OFFCURVE",
"24 261 OFFCURVE",
"7 154 CURVE SMOOTH",
"-8 58 OFFCURVE",
"61 -12 OFFCURVE",
"197 -12 CURVE SMOOTH",
"294 -12 OFFCURVE",
"366 26 OFFCURVE",
"406 98 CURVE",
"378 98 LINE",
"409 25 OFFCURVE",
"488 -12 OFFCURVE",
"597 -12 CURVE SMOOTH",
"670 -12 OFFCURVE",
"753 10 OFFCURVE",
"813 45 CURVE",
"784 181 LINE",
"739 155 OFFCURVE",
"678 140 OFFCURVE",
"627 140 CURVE SMOOTH",
"551 140 OFFCURVE",
"522 168 OFFCURVE",
"536 256 CURVE SMOOTH",
"538 266 LINE SMOOTH",
"550 340 OFFCURVE",
"580 370 OFFCURVE",
"628 370 CURVE SMOOTH",
"673 370 OFFCURVE",
"692 342 OFFCURVE",
"685 286 CURVE",
"706 300 LINE",
"533 300 LINE",
"517 199 LINE"
);
}
);
width = 873;
},
{
anchors = (
{
name = bottom;
position = "{414, 0}";
},
{
name = top;
position = "{414, 484}";
}
);
associatedMasterId = "4121B50C-FD42-45C5-8FBE-41E76D98F91E";
background = {
paths = (
{
closed = 1;
nodes = (
"853 206 LINE",
"853 246 LINE SMOOTH",
"853 404 OFFCURVE",
"754 506 OFFCURVE",
"601 506 CURVE SMOOTH",
"532 506 OFFCURVE",
"474 486 OFFCURVE",
"431 439 CURVE",
"472 439 LINE",
"434 488 OFFCURVE",
"361 506 OFFCURVE",
"279 506 CURVE SMOOTH",
"201 506 OFFCURVE",
"93 479 OFFCURVE",
"42 444 CURVE",
"93 309 LINE",
"152 341 OFFCURVE",
"219 356 OFFCURVE",
"269 356 CURVE SMOOTH",
"319 356 OFFCURVE",
"337 343 OFFCURVE",
"337 309 CURVE SMOOTH",
"337 192 LINE SMOOTH",
"337 148 OFFCURVE",
"309 121 OFFCURVE",
"270 121 CURVE SMOOTH",
"235 121 OFFCURVE",
"219 138 OFFCURVE",
"219 162 CURVE SMOOTH",
"219 189 OFFCURVE",
"250 206 OFFCURVE",
"302 206 CURVE SMOOTH",
"353 206 LINE",
"353 297 LINE",
"308 297 LINE SMOOTH",
"101 297 OFFCURVE",
"22 261 OFFCURVE",
"22 154 CURVE SMOOTH",
"22 58 OFFCURVE",
"102 -12 OFFCURVE",
"238 -12 CURVE SMOOTH",
"335 -12 OFFCURVE",
"401 26 OFFCURVE",
"430 98 CURVE",
"402 98 LINE",
"444 25 OFFCURVE",
"529 -12 OFFCURVE",
"638 -12 CURVE SMOOTH",
"711 -12 OFFCURVE",
"791 10 OFFCURVE",
"845 45 CURVE",
"795 181 LINE",
"754 155 OFFCURVE",
"697 139 OFFCURVE",
"646 139 CURVE SMOOTH",
"563 139 OFFCURVE",
"534 168 OFFCURVE",
"534 256 CURVE SMOOTH",
"534 341 OFFCURVE",
"558 373 OFFCURVE",
"611 373 CURVE SMOOTH",
"658 373 OFFCURVE",
"683 347 OFFCURVE",
"683 286 CURVE",
"698 297 LINE",
"525 297 LINE",
"525 206 LINE"
);
}
);
};
color = 11;
layerId = "FEBA298E-5D66-484A-843B-B9E14629DD9D";
name = "Bold [177]";
paths = (
{
closed = 1;
nodes = (
"853 206 LINE",
"853 246 LINE SMOOTH",
"853 404 OFFCURVE",
"754 506 OFFCURVE",
"601 506 CURVE SMOOTH",
"532 506 OFFCURVE",
"474 486 OFFCURVE",
"431 439 CURVE",
"472 439 LINE",
"434 488 OFFCURVE",
"361 506 OFFCURVE",
"279 506 CURVE SMOOTH",
"201 506 OFFCURVE",
"93 479 OFFCURVE",
"42 444 CURVE",
"93 309 LINE",
"152 341 OFFCURVE",
"219 356 OFFCURVE",
"269 356 CURVE SMOOTH",
"319 356 OFFCURVE",
"337 343 OFFCURVE",
"337 309 CURVE SMOOTH",
"337 192 LINE SMOOTH",
"337 148 OFFCURVE",
"309 121 OFFCURVE",
"270 121 CURVE SMOOTH",
"235 121 OFFCURVE",
"219 138 OFFCURVE",
"219 162 CURVE SMOOTH",
"219 189 OFFCURVE",
"250 206 OFFCURVE",
"302 206 CURVE SMOOTH",
"353 206 LINE",
"353 297 LINE",
"308 297 LINE SMOOTH",
"101 297 OFFCURVE",
"22 261 OFFCURVE",
"22 154 CURVE SMOOTH",
"22 58 OFFCURVE",
"102 -12 OFFCURVE",
"238 -12 CURVE SMOOTH",
"335 -12 OFFCURVE",
"401 26 OFFCURVE",
"430 98 CURVE",
"402 98 LINE",
"444 25 OFFCURVE",
"529 -12 OFFCURVE",
"638 -12 CURVE SMOOTH",
"711 -12 OFFCURVE",
"791 10 OFFCURVE",
"845 45 CURVE",
"795 181 LINE",
"754 155 OFFCURVE",
"697 139 OFFCURVE",
"646 139 CURVE SMOOTH",
"563 139 OFFCURVE",
"534 168 OFFCURVE",
"534 256 CURVE SMOOTH",
"534 263 LINE SMOOTH",
"534 341 OFFCURVE",
"560 373 OFFCURVE",
"611 373 CURVE SMOOTH",
"658 373 OFFCURVE",
"683 347 OFFCURVE",
"683 286 CURVE",
"698 297 LINE",
"525 297 LINE",
"525 206 LINE"
);
}
);
width = 873;
}
);
leftKerningGroup = a;
leftMetricsKey = a;
rightKerningGroup = e;
rightMetricsKey = e;
unicode = 00E6;
userData = {
com.typemytype.robofont.layerData = {
b = {
anchors = (
);
components = (
);
contours = (
);
lib = {
};
name = ae;
unicodes = (
);
width = 1734;
};
};
};
},
{
glyphname = a.ss01;
lastChange = "2019-09-04 09:02:35 +0000";
layers = (
{
anchors = (
{
name = bottom;
position = "{250, 0}";
},
{
name = center;
position = "{289, 245}";
},
{
name = ogonek;
position = "{447, 0}";
},
{
name = stroke;
position = "{467, 580}";
},
{
name = top;
position = "{327, 484}";
},
{
name = topright;
position = "{609, 705}";
}
);
background = {
anchors = (
{
name = bottom;
position = "{241, 0}";
},
{
name = ogonek;
position = "{444, 0}";
},
{
name = top;
position = "{318, 484}";
}
);
paths = (
{
closed = 1;
nodes = (
"321 -8 OFFCURVE",
"398 44 OFFCURVE",
"433 126 CURVE",
"422 126 LINE",
"402 0 LINE",
"444 0 LINE",
"521 484 LINE",
"479 484 LINE",
"459 358 LINE",
"470 358 LINE",
"461 440 OFFCURVE",
"400 492 OFFCURVE",
"307 492 CURVE SMOOTH",
"175 492 OFFCURVE",
"77 395 OFFCURVE",
"53 242 CURVE SMOOTH",
"28 89 OFFCURVE",
"97 -8 OFFCURVE",
"228 -8 CURVE SMOOTH"
);
},
{
closed = 1;
nodes = (
"129 31 OFFCURVE",
"75 109 OFFCURVE",
"96 242 CURVE SMOOTH",
"117 375 OFFCURVE",
"196 453 OFFCURVE",
"302 453 CURVE SMOOTH",
"408 453 OFFCURVE",
"463 375 OFFCURVE",
"442 242 CURVE SMOOTH",
"421 109 OFFCURVE",
"341 31 OFFCURVE",
"235 31 CURVE SMOOTH"
);
}
);
};
guideLines = (
{
angle = 260.9807;
position = "{437, 431}";
}
);
layerId = "F1F93986-3ED8-4AAE-84C4-CA3EEECDDFA0";
paths = (
{
closed = 1;
nodes = (
"330 -8 OFFCURVE",
"401 42 OFFCURVE",
"435 126 CURVE",
"422 126 LINE",
"402 0 LINE",
"444 0 LINE",
"521 484 LINE",
"479 484 LINE",
"460 362 LINE",
"464 360 LINE",
"444 451 OFFCURVE",
"373 492 OFFCURVE",
"294 492 CURVE SMOOTH",
"136 492 OFFCURVE",
"51 355 OFFCURVE",
"51 200 CURVE SMOOTH",
"51 70 OFFCURVE",
"126 -8 OFFCURVE",
"243 -8 CURVE SMOOTH"
);
},
{
closed = 1;
nodes = (
"152 31 OFFCURVE",
"94 88 OFFCURVE",
"94 197 CURVE SMOOTH",
"94 335 OFFCURVE",
"163 453 OFFCURVE",
"292 453 CURVE SMOOTH",
"386 453 OFFCURVE",
"444 396 OFFCURVE",
"444 287 CURVE SMOOTH",
"444 149 OFFCURVE",
"375 31 OFFCURVE",
"246 31 CURVE SMOOTH"
);
}
);
width = 568;
},
{
anchors = (
{
name = bottom;
position = "{274, 0}";
},
{
name = center;
position = "{303, 247}";
},
{
name = ogonek;
position = "{517, 0}";
},
{
name = stroke;
position = "{487, 595}";
},
{
name = top;
position = "{350, 484}";
},
{
name = topright;
position = "{688, 705}";
}
);
background = {
anchors = (
{
name = bottom;
position = "{276, 0}";
},
{
name = ogonek;
position = "{519, 0}";
},
{
name = top;
position = "{352, 484}";
}
);
paths = (
{
closed = 1;
nodes = (
"270 -12 OFFCURVE",
"341 26 OFFCURVE",
"368 81 CURVE",
"357 81 LINE",
"344 0 LINE",
"549 0 LINE",
"627 494 LINE",
"422 494 LINE",
"410 421 LINE",
"419 421 LINE",
"407 470 OFFCURVE",
"349 506 OFFCURVE",
"280 506 CURVE SMOOTH",
"154 506 OFFCURVE",
"49 408 OFFCURVE",
"24 247 CURVE SMOOTH",
"-2 86 OFFCURVE",
"73 -12 OFFCURVE",
"198 -12 CURVE SMOOTH"
);
},
{
closed = 1;
nodes = (
"248 140 OFFCURVE",
"220 168 OFFCURVE",
"233 247 CURVE SMOOTH",
"245 326 OFFCURVE",
"282 354 OFFCURVE",
"325 354 CURVE SMOOTH",
"368 354 OFFCURVE",
"395 326 OFFCURVE",
"383 247 CURVE SMOOTH",
"370 168 OFFCURVE",
"334 140 OFFCURVE",
"291 140 CURVE SMOOTH"
);
}
);
};
layerId = "4121B50C-FD42-45C5-8FBE-41E76D98F91E";
paths = (
{
closed = 1;
nodes = (
"270 -12 OFFCURVE",
"326 19 OFFCURVE",
"361 77 CURVE",
"356 78 LINE",
"344 0 LINE",
"549 0 LINE",
"627 494 LINE",
"422 494 LINE",
"411 426 LINE",
"428 416 LINE",
"399 476 OFFCURVE",
"347 506 OFFCURVE",
"277 506 CURVE SMOOTH",
"128 506 OFFCURVE",
"24 396 OFFCURVE",
"24 210 CURVE SMOOTH",
"24 83 OFFCURVE",
"94 -12 OFFCURVE",
"204 -12 CURVE SMOOTH"
);
},
{
closed = 1;
nodes = (
"253 140 OFFCURVE",
"232 168 OFFCURVE",
"232 219 CURVE SMOOTH",
"232 301 OFFCURVE",
"262 354 OFFCURVE",
"315 354 CURVE SMOOTH",
"361 354 OFFCURVE",
"382 326 OFFCURVE",
"382 275 CURVE SMOOTH",
"382 193 OFFCURVE",
"352 140 OFFCURVE",
"299 140 CURVE SMOOTH"
);
}
);
width = 632;
}
);
leftKerningGroup = o;
leftMetricsKey = o;
rightKerningGroup = u;
rightMetricsKey = "=|n";
userData = {
anchors = (
);
b = {
};
com.typemytype.robofont.layerData = {
b = {
anchors = (
);
components = (
);
contours = (
);
lib = {
};
name = p;
unicodes = (
);
width = 1181;
};
};
components = (
);
contours = (
);
lib = {
};
name = p;
unicodes = (
);
width = 1207;
};
},
{
glyphname = b;
lastChange = "2019-09-04 08:13:26 +0000";
layers = (
{
anchors = (
{
name = bottom;
position = "{115, 0}";
},
{
name = top;
position = "{248, 705}";
}
);
background = {
anchors = (
{
name = bottom;
position = "{271, 0}";
},
{
name = top;
position = "{373, 705}";
}
);
paths = (
{
closed = 1;
nodes = (
"391 -8 OFFCURVE",
"490 89 OFFCURVE",
"515 242 CURVE SMOOTH",
"539 395 OFFCURVE",
"471 492 OFFCURVE",
"339 492 CURVE SMOOTH",
"246 492 OFFCURVE",
"169 440 OFFCURVE",
"134 358 CURVE",
"145 358 LINE",
"200 705 LINE",
"158 705 LINE",
"46 0 LINE",
"88 0 LINE",
"108 126 LINE",
"97 126 LINE",
"106 44 OFFCURVE",
"167 -8 OFFCURVE",
"260 -8 CURVE SMOOTH"
);
},
{
closed = 1;
nodes = (
"159 31 OFFCURVE",
"105 109 OFFCURVE",
"126 242 CURVE SMOOTH",
"147 375 OFFCURVE",
"226 453 OFFCURVE",
"332 453 CURVE SMOOTH",
"438 453 OFFCURVE",
"493 375 OFFCURVE",
"472 242 CURVE SMOOTH",
"451 109 OFFCURVE",
"371 31 OFFCURVE",
"265 31 CURVE SMOOTH"
);
}
);
};
layerId = "F1F93986-3ED8-4AAE-84C4-CA3EEECDDFA0";
paths = (
{
closed = 1;
nodes = (
"432 -8 OFFCURVE",
"517 129 OFFCURVE",
"517 284 CURVE SMOOTH",
"517 414 OFFCURVE",
"442 492 OFFCURVE",
"325 492 CURVE SMOOTH",
"238 492 OFFCURVE",
"167 442 OFFCURVE",
"133 358 CURVE",
"146 358 LINE",
"201 705 LINE",
"159 705 LINE",
"47 0 LINE",
"89 0 LINE",
"108 126 LINE",
"104 124 LINE",
"124 33 OFFCURVE",
"195 -8 OFFCURVE",
"274 -8 CURVE SMOOTH"
);
},
{
closed = 1;
nodes = (
"182 31 OFFCURVE",
"124 88 OFFCURVE",
"124 197 CURVE SMOOTH",
"124 335 OFFCURVE",
"193 453 OFFCURVE",
"322 453 CURVE SMOOTH",
"416 453 OFFCURVE",
"474 396 OFFCURVE",
"474 287 CURVE SMOOTH",
"474 149 OFFCURVE",
"405 31 OFFCURVE",
"276 31 CURVE SMOOTH"
);
}
);
width = 568;
},
{
anchors = (
{
name = bottom;
position = "{115, 0}";
},
{
name = top;
position = "{248, 705}";
}
);
background = {
anchors = (
{
name = bottom;
position = "{264, 0}";
},
{
name = top;
position = "{398, 705}";
}
);
paths = (
{
closed = 1;
nodes = (
"477 -12 OFFCURVE",
"582 86 OFFCURVE",
"608 247 CURVE SMOOTH",
"633 408 OFFCURVE",
"560 506 OFFCURVE",
"434 506 CURVE SMOOTH",
"365 506 OFFCURVE",
"295 470 OFFCURVE",
"267 421 CURVE",
"279 421 LINE",
"324 705 LINE",
"116 705 LINE",
"5 0 LINE",
"210 0 LINE",
"223 81 LINE",
"212 81 LINE",
"221 26 OFFCURVE",
"280 -12 OFFCURVE",
"352 -12 CURVE SMOOTH"
);
},
{
closed = 1;
nodes = (
"264 140 OFFCURVE",
"236 168 OFFCURVE",
"249 247 CURVE SMOOTH",
"261 326 OFFCURVE",
"298 354 OFFCURVE",
"341 354 CURVE SMOOTH",
"384 354 OFFCURVE",
"411 326 OFFCURVE",
"399 247 CURVE SMOOTH",
"386 168 OFFCURVE",
"350 140 OFFCURVE",
"307 140 CURVE SMOOTH"
);
}
);
};
guideLines = (
{
angle = 80.6553;
position = "{150, 60}";
}
);
layerId = "4121B50C-FD42-45C5-8FBE-41E76D98F91E";
paths = (
{
closed = 1;
nodes = (
"504 -12 OFFCURVE",
"608 98 OFFCURVE",
"608 284 CURVE SMOOTH",
"608 411 OFFCURVE",
"538 506 OFFCURVE",
"428 506 CURVE SMOOTH",
"356 506 OFFCURVE",
"300 475 OFFCURVE",
"271 417 CURVE",
"280 417 LINE",
"325 705 LINE",
"117 705 LINE",
"5 0 LINE",
"210 0 LINE",
"221 68 LINE",
"204 78 LINE",
"233 18 OFFCURVE",
"285 -12 OFFCURVE",
"355 -12 CURVE SMOOTH"
);
},
{
closed = 1;
nodes = (
"271 140 OFFCURVE",
"250 168 OFFCURVE",
"250 219 CURVE SMOOTH",
"250 301 OFFCURVE",
"280 354 OFFCURVE",
"333 354 CURVE SMOOTH",
"379 354 OFFCURVE",
"400 326 OFFCURVE",
"400 275 CURVE SMOOTH",
"400 193 OFFCURVE",
"370 140 OFFCURVE",
"317 140 CURVE SMOOTH"
);
}
);
width = 632;
}
);
leftKerningGroup = h;
leftMetricsKey = n;
rightKerningGroup = o;
rightMetricsKey = o;
unicode = 0062;
userData = {
anchors = (
);
b = {
};
com.typemytype.robofont.layerData = {
b = {
anchors = (
);
components = (
);
contours = (
{
points = (
{
segmentType = curve;
smooth = 1;
x = 238;
y = 1425;
},
{
smooth = 0;
x = 198;
y = 1425;
},
{
smooth = 0;
x = 158;
y = 1400;
},
{
segmentType = curve;
smooth = 1;
x = 158;
y = 1351;
},
{
segmentType = line;
smooth = 1;
x = 158;
y = 76;
},
{
smooth = 0;
x = 158;
y = 27;
},
{
smooth = 0;
x = 197;
y = 3;
},
{
segmentType = curve;
smooth = 1;
x = 237;
y = 3;
},
{
smooth = 0;
x = 297;
y = 3;
},
{
smooth = 0;
x = 318;
y = 38;
},
{
segmentType = curve;
smooth = 1;
x = 318;
y = 76;
},
{
segmentType = line;
smooth = 0;
x = 318;
y = 183;
},
{
smooth = 0;
x = 384;
y = 46;
},
{
smooth = 0;
x = 516;
y = "-20";
},
{
segmentType = curve;
smooth = 1;
x = 666;
y = "-20";
},
{
smooth = 0;
x = 957;
y = "-20";
},
{
smooth = 0;
x = 1095;
y = 225;
},
{
segmentType = curve;
smooth = 1;
x = 1095;
y = 502;
},
{
smooth = 0;
x = 1095;
y = 777;
},
{
smooth = 0;
x = 939;
y = 1013;
},
{
segmentType = curve;
smooth = 1;
x = 650;
y = 1013;
},
{
smooth = 0;
x = 503;
y = 1013;
},
{
smooth = 0;
x = 376;
y = 942;
},
{
segmentType = curve;
smooth = 0;
x = 318;
y = 814;
},
{
segmentType = line;
smooth = 1;
x = 318;
y = 1351;
},
{
smooth = 0;
x = 318;
y = 1400;
},
{
smooth = 0;
x = 278;
y = 1425;
}
);
},
{
points = (
{
segmentType = curve;
smooth = 1;
x = 632;
y = 903;
},
{
smooth = 0;
x = 859;
y = 903;
},
{
smooth = 0;
x = 935;
y = 685;
},
{
segmentType = curve;
smooth = 1;
x = 935;
y = 496;
},
{
smooth = 0;
x = 935;
y = 316;
},
{
smooth = 0;
x = 869;
y = 93;
},
{
segmentType = curve;
smooth = 0;
x = 645;
y = 90;
},
{
smooth = 0;
x = 395;
y = 90;
},
{
smooth = 0;
x = 319;
y = 279;
},
{
segmentType = curve;
smooth = 1;
x = 319;
y = 501;
},
{
smooth = 0;
x = 319;
y = 701;
},
{
smooth = 0;
x = 407;
y = 903;
}
);
}
);
lib = {
};
name = b;
unicodes = (
);
width = 1181;
};
};
components = (
);
contours = (
);
lib = {
};
name = b;
unicodes = (
);
width = 1203;
};
},
{
glyphname = c;
lastChange = "2019-08-30 15:30:10 +0000";
layers = (
{
background = {
anchors = (
{
name = bottom;
position = "{234, 0}";
},
{
name = top;
position = "{311, 484}";
}
);
paths = (
{
closed = 1;
nodes = (
"290 -8 OFFCURVE",
"356 17 OFFCURVE",
"401 58 CURVE",
"386 91 LINE",
"336 48 OFFCURVE",
"283 31 OFFCURVE",
"239 31 CURVE SMOOTH",
"125 31 OFFCURVE",
"75 112 OFFCURVE",
"96 245 CURVE SMOOTH",
"117 378 OFFCURVE",
"192 453 OFFCURVE",
"306 453 CURVE SMOOTH",
"350 453 OFFCURVE",
"397 436 OFFCURVE",
"434 393 CURVE",
"459 426 LINE",
"427 467 OFFCURVE",
"371 492 OFFCURVE",
"313 492 CURVE SMOOTH",
"175 492 OFFCURVE",
"77 398 OFFCURVE",
"53 246 CURVE SMOOTH",
"29 94 OFFCURVE",
"96 -8 OFFCURVE",
"234 -8 CURVE SMOOTH"
);
}
);
};
guideLines = (
{
angle = 233.427;
position = "{458, 403}";
}
);
layerId = "F1F93986-3ED8-4AAE-84C4-CA3EEECDDFA0";
paths = (
{
closed = 1;
nodes = (
"302 -8 OFFCURVE",
"366 15 OFFCURVE",
"402 50 CURVE",
"385 84 LINE",
"346 49 OFFCURVE",
"290 31 OFFCURVE",
"242 31 CURVE SMOOTH",
"152 31 OFFCURVE",
"95 89 OFFCURVE",
"95 200 CURVE SMOOTH",
"95 338 OFFCURVE",
"165 453 OFFCURVE",
"286 453 CURVE SMOOTH",
"348 453 OFFCURVE",
"393 429 OFFCURVE",
"433 379 CURVE",
"455 409 LINE",
"419 457 OFFCURVE",
"362 492 OFFCURVE",
"287 492 CURVE SMOOTH",
"138 492 OFFCURVE",
"52 358 OFFCURVE",
"52 203 CURVE SMOOTH",
"52 75 OFFCURVE",
"126 -8 OFFCURVE",
"239 -8 CURVE SMOOTH"
);
}
);
width = 455;
},
{
background = {
anchors = (
{
name = bottom;
position = "{255, 0}";
},
{
name = top;
position = "{331, 484}";
}
);
paths = (
{
closed = 1;
nodes = (
"335 -12 OFFCURVE",
"412 6 OFFCURVE",
"458 36 CURVE",
"427 178 LINE",
"397 158 OFFCURVE",
"350 143 OFFCURVE",
"316 143 CURVE SMOOTH",
"255 143 OFFCURVE",
"226 181 OFFCURVE",
"237 247 CURVE SMOOTH",
"247 313 OFFCURVE",
"288 351 OFFCURVE",
"349 351 CURVE SMOOTH",
"384 351 OFFCURVE",
"425 336 OFFCURVE",
"449 316 CURVE",
"525 458 LINE",
"488 488 OFFCURVE",
"417 506 OFFCURVE",
"351 506 CURVE SMOOTH",
"178 506 OFFCURVE",
"49 408 OFFCURVE",
"24 247 CURVE SMOOTH",
"-2 86 OFFCURVE",
"96 -12 OFFCURVE",
"269 -12 CURVE SMOOTH"
);
}
);
};
layerId = "4121B50C-FD42-45C5-8FBE-41E76D98F91E";
paths = (
{
closed = 1;
nodes = (
"358 -12 OFFCURVE",
"410 2 OFFCURVE",
"455 24 CURVE",
"411 167 LINE",
"378 151 OFFCURVE",
"346 142 OFFCURVE",
"318 142 CURVE SMOOTH",
"261 142 OFFCURVE",
"235 187 OFFCURVE",
"235 236 CURVE SMOOTH",
"235 292 OFFCURVE",
"270 352 OFFCURVE",
"330 352 CURVE SMOOTH",
"371 352 OFFCURVE",
"405 337 OFFCURVE",
"436 308 CURVE",
"503 446 LINE",
"456 487 OFFCURVE",
"396 506 OFFCURVE",
"318 506 CURVE SMOOTH",
"150 506 OFFCURVE",
"24 392 OFFCURVE",
"24 222 CURVE SMOOTH",
"24 79 OFFCURVE",
"121 -12 OFFCURVE",
"290 -12 CURVE SMOOTH"
);
}
);
width = 491;
}
);
leftKerningGroup = o;
leftMetricsKey = o;
rightKerningGroup = c;
unicode = 0063;
userData = {
anchors = (
);
b = {
};
com.typemytype.robofont.layerData = {
b = {
anchors = (
);
components = (
);
contours = (
);
lib = {
};
name = c;
unicodes = (
);
width = 956.14099;
};
};
components = (
);
contours = (
);
lib = {
};
name = c;
unicodes = (
);
width = 992;
};
},
{
glyphname = d;
lastChange = "2019-09-04 08:13:29 +0000";
layers = (
{
anchors = (
{
name = bottom;
position = "{250, 0}";
},
{
name = center;
position = "{289, 245}";
},
{
name = stroke;
position = "{467, 580}";
},
{
name = top;
position = "{327, 484}";
},
{
name = topright;
position = "{609, 705}";
}
);
background = {
anchors = (
{
name = bottom;
position = "{247, 0}";
},
{
name = center;
position = "{286, 245}";
},
{
name = stroke;
position = "{464, 580}";
},
{
name = top;
position = "{322, 484}";
},
{
name = topright;
position = "{607, 705}";
}
);
paths = (
{
closed = 1;
nodes = (
"321 -8 OFFCURVE",
"398 44 OFFCURVE",
"433 126 CURVE",
"422 126 LINE",
"402 0 LINE",
"444 0 LINE",
"556 705 LINE",
"514 705 LINE",
"459 358 LINE",
"470 358 LINE",
"461 440 OFFCURVE",
"400 492 OFFCURVE",
"307 492 CURVE SMOOTH",
"175 492 OFFCURVE",
"77 395 OFFCURVE",
"53 242 CURVE SMOOTH",
"28 89 OFFCURVE",
"97 -8 OFFCURVE",
"228 -8 CURVE SMOOTH"
);
},
{
closed = 1;
nodes = (
"129 31 OFFCURVE",
"75 109 OFFCURVE",
"96 242 CURVE SMOOTH",
"117 375 OFFCURVE",
"196 453 OFFCURVE",
"302 453 CURVE SMOOTH",
"408 453 OFFCURVE",
"463 375 OFFCURVE",
"442 242 CURVE SMOOTH",
"421 109 OFFCURVE",
"341 31 OFFCURVE",
"235 31 CURVE SMOOTH"
);
}
);
};
guideLines = (
{
angle = 260.9935;
position = "{489, 532}";
}
);
layerId = "F1F93986-3ED8-4AAE-84C4-CA3EEECDDFA0";
paths = (
{
closed = 1;
nodes = (
"330 -8 OFFCURVE",
"401 42 OFFCURVE",
"435 126 CURVE",
"422 126 LINE",
"402 0 LINE",
"444 0 LINE",
"556 705 LINE",
"514 705 LINE",
"460 362 LINE",
"464 360 LINE",
"444 451 OFFCURVE",
"373 492 OFFCURVE",
"294 492 CURVE SMOOTH",
"136 492 OFFCURVE",
"51 355 OFFCURVE",
"51 200 CURVE SMOOTH",
"51 70 OFFCURVE",
"126 -8 OFFCURVE",
"243 -8 CURVE SMOOTH"
);
},
{
closed = 1;
nodes = (
"152 31 OFFCURVE",
"94 88 OFFCURVE",
"94 197 CURVE SMOOTH",
"94 335 OFFCURVE",
"163 453 OFFCURVE",
"292 453 CURVE SMOOTH",
"386 453 OFFCURVE",
"444 396 OFFCURVE",
"444 287 CURVE SMOOTH",
"444 149 OFFCURVE",
"375 31 OFFCURVE",
"246 31 CURVE SMOOTH"
);
}
);
width = 568;
},
{
anchors = (
{
name = bottom;
position = "{278, 0}";
},
{
name = center;
position = "{305, 247}";
},
{
name = stroke;
position = "{489, 595}";
},
{
name = top;
position = "{354, 484}";
},
{
name = topright;
position = "{690, 705}";
}
);
background = {
anchors = (
{
name = bottom;
position = "{279, 0}";
},
{
name = center;
position = "{305, 247}";
},
{
name = stroke;
position = "{489, 595}";
},
{
name = top;
position = "{355, 484}";
},
{
name = topright;
position = "{690, 705}";
}
);
paths = (
{
closed = 1;
nodes = (
"270 -12 OFFCURVE",
"341 26 OFFCURVE",
"368 81 CURVE",
"357 81 LINE",
"344 0 LINE",
"549 0 LINE",
"660 705 LINE",
"452 705 LINE",
"407 421 LINE",
"419 421 LINE",
"407 470 OFFCURVE",
"349 506 OFFCURVE",
"280 506 CURVE SMOOTH",
"154 506 OFFCURVE",
"49 408 OFFCURVE",
"24 247 CURVE SMOOTH",
"-2 86 OFFCURVE",
"73 -12 OFFCURVE",
"198 -12 CURVE SMOOTH"
);
},
{
closed = 1;
nodes = (
"248 140 OFFCURVE",
"220 168 OFFCURVE",
"233 247 CURVE SMOOTH",
"245 326 OFFCURVE",
"282 354 OFFCURVE",
"325 354 CURVE SMOOTH",
"368 354 OFFCURVE",
"395 326 OFFCURVE",
"383 247 CURVE SMOOTH",
"370 168 OFFCURVE",
"334 140 OFFCURVE",
"291 140 CURVE SMOOTH"
);
}
);
};
layerId = "4121B50C-FD42-45C5-8FBE-41E76D98F91E";
paths = (
{
closed = 1;
nodes = (
"270 -12 OFFCURVE",
"326 19 OFFCURVE",
"361 77 CURVE",
"356 78 LINE",
"344 0 LINE",
"549 0 LINE",
"661 705 LINE",
"453 705 LINE",
"409 427 LINE",
"428 416 LINE",
"400 468 OFFCURVE",
"349 506 OFFCURVE",
"271 506 CURVE SMOOTH",
"129 506 OFFCURVE",
"24 396 OFFCURVE",
"24 210 CURVE SMOOTH",
"24 83 OFFCURVE",
"94 -12 OFFCURVE",
"204 -12 CURVE SMOOTH"
);
},
{
closed = 1;
nodes = (
"253 140 OFFCURVE",
"232 168 OFFCURVE",
"232 219 CURVE SMOOTH",
"232 301 OFFCURVE",
"262 354 OFFCURVE",
"315 354 CURVE SMOOTH",
"361 354 OFFCURVE",
"382 326 OFFCURVE",
"382 275 CURVE SMOOTH",
"382 193 OFFCURVE",
"352 140 OFFCURVE",
"299 140 CURVE SMOOTH"
);
}
);
width = 632;
}
);
leftKerningGroup = o;
leftMetricsKey = o;
rightKerningGroup = l;
rightMetricsKey = "=|n";
unicode = 0064;
userData = {
anchors = (
);
b = {
};
com.typemytype.robofont.layerData = {
b = {
anchors = (
);
components = (
);
contours = (
);
lib = {
};
name = d;
unicodes = (
);
width = 1181;
};
};
components = (
);
contours = (
);
lib = {
};
name = d;
unicodes = (
);
width = 1207;
};
},
{
color = 8;
glyphname = eth;
lastChange = "2019-08-30 14:16:40 +0000";
layers = (
{
background = {
paths = (
{
closed = 1;
nodes = (
"373 -8 OFFCURVE",
"464 90 OFFCURVE",
"494 281 CURVE SMOOTH",
"529 503 OFFCURVE",
"443 644 OFFCURVE",
"239 710 CURVE",
"222 677 LINE",
"411 618 OFFCURVE",
"485 480 OFFCURVE",
"453 286 CURVE",
"472 286 LINE",
"465 399 OFFCURVE",
"407 454 OFFCURVE",
"305 454 CURVE SMOOTH",
"173 454 OFFCURVE",
"72 363 OFFCURVE",
"50 223 CURVE SMOOTH",
"27 83 OFFCURVE",
"98 -8 OFFCURVE",
"229 -8 CURVE SMOOTH"
);
},
{
closed = 1;
nodes = (
"126 31 OFFCURVE",
"73 101 OFFCURVE",
"93 223 CURVE SMOOTH",
"112 342 OFFCURVE",
"189 415 OFFCURVE",
"296 415 CURVE SMOOTH",
"403 415 OFFCURVE",
"458 342 OFFCURVE",
"439 223 CURVE SMOOTH",
"420 104 OFFCURVE",
"341 31 OFFCURVE",
"234 31 CURVE SMOOTH"
);
},
{
closed = 1;
nodes = (
"505 677 LINE",
"496 710 LINE",
"174 583 LINE",
"182 550 LINE"
);
}
);
};
layerId = "F1F93986-3ED8-4AAE-84C4-CA3EEECDDFA0";
paths = (
{
closed = 1;
nodes = (
"373 -8 OFFCURVE",
"464 90 OFFCURVE",
"494 281 CURVE SMOOTH",
"529 503 OFFCURVE",
"443 644 OFFCURVE",
"239 710 CURVE",
"222 677 LINE",
"411 618 OFFCURVE",
"485 480 OFFCURVE",
"453 286 CURVE",
"472 286 LINE",
"465 399 OFFCURVE",
"407 454 OFFCURVE",
"305 454 CURVE SMOOTH",
"173 454 OFFCURVE",
"72 363 OFFCURVE",
"50 223 CURVE SMOOTH",
"27 83 OFFCURVE",
"98 -8 OFFCURVE",
"229 -8 CURVE SMOOTH"
);
},
{
closed = 1;
nodes = (
"126 31 OFFCURVE",
"73 101 OFFCURVE",
"93 223 CURVE SMOOTH",
"112 342 OFFCURVE",
"189 415 OFFCURVE",
"296 415 CURVE SMOOTH",
"403 415 OFFCURVE",
"458 342 OFFCURVE",
"439 223 CURVE SMOOTH",
"420 104 OFFCURVE",
"341 31 OFFCURVE",
"234 31 CURVE SMOOTH"
);
},
{
closed = 1;
nodes = (
"505 677 LINE",
"496 710 LINE",
"174 583 LINE",
"182 550 LINE"
);
}
);
width = 541;
},
{
background = {
paths = (
{
closed = 1;
nodes = (
"489 -9 OFFCURVE",
"599 109 OFFCURVE",
"599 295 CURVE SMOOTH",
"599 453 OFFCURVE",
"466 678 OFFCURVE",
"144 719 CURVE",
"110 590 LINE",
"271 568 OFFCURVE",
"405 473 OFFCURVE",
"406 344 CURVE",
"443 344 LINE",
"412 426 OFFCURVE",
"357 455 OFFCURVE",
"276 455 CURVE SMOOTH",
"130 455 OFFCURVE",
"24 358 OFFCURVE",
"24 226 CURVE SMOOTH",
"24 87 OFFCURVE",
"137 -9 OFFCURVE",
"299 -9 CURVE SMOOTH"
);
},
{
closed = 1;
nodes = (
"258 145 OFFCURVE",
"233 176 OFFCURVE",
"233 226 CURVE SMOOTH",
"233 275 OFFCURVE",
"257 306 OFFCURVE",
"307 306 CURVE SMOOTH",
"357 306 OFFCURVE",
"381 275 OFFCURVE",
"381 226 CURVE SMOOTH",
"381 178 OFFCURVE",
"356 145 OFFCURVE",
"308 145 CURVE SMOOTH"
);
},
{
closed = 1;
nodes = (
"552 629 LINE",
"509 719 LINE",
"93 521 LINE",
"136 431 LINE"
);
}
);
};
color = 11;
layerId = "4121B50C-FD42-45C5-8FBE-41E76D98F91E";
paths = (
{
closed = 1;
nodes = (
"448 -12 OFFCURVE",
"577 106 OFFCURVE",
"606 292 CURVE SMOOTH",
"631 450 OFFCURVE",
"534 678 OFFCURVE",
"219 719 CURVE",
"164 590 LINE",
"322 568 OFFCURVE",
"440 470 OFFCURVE",
"421 341 CURVE",
"458 341 LINE",
"440 423 OFFCURVE",
"389 452 OFFCURVE",
"308 452 CURVE SMOOTH",
"162 452 OFFCURVE",
"41 355 OFFCURVE",
"20 223 CURVE SMOOTH",
"-2 84 OFFCURVE",
"96 -12 OFFCURVE",
"258 -12 CURVE SMOOTH"
);
},
{
closed = 1;
nodes = (
"241 142 OFFCURVE",
"221 173 OFFCURVE",
"229 223 CURVE SMOOTH",
"237 272 OFFCURVE",
"266 303 OFFCURVE",
"316 303 CURVE SMOOTH",
"366 303 OFFCURVE",
"385 272 OFFCURVE",
"377 223 CURVE SMOOTH",
"369 175 OFFCURVE",
"339 142 OFFCURVE",
"291 142 CURVE SMOOTH"
);
},
{
closed = 1;
nodes = (
"612 629 LINE",
"584 719 LINE",
"136 521 LINE",
"165 431 LINE"
);
}
);
width = 620;
},
{
associatedMasterId = "4121B50C-FD42-45C5-8FBE-41E76D98F91E";
background = {
paths = (
{
closed = 1;
nodes = (
"489 -12 OFFCURVE",
"599 106 OFFCURVE",
"599 292 CURVE SMOOTH",
"599 450 OFFCURVE",
"466 678 OFFCURVE",
"144 719 CURVE",
"110 590 LINE",
"271 568 OFFCURVE",
"405 470 OFFCURVE",
"406 341 CURVE",
"443 341 LINE",
"412 423 OFFCURVE",
"357 452 OFFCURVE",
"276 452 CURVE SMOOTH",
"130 452 OFFCURVE",
"24 355 OFFCURVE",
"24 223 CURVE SMOOTH",
"24 84 OFFCURVE",
"137 -12 OFFCURVE",
"299 -12 CURVE SMOOTH"
);
},
{
closed = 1;
nodes = (
"258 142 OFFCURVE",
"233 173 OFFCURVE",
"233 223 CURVE SMOOTH",
"233 272 OFFCURVE",
"257 303 OFFCURVE",
"307 303 CURVE SMOOTH",
"357 303 OFFCURVE",
"381 272 OFFCURVE",
"381 223 CURVE SMOOTH",
"381 175 OFFCURVE",
"356 142 OFFCURVE",
"308 142 CURVE SMOOTH"
);
},
{
closed = 1;
nodes = (
"552 629 LINE",
"509 719 LINE",
"93 521 LINE",
"136 431 LINE"
);
}
);
};
color = 11;
layerId = "6EB873AD-B6B3-4D50-A75E-883CF165F576";
name = "Bold [177]";
paths = (
{
closed = 1;
nodes = (
"489 -12 OFFCURVE",
"599 109 OFFCURVE",
"599 295 CURVE SMOOTH",
"599 453 OFFCURVE",
"466 678 OFFCURVE",
"144 719 CURVE",
"110 590 LINE",
"271 568 OFFCURVE",
"405 473 OFFCURVE",
"406 344 CURVE",
"440 344 LINE",
"409 419 OFFCURVE",
"355 445 OFFCURVE",
"276 445 CURVE SMOOTH",
"130 445 OFFCURVE",
"24 350 OFFCURVE",
"24 221 CURVE SMOOTH",
"24 85 OFFCURVE",
"137 -12 OFFCURVE",
"299 -12 CURVE SMOOTH"
);
},
{
closed = 1;
nodes = (
"262 142 OFFCURVE",
"233 172 OFFCURVE",
"233 220 CURVE SMOOTH",
"233 266 OFFCURVE",
"261 296 OFFCURVE",
"307 296 CURVE SMOOTH",
"357 296 OFFCURVE",
"381 266 OFFCURVE",
"381 220 CURVE SMOOTH",
"381 174 OFFCURVE",
"356 142 OFFCURVE",
"308 142 CURVE SMOOTH"
);
},
{
closed = 1;
nodes = (
"547 638 LINE",
"508 719 LINE",
"92 521 LINE",
"131 440 LINE"
);
}
);
width = 623;
}
);
leftKerningGroup = o;
leftMetricsKey = o;
rightKerningGroup = o;
unicode = 00F0;
userData = {
com.typemytype.robofont.layerData = {
b = {
anchors = (
);
components = (
);
contours = (
);
lib = {
};
name = eth;
unicodes = (
);
width = 1230;
};
};
};
},
{
glyphname = e;
lastChange = "2019-08-30 14:47:53 +0000";
layers = (
{
anchors = (
{
name = bottom;
position = "{277, 0}";
},
{
name = ogonek;
position = "{342, 0}";
},
{
name = top;
position = "{277, 484}";
}
);
background = {
anchors = (
{
name = bottom;
position = "{238, 0}";
},
{
name = ogonek;
position = "{303, 0}";
},
{
name = top;
position = "{315, 484}";
}
);
paths = (
{
closed = 1;
nodes = (
"315 -8 OFFCURVE",
"390 18 OFFCURVE",
"438 60 CURVE",
"423 94 LINE",
"364 48 OFFCURVE",
"310 31 OFFCURVE",
"250 31 CURVE SMOOTH",
"131 31 OFFCURVE",
"74 107 OFFCURVE",
"95 240 CURVE SMOOTH",
"96 245 LINE SMOOTH",
"115 364 OFFCURVE",
"192 454 OFFCURVE",
"309 454 CURVE SMOOTH",
"415 454 OFFCURVE",
"458 380 OFFCURVE",
"438 259 CURVE",
"457 271 LINE",
"84 271 LINE",
"78 234 LINE",
"473 234 LINE",
"478 260 LINE SMOOTH",
"500 405 OFFCURVE",
"441 492 OFFCURVE",
"316 492 CURVE SMOOTH",
"183 492 OFFCURVE",
"76 391 OFFCURVE",
"52 240 CURVE SMOOTH",
"28 86 OFFCURVE",
"102 -8 OFFCURVE",
"246 -8 CURVE SMOOTH"
);
}
);
};
guideLines = (
{
angle = 261.2538;
position = "{441, 252}";
},
{
angle = 118.4956;
position = "{244, 415}";
}
);
layerId = "F1F93986-3ED8-4AAE-84C4-CA3EEECDDFA0";
paths = (
{
closed = 1;
nodes = (
"327 -8 OFFCURVE",
"400 15 OFFCURVE",
"443 61 CURVE",
"421 92 LINE",
"375 48 OFFCURVE",
"323 31 OFFCURVE",
"259 31 CURVE SMOOTH",
"138 31 OFFCURVE",
"76 118 OFFCURVE",
"97 246 CURVE SMOOTH",
"100 264 LINE SMOOTH",
"116 355 OFFCURVE",
"175 454 OFFCURVE",
"300 454 CURVE SMOOTH",
"417 454 OFFCURVE",
"452 364 OFFCURVE",
"439 259 CURVE",
"458 271 LINE",
"86 271 LINE",
"80 234 LINE",
"474 234 LINE",
"476 249 LINE SMOOTH",
"493 378 OFFCURVE",
"446 492 OFFCURVE",
"300 492 CURVE SMOOTH",
"148 492 OFFCURVE",
"52 363 OFFCURVE",
"52 204 CURVE SMOOTH",
"52 70 OFFCURVE",
"134 -8 OFFCURVE",
"262 -8 CURVE SMOOTH"
);
}
);
width = 523;
},
{
anchors = (
{
name = bottom;
position = "{275, 0}";
},
{
name = ogonek;
position = "{359, 0}";
},
{
name = top;
position = "{330, 495}";
}
);
background = {
anchors = (
{
name = bottom;
position = "{254, 0}";
},
{
name = ogonek;
position = "{362, 0}";
},
{
name = top;
position = "{330, 484}";
}
);
paths = (
{
closed = 1;
nodes = (
"360 -12 OFFCURVE",
"443 10 OFFCURVE",
"503 45 CURVE",
"474 181 LINE",
"429 155 OFFCURVE",
"368 140 OFFCURVE",
"317 140 CURVE SMOOTH",
"236 140 OFFCURVE",
"207 168 OFFCURVE",
"221 256 CURVE SMOOTH",
"223 265 LINE SMOOTH",
"234 338 OFFCURVE",
"269 370 OFFCURVE",
"318 370 CURVE SMOOTH",
"363 370 OFFCURVE",
"381 342 OFFCURVE",
"375 286 CURVE",
"396 300 LINE",
"208 300 LINE",
"192 199 LINE",
"535 199 LINE",
"543 246 LINE SMOOTH",
"568 404 OFFCURVE",
"485 506 OFFCURVE",
"332 506 CURVE SMOOTH",
"178 506 OFFCURVE",
"48 399 OFFCURVE",
"24 248 CURVE SMOOTH",
"-1 90 OFFCURVE",
"98 -12 OFFCURVE",
"287 -12 CURVE SMOOTH"
);
}
);
};
layerId = "4121B50C-FD42-45C5-8FBE-41E76D98F91E";
paths = (
{
closed = 1;
nodes = (
"384 -12 OFFCURVE",
"459 10 OFFCURVE",
"510 45 CURVE",
"470 180 LINE",
"432 155 OFFCURVE",
"380 140 OFFCURVE",
"329 140 CURVE SMOOTH",
"246 140 OFFCURVE",
"208 162 OFFCURVE",
"220 241 CURVE SMOOTH",
"225 275 LINE SMOOTH",
"234 336 OFFCURVE",
"260 370 OFFCURVE",
"311 370 CURVE SMOOTH",
"365 370 OFFCURVE",
"386 334 OFFCURVE",
"378 286 CURVE",
"396 302 LINE",
"208 302 LINE",
"194 201 LINE",
"536 201 LINE",
"541 236 LINE SMOOTH",
"563 391 OFFCURVE",
"455 506 OFFCURVE",
"307 506 CURVE SMOOTH",
"166 506 OFFCURVE",
"24 410 OFFCURVE",
"24 218 CURVE SMOOTH",
"24 74 OFFCURVE",
"129 -12 OFFCURVE",
"299 -12 CURVE SMOOTH"
);
}
);
width = 563;
},
{
anchors = (
{
name = bottom;
position = "{293, 0}";
},
{
name = ogonek;
position = "{401, 0}";
},
{
name = top;
position = "{293, 484}";
}
);
associatedMasterId = "4121B50C-FD42-45C5-8FBE-41E76D98F91E";
background = {
anchors = (
{
name = bottom;
position = "{215, 0}";
},
{
name = ogonek;
position = "{323, 0}";
},
{
name = top;
position = "{291, 484}";
}
);
paths = (
{
closed = 1;
nodes = (
"360 -12 OFFCURVE",
"443 10 OFFCURVE",
"503 45 CURVE",
"474 181 LINE",
"429 155 OFFCURVE",
"366 140 OFFCURVE",
"317 140 CURVE SMOOTH",
"236 140 OFFCURVE",
"200 169 OFFCURVE",
"219 255 CURVE SMOOTH",
"221 264 LINE SMOOTH",
"238 339 OFFCURVE",
"270 373 OFFCURVE",
"321 373 CURVE SMOOTH",
"366 373 OFFCURVE",
"389 347 OFFCURVE",
"379 286 CURVE",
"396 297 LINE",
"208 297 LINE",
"193 206 LINE",
"536 206 LINE",
"543 246 LINE SMOOTH",
"571 406 OFFCURVE",
"485 506 OFFCURVE",
"332 506 CURVE SMOOTH",
"178 506 OFFCURVE",
"48 399 OFFCURVE",
"24 248 CURVE SMOOTH",
"-1 90 OFFCURVE",
"98 -12 OFFCURVE",
"287 -12 CURVE SMOOTH"
);
}
);
};
color = 11;
layerId = "E49B42F9-A839-49EF-8753-FFCB8F7C37E6";
name = "Bold  [177]";
paths = (
{
closed = 1;
nodes = (
"384 -12 OFFCURVE",
"459 10 OFFCURVE",
"510 45 CURVE",
"470 181 LINE",
"432 155 OFFCURVE",
"380 140 OFFCURVE",
"329 140 CURVE SMOOTH",
"246 140 OFFCURVE",
"209 163 OFFCURVE",
"220 241 CURVE SMOOTH",
"225 275 LINE SMOOTH",
"234 336 OFFCURVE",
"260 372 OFFCURVE",
"312 372 CURVE SMOOTH",
"365 372 OFFCURVE",
"386 334 OFFCURVE",
"378 286 CURVE",
"396 297 LINE",
"208 297 LINE",
"194 206 LINE",
"536 206 LINE",
"541 236 LINE SMOOTH",
"567 391 OFFCURVE",
"455 506 OFFCURVE",
"307 506 CURVE SMOOTH",
"166 506 OFFCURVE",
"24 410 OFFCURVE",
"24 218 CURVE SMOOTH",
"24 74 OFFCURVE",
"129 -12 OFFCURVE",
"299 -12 CURVE SMOOTH"
);
}
);
width = 563;
}
);
leftKerningGroup = o;
leftMetricsKey = o;
rightKerningGroup = e;
unicode = 0065;
userData = {
anchors = (
);
b = {
};
com.typemytype.robofont.layerData = {
b = {
anchors = (
);
components = (
);
contours = (
);
lib = {
};
name = e;
unicodes = (
);
width = 1132;
};
};
components = (
);
contours = (
);
lib = {
};
name = e;
unicodes = (
);
width = 1132;
};
},
{
glyphname = f;
lastChange = "2019-08-30 14:28:02 +0000";
layers = (
{
anchors = (
{
name = bottom;
position = "{88, 0}";
},
{
name = top;
position = "{200, 705}";
}
);
background = {
anchors = (
{
name = bottom;
position = "{87, 0}";
},
{
name = top;
position = "{199, 705}";
}
);
paths = (
{
closed = 1;
nodes = (
"205 611 OFFCURVE",
"252 661 OFFCURVE",
"337 667 CURVE SMOOTH",
"383 670 LINE",
"384 707 LINE",
"353 705 LINE SMOOTH",
"234 698 OFFCURVE",
"167 636 OFFCURVE",
"148 515 CURVE SMOOTH",
"141 473 LINE",
"153 484 LINE",
"46 484 LINE",
"40 448 LINE",
"137 448 LINE",
"66 0 LINE",
"108 0 LINE",
"179 448 LINE",
"325 448 LINE",
"331 484 LINE",
"185 484 LINE",
"190 515 LINE SMOOTH"
);
}
);
};
layerId = "F1F93986-3ED8-4AAE-84C4-CA3EEECDDFA0";
paths = (
{
closed = 1;
nodes = (
"109 0 LINE",
"179 448 LINE",
"326 448 LINE",
"332 484 LINE",
"184 484 LINE",
"190 528 LINE SMOOTH",
"202 616 OFFCURVE",
"254 662 OFFCURVE",
"338 667 CURVE SMOOTH",
"384 670 LINE",
"382 707 LINE",
"334 704 LINE SMOOTH",
"230 697 OFFCURVE",
"164 637 OFFCURVE",
"150 533 CURVE SMOOTH",
"140 461 LINE",
"154 484 LINE",
"47 484 LINE",
"41 448 LINE",
"137 448 LINE",
"67 0 LINE"
);
}
);
width = 306;
},
{
anchors = (
{
name = bottom;
position = "{156, 0}";
},
{
name = top;
position = "{267, 705}";
}
);
background = {
anchors = (
{
name = bottom;
position = "{156, 0}";
},
{
name = top;
position = "{267, 705}";
}
);
paths = (
{
closed = 1;
nodes = (
"346 543 OFFCURVE",
"369 557 OFFCURVE",
"445 562 CURVE SMOOTH",
"492 565 LINE",
"505 712 LINE",
"437 708 LINE SMOOTH",
"247 698 OFFCURVE",
"150 622 OFFCURVE",
"125 464 CURVE SMOOTH",
"121 439 LINE",
"191 494 LINE",
"39 494 LINE",
"15 342 LINE",
"106 342 LINE",
"52 0 LINE",
"260 0 LINE",
"314 342 LINE",
"433 342 LINE",
"457 494 LINE",
"338 494 LINE",
"340 505 LINE SMOOTH"
);
}
);
};
layerId = "4121B50C-FD42-45C5-8FBE-41E76D98F91E";
paths = (
{
closed = 1;
nodes = (
"259 0 LINE",
"314 342 LINE",
"430 342 LINE",
"454 494 LINE",
"332 494 LINE",
"332 498 LINE SMOOTH",
"332 536 OFFCURVE",
"360 558 OFFCURVE",
"436 562 CURVE SMOOTH",
"492 565 LINE",
"503 712 LINE",
"424 709 LINE SMOOTH",
"217 701 OFFCURVE",
"133 616 OFFCURVE",
"124 461 CURVE SMOOTH",
"122 428 LINE",
"173 494 LINE",
"39 494 LINE",
"15 342 LINE",
"107 342 LINE",
"51 0 LINE"
);
}
);
width = 423;
}
);
leftKerningGroup = f;
rightKerningGroup = f;
unicode = 0066;
userData = {
anchors = (
);
b = {
};
com.typemytype.robofont.layerData = {
b = {
anchors = (
);
components = (
);
contours = (
);
lib = {
};
name = f;
unicodes = (
);
width = 696;
};
};
components = (
);
contours = (
);
lib = {
};
name = f;
unicodes = (
);
width = 723;
};
},
{
glyphname = g;
lastChange = "2019-09-04 09:02:37 +0000";
layers = (
{
anchors = (
{
name = bottom;
position = "{250, 19}";
},
{
name = center;
position = "{296, 264}";
},
{
name = ogonek;
position = "{453, 19}";
},
{
name = stroke;
position = "{474, 599}";
},
{
name = top;
position = "{332, 484}";
},
{
name = topright;
position = "{616, 724}";
}
);
background = {
anchors = (
{
name = top;
position = "{326, 484}";
}
);
components = (
{
name = a.ss01;
transform = "{1, 0, 0, 1, 1, 0}";
}
);
};
guideLines = (
{
angle = 61.5044;
position = "{42, -99}";
},
{
angle = 243.435;
position = "{43, -93}";
},
{
angle = 81.0396;
position = "{444, 248}";
}
);
layerId = "F1F93986-3ED8-4AAE-84C4-CA3EEECDDFA0";
paths = (
{
closed = 1;
nodes = (
"358 -188 OFFCURVE",
"427 -127 OFFCURVE",
"447 2 CURVE SMOOTH",
"523 484 LINE",
"481 484 LINE",
"462 362 LINE",
"465 360 LINE",
"444 451 OFFCURVE",
"375 492 OFFCURVE",
"294 492 CURVE SMOOTH",
"150 492 OFFCURVE",
"54 368 OFFCURVE",
"54 219 CURVE SMOOTH",
"54 95 OFFCURVE",
"129 11 OFFCURVE",
"249 11 CURVE SMOOTH",
"329 11 OFFCURVE",
"401 55 OFFCURVE",
"435 139 CURVE",
"428 140 LINE",
"405 0 LINE SMOOTH",
"388 -101 OFFCURVE",
"330 -149 OFFCURVE",
"239 -149 CURVE SMOOTH",
"162 -149 OFFCURVE",
"113 -125 OFFCURVE",
"53 -76 CURVE",
"34 -111 LINE",
"85 -159 OFFCURVE",
"156 -188 OFFCURVE",
"241 -188 CURVE SMOOTH"
);
},
{
closed = 1;
nodes = (
"154 50 OFFCURVE",
"97 111 OFFCURVE",
"97 216 CURVE SMOOTH",
"97 339 OFFCURVE",
"167 453 OFFCURVE",
"292 453 CURVE SMOOTH",
"390 453 OFFCURVE",
"447 392 OFFCURVE",
"447 287 CURVE SMOOTH",
"447 164 OFFCURVE",
"377 50 OFFCURVE",
"251 50 CURVE SMOOTH"
);
}
);
width = 570;
},
{
anchors = (
{
name = bottom;
position = "{250, 19}";
},
{
name = center;
position = "{296, 264}";
},
{
name = ogonek;
position = "{453, 19}";
},
{
name = stroke;
position = "{474, 599}";
},
{
name = top;
position = "{311, 484}";
},
{
name = topright;
position = "{616, 724}";
}
);
background = {
anchors = (
{
name = top;
position = "{354, 484}";
}
);
components = (
{
name = a.ss01;
transform = "{1, 0, 0, 1, 6, 0}";
}
);
};
guideLines = (
{
angle = 260.665;
position = "{413, 405}";
}
);
layerId = "4121B50C-FD42-45C5-8FBE-41E76D98F91E";
paths = (
{
closed = 1;
nodes = (
"440 -192 OFFCURVE",
"536 -112 OFFCURVE",
"561 43 CURVE SMOOTH",
"633 494 LINE",
"428 494 LINE",
"417 426 LINE",
"434 416 LINE",
"405 476 OFFCURVE",
"353 506 OFFCURVE",
"283 506 CURVE SMOOTH",
"124 506 OFFCURVE",
"25 374 OFFCURVE",
"25 230 CURVE SMOOTH",
"25 98 OFFCURVE",
"103 13 OFFCURVE",
"223 13 CURVE SMOOTH",
"285 13 OFFCURVE",
"348 38 OFFCURVE",
"377 93 CURVE",
"369 94 LINE",
"359 38 LINE SMOOTH",
"348 -22 OFFCURVE",
"306 -41 OFFCURVE",
"252 -41 CURVE SMOOTH",
"193 -41 OFFCURVE",
"118 -25 OFFCURVE",
"41 21 CURVE",
"-10 -119 LINE",
"72 -176 OFFCURVE",
"163 -192 OFFCURVE",
"270 -192 CURVE SMOOTH"
);
},
{
closed = 1;
nodes = (
"259 164 OFFCURVE",
"234 194 OFFCURVE",
"234 243 CURVE SMOOTH",
"234 300 OFFCURVE",
"264 355 OFFCURVE",
"321 355 CURVE SMOOTH",
"363 355 OFFCURVE",
"390 324 OFFCURVE",
"390 276 CURVE SMOOTH",
"390 219 OFFCURVE",
"359 164 OFFCURVE",
"303 164 CURVE SMOOTH"
);
}
);
width = 638;
}
);
leftKerningGroup = o;
leftMetricsKey = o;
rightKerningGroup = u;
rightMetricsKey = "=|n";
unicode = 0067;
userData = {
anchors = (
);
b = {
};
com.typemytype.robofont.layerData = {
b = {
anchors = (
);
components = (
);
contours = (
);
lib = {
};
name = g;
unicodes = (
);
width = 1167;
};
};
components = (
);
contours = (
);
lib = {
};
name = g;
unicodes = (
);
width = 1207;
};
},
{
glyphname = h;
lastChange = "2019-08-30 15:23:55 +0000";
layers = (
{
anchors = (
{
name = bottom;
position = "{239, 0}";
},
{
name = center;
position = "{278, 245}";
},
{
name = dot;
position = "{221, 353}";
},
{
name = stroke;
position = "{211, 580}";
},
{
name = top;
position = "{316, 484}";
},
{
name = topright;
position = "{242, 705}";
}
);
background = {
anchors = (
{
name = bottom;
position = "{238, 0}";
},
{
name = center;
position = "{277, 245}";
},
{
name = dot;
position = "{221, 353}";
},
{
name = stroke;
position = "{210, 580}";
},
{
name = top;
position = "{351, 705}";
},
{
name = topright;
position = "{242, 705}";
}
);
paths = (
{
closed = 1;
nodes = (
"251 492 OFFCURVE",
"174 450 OFFCURVE",
"134 366 CURVE",
"146 366 LINE",
"200 705 LINE",
"158 705 LINE",
"46 0 LINE",
"88 0 LINE",
"132 278 LINE SMOOTH",
"149 384 OFFCURVE",
"227 453 OFFCURVE",
"330 453 CURVE SMOOTH",
"422 453 OFFCURVE",
"454 406 OFFCURVE",
"437 304 CURVE SMOOTH",
"389 0 LINE",
"431 0 LINE",
"480 308 LINE SMOOTH",
"499 430 OFFCURVE",
"452 492 OFFCURVE",
"336 492 CURVE SMOOTH"
);
}
);
};
layerId = "F1F93986-3ED8-4AAE-84C4-CA3EEECDDFA0";
paths = (
{
closed = 1;
nodes = (
"89 0 LINE",
"131 266 LINE SMOOTH",
"149 380 OFFCURVE",
"228 453 OFFCURVE",
"330 453 CURVE SMOOTH",
"417 453 OFFCURVE",
"453 402 OFFCURVE",
"437 301 CURVE SMOOTH",
"389 0 LINE",
"431 0 LINE",
"478 295 LINE SMOOTH",
"499 428 OFFCURVE",
"439 492 OFFCURVE",
"332 492 CURVE SMOOTH",
"246 492 OFFCURVE",
"170 444 OFFCURVE",
"136 364 CURVE",
"147 364 LINE",
"201 705 LINE",
"159 705 LINE",
"47 0 LINE"
);
}
);
width = 553;
},
{
anchors = (
{
name = bottom;
position = "{273, 0}";
},
{
name = center;
position = "{312, 250}";
},
{
name = dot;
position = "{419, 350}";
},
{
name = stroke;
position = "{254, 595}";
},
{
name = top;
position = "{384, 716}";
},
{
name = topright;
position = "{343, 705}";
}
);
background = {
anchors = (
{
name = bottom;
position = "{272, 0}";
},
{
name = center;
position = "{311, 250}";
},
{
name = dot;
position = "{418, 350}";
},
{
name = stroke;
position = "{253, 595}";
},
{
name = top;
position = "{382, 705}";
},
{
name = topright;
position = "{342, 705}";
}
);
paths = (
{
closed = 1;
nodes = (
"371 506 OFFCURVE",
"305 472 OFFCURVE",
"262 415 CURVE",
"278 415 LINE",
"324 705 LINE",
"116 705 LINE",
"5 0 LINE",
"213 0 LINE",
"256 272 LINE SMOOTH",
"263 318 OFFCURVE",
"296 348 OFFCURVE",
"338 348 CURVE SMOOTH",
"367 348 OFFCURVE",
"381 330 OFFCURVE",
"373 279 CURVE SMOOTH",
"329 0 LINE",
"537 0 LINE",
"582 287 LINE SMOOTH",
"606 436 OFFCURVE",
"561 506 OFFCURVE",
"444 506 CURVE SMOOTH"
);
}
);
};
layerId = "4121B50C-FD42-45C5-8FBE-41E76D98F91E";
paths = (
{
closed = 1;
nodes = (
"213 0 LINE",
"253 251 LINE SMOOTH",
"263 316 OFFCURVE",
"289 348 OFFCURVE",
"332 348 CURVE SMOOTH",
"368 348 OFFCURVE",
"380 326 OFFCURVE",
"373 279 CURVE SMOOTH",
"329 0 LINE",
"537 0 LINE",
"581 280 LINE SMOOTH",
"605 432 OFFCURVE",
"539 506 OFFCURVE",
"436 506 CURVE SMOOTH",
"361 506 OFFCURVE",
"304 475 OFFCURVE",
"266 412 CURVE",
"276 406 LINE",
"325 705 LINE",
"117 705 LINE",
"5 0 LINE"
);
}
);
width = 618;
}
);
leftKerningGroup = h;
leftMetricsKey = n;
rightKerningGroup = n;
rightMetricsKey = n;
unicode = 0068;
userData = {
anchors = (
);
b = {
};
com.typemytype.robofont.layerData = {
b = {
anchors = (
);
components = (
);
contours = (
);
lib = {
};
name = h;
unicodes = (
);
width = 1148;
};
};
components = (
);
contours = {
};
lib = {
};
name = h;
points = {
};
segmentType = curve;
unicodes = (
);
width = 1195;
x = 137;
y = 113;
};
},
{
glyphname = idotless;
lastChange = "2019-08-30 14:42:08 +0000";
layers = (
{
anchors = (
{
name = bottom;
position = "{67, 0}";
},
{
name = ogonek;
position = "{88, 0}";
},
{
name = top;
position = "{145, 484}";
}
);
background = {
anchors = (
{
name = bottom;
position = "{67, 0}";
},
{
name = ogonek;
position = "{88, 0}";
},
{
name = top;
position = "{144, 484}";
}
);
paths = (
{
closed = 1;
nodes = (
"88 0 LINE",
"165 484 LINE",
"123 484 LINE",
"46 0 LINE"
);
}
);
};
layerId = "F1F93986-3ED8-4AAE-84C4-CA3EEECDDFA0";
paths = (
{
closed = 1;
nodes = (
"88 0 LINE",
"165 484 LINE",
"123 484 LINE",
"46 0 LINE"
);
}
);
width = 212;
},
{
anchors = (
{
name = bottom;
position = "{109, 0}";
},
{
name = ogonek;
position = "{161, 0}";
},
{
name = top;
position = "{185, 484}";
}
);
background = {
anchors = (
{
name = bottom;
position = "{148, 0}";
},
{
name = ogonek;
position = "{200, 0}";
},
{
name = top;
position = "{148, 484}";
}
);
paths = (
{
closed = 1;
nodes = (
"252 0 LINE",
"252 494 LINE",
"44 494 LINE",
"44 0 LINE"
);
}
);
};
layerId = "4121B50C-FD42-45C5-8FBE-41E76D98F91E";
paths = (
{
closed = 1;
nodes = (
"213 0 LINE",
"291 494 LINE",
"83 494 LINE",
"5 0 LINE"
);
}
);
width = 296;
}
);
leftKerningGroup = n;
leftMetricsKey = n;
rightKerningGroup = u;
rightMetricsKey = "=|";
unicode = 0131;
},
{
glyphname = jdotless;
lastChange = "2019-08-30 14:42:49 +0000";
layers = (
{
anchors = (
{
name = bottom;
position = "{70, 0}";
},
{
name = top;
position = "{148, 484}";
}
);
background = {
anchors = (
{
name = bottom;
position = "{70, 0}";
},
{
name = top;
position = "{147, 484}";
}
);
paths = (
{
closed = 1;
nodes = (
"126 484 LINE",
"46 -22 LINE SMOOTH",
"33 -102 OFFCURVE",
"-11 -147 OFFCURVE",
"-80 -152 CURVE SMOOTH",
"-121 -155 LINE",
"-124 -193 LINE",
"-81 -190 LINE SMOOTH",
"10 -184 OFFCURVE",
"72 -124 OFFCURVE",
"88 -21 CURVE SMOOTH",
"168 484 LINE"
);
}
);
};
layerId = "F1F93986-3ED8-4AAE-84C4-CA3EEECDDFA0";
paths = (
{
closed = 1;
nodes = (
"126 484 LINE",
"46 -22 LINE SMOOTH",
"33 -102 OFFCURVE",
"-11 -147 OFFCURVE",
"-80 -152 CURVE SMOOTH",
"-121 -155 LINE",
"-124 -193 LINE",
"-81 -190 LINE SMOOTH",
"10 -184 OFFCURVE",
"72 -124 OFFCURVE",
"88 -21 CURVE SMOOTH",
"168 484 LINE"
);
}
);
width = 215;
},
{
anchors = (
{
name = bottom;
position = "{114, 0}";
},
{
name = top;
position = "{190, 484}";
}
);
background = {
anchors = (
{
name = bottom;
position = "{153, 0}";
},
{
name = top;
position = "{153, 484}";
}
);
paths = (
{
closed = 1;
nodes = (
"50 494 LINE",
"50 8 LINE SMOOTH",
"50 -24 OFFCURVE",
"37 -38 OFFCURVE",
"1 -42 CURVE SMOOTH",
"-49 -48 LINE",
"-35 -193 LINE",
"9 -190 LINE SMOOTH",
"199 -177 OFFCURVE",
"258 -120 OFFCURVE",
"258 39 CURVE SMOOTH",
"258 494 LINE"
);
}
);
};
layerId = "4121B50C-FD42-45C5-8FBE-41E76D98F91E";
paths = (
{
closed = 1;
nodes = (
"89 494 LINE",
"12 8 LINE SMOOTH",
"7 -24 OFFCURVE",
"-8 -38 OFFCURVE",
"-45 -42 CURVE SMOOTH",
"-96 -48 LINE",
"-105 -193 LINE",
"-60 -190 LINE SMOOTH",
"132 -177 OFFCURVE",
"200 -120 OFFCURVE",
"225 39 CURVE SMOOTH",
"297 494 LINE"
);
}
);
width = 303;
}
);
leftKerningGroup = j;
rightKerningGroup = l;
unicode = 0237;
},
{
glyphname = k;
lastChange = "2019-08-30 14:28:02 +0000";
layers = (
{
anchors = (
{
name = bottom;
position = "{196, 0}";
},
{
name = top;
position = "{308, 705}";
}
);
background = {
anchors = (
{
name = bottom;
position = "{195, 0}";
},
{
name = top;
position = "{307, 705}";
}
);
paths = (
{
closed = 1;
nodes = (
"158 267 LINE",
"152 231 LINE",
"478 484 LINE",
"418 484 LINE",
"132 260 LINE",
"130 260 LINE",
"200 705 LINE",
"158 705 LINE",
"46 0 LINE",
"88 0 LINE",
"126 237 LINE",
"128 237 LINE",
"369 0 LINE",
"428 0 LINE"
);
}
);
};
guideLines = (
{
angle = -44.2838;
position = "{291, 134}";
}
);
layerId = "F1F93986-3ED8-4AAE-84C4-CA3EEECDDFA0";
paths = (
{
closed = 1;
nodes = (
"89 0 LINE",
"127 237 LINE",
"129 237 LINE",
"373 0 LINE",
"429 0 LINE",
"156 264 LINE",
"150 225 LINE",
"476 484 LINE",
"416 484 LINE",
"133 260 LINE",
"131 260 LINE",
"201 705 LINE",
"159 705 LINE",
"47 0 LINE"
);
}
);
width = 468;
},
{
anchors = (
{
name = bottom;
position = "{262, 0}";
},
{
name = top;
position = "{373, 705}";
}
);
background = {
anchors = (
{
name = bottom;
position = "{263, 0}";
},
{
name = top;
position = "{374, 705}";
}
);
paths = (
{
closed = 1;
nodes = (
"441 295 LINE",
"431 227 LINE",
"678 494 LINE",
"436 494 LINE",
"263 302 LINE",
"261 302 LINE",
"324 705 LINE",
"116 705 LINE",
"5 0 LINE",
"213 0 LINE",
"244 198 LINE",
"246 198 LINE",
"355 0 LINE",
"602 0 LINE"
);
}
);
};
guideLines = (
{
angle = -60.1372;
position = "{510, 159}";
}
);
layerId = "4121B50C-FD42-45C5-8FBE-41E76D98F91E";
paths = (
{
closed = 1;
nodes = (
"214 0 LINE",
"246 209 LINE",
"248 209 LINE",
"368 0 LINE",
"602 0 LINE",
"431 296 LINE",
"438 227 LINE",
"672 495 LINE",
"433 495 LINE",
"263 302 LINE",
"261 302 LINE",
"325 705 LINE",
"117 705 LINE",
"6 0 LINE"
);
}
);
width = 605;
}
);
leftKerningGroup = h;
leftMetricsKey = l;
rightKerningGroup = k;
unicode = 006B;
userData = {
com.typemytype.robofont.layerData = {
b = {
anchors = (
);
components = (
);
contours = (
{
points = (
{
segmentType = line;
smooth = 0;
x = 318;
y = 536;
},
{
segmentType = line;
smooth = 1;
x = 793;
y = 27;
},
{
smooth = 0;
x = 809;
y = 9;
},
{
smooth = 0;
x = 828;
y = 1;
},
{
segmentType = curve;
smooth = 1;
x = 845;
y = 1;
},
{
smooth = 0;
x = 883;
y = 1;
},
{
smooth = 0;
x = 922;
y = 33;
},
{
segmentType = curve;
smooth = 1;
x = 922;
y = 71;
},
{
smooth = 0;
x = 922;
y = 84;
},
{
smooth = 0;
x = 918;
y = 99;
},
{
segmentType = curve;
smooth = 1;
x = 906;
y = 112;
},
{
segmentType = line;
smooth = 0;
x = 492;
y = 554;
},
{
segmentType = line;
smooth = 1;
x = 873;
y = 889;
},
{
smooth = 0;
x = 888;
y = 902;
},
{
smooth = 0;
x = 894;
y = 918;
},
{
segmentType = curve;
smooth = 1;
x = 894;
y = 933;
},
{
smooth = 0;
x = 894;
y = 968;
},
{
smooth = 0;
x = 858;
y = 1002;
},
{
segmentType = curve;
smooth = 1;
x = 821;
y = 1002;
},
{
smooth = 0;
x = 802;
y = 1002;
},
{
smooth = 0;
x = 785;
y = 994;
},
{
segmentType = curve;
smooth = 0;
x = 770;
y = 979;
},
{
segmentType = line;
smooth = 0;
x = 318;
y = 574;
}
);
}
);
lib = {
};
name = k;
unicodes = (
);
width = 984;
};
};
};
},
{
glyphname = kgreenlandic;
lastChange = "2019-08-30 14:16:40 +0000";
layers = (
{
anchors = (
{
name = bottom;
position = "{195, 0}";
},
{
name = top;
position = "{272, 484}";
}
);
background = {
anchors = (
{
name = bottom;
position = "{195, 0}";
},
{
name = top;
position = "{272, 484}";
}
);
paths = (
{
closed = 1;
nodes = (
"158 267 LINE",
"152 231 LINE",
"478 484 LINE",
"418 484 LINE",
"132 260 LINE",
"130 260 LINE",
"166 492 LINE",
"124 492 LINE",
"46 0 LINE",
"88 0 LINE",
"126 237 LINE",
"128 237 LINE",
"369 0 LINE",
"428 0 LINE"
);
}
);
};
layerId = "F1F93986-3ED8-4AAE-84C4-CA3EEECDDFA0";
paths = (
{
closed = 1;
nodes = (
"158 267 LINE",
"152 231 LINE",
"478 484 LINE",
"418 484 LINE",
"132 260 LINE",
"130 260 LINE",
"166 492 LINE",
"124 492 LINE",
"46 0 LINE",
"88 0 LINE",
"126 237 LINE",
"128 237 LINE",
"369 0 LINE",
"428 0 LINE"
);
}
);
width = 468;
},
{
anchors = (
{
name = bottom;
position = "{263, 0}";
},
{
name = top;
position = "{339, 484}";
}
);
background = {
anchors = (
{
name = bottom;
position = "{302, 0}";
},
{
name = top;
position = "{302, 484}";
}
);
paths = (
{
closed = 1;
nodes = (
"436 295 LINE",
"436 227 LINE",
"639 493 LINE",
"395 493 LINE",
"254 302 LINE",
"252 302 LINE",
"252 494 LINE",
"44 494 LINE",
"44 0 LINE",
"252 0 LINE",
"252 198 LINE",
"254 198 LINE",
"392 0 LINE",
"641 0 LINE"
);
}
);
};
layerId = "4121B50C-FD42-45C5-8FBE-41E76D98F91E";
paths = (
{
closed = 1;
nodes = (
"441 295 LINE",
"431 227 LINE",
"678 494 LINE",
"436 494 LINE",
"263 302 LINE",
"261 302 LINE",
"291 494 LINE",
"83 494 LINE",
"5 0 LINE",
"213 0 LINE",
"244 198 LINE",
"246 198 LINE",
"355 0 LINE",
"602 0 LINE"
);
}
);
width = 605;
}
);
leftKerningGroup = n;
leftMetricsKey = n;
rightKerningGroup = k;
rightMetricsKey = k;
unicode = 0138;
userData = {
com.typemytype.robofont.layerData = {
b = {
anchors = (
);
components = (
);
contours = (
);
lib = {
};
name = kgreenlandic;
unicodes = (
);
width = 1047;
};
};
};
},
{
glyphname = l;
lastChange = "2019-08-30 14:28:02 +0000";
layers = (
{
anchors = (
{
name = bottom;
position = "{143, 0}";
},
{
name = center;
position = "{125, 357}";
},
{
name = dot;
position = "{251, 353}";
},
{
name = top;
position = "{180, 705}";
},
{
name = topright;
position = "{250, 705}";
}
);
background = {
anchors = (
{
name = bottom;
position = "{142, 0}";
},
{
name = center;
position = "{124, 357}";
},
{
name = dot;
position = "{251, 353}";
},
{
name = top;
position = "{179, 705}";
},
{
name = topright;
position = "{250, 705}";
}
);
paths = (
{
closed = 1;
nodes = (
"191 -8 OFFCURVE",
"207 -6 OFFCURVE",
"226 -2 CURVE",
"235 37 LINE",
"220 33 OFFCURVE",
"204 31 OFFCURVE",
"187 31 CURVE SMOOTH",
"125 31 OFFCURVE",
"100 72 OFFCURVE",
"113 153 CURVE SMOOTH",
"200 705 LINE",
"158 705 LINE",
"69 146 LINE SMOOTH",
"54 48 OFFCURVE",
"93 -8 OFFCURVE",
"177 -8 CURVE SMOOTH"
);
}
);
};
layerId = "F1F93986-3ED8-4AAE-84C4-CA3EEECDDFA0";
paths = (
{
closed = 1;
nodes = (
"191 -8 OFFCURVE",
"207 -6 OFFCURVE",
"226 -2 CURVE",
"235 36 LINE",
"218 32 OFFCURVE",
"199 30 OFFCURVE",
"182 30 CURVE SMOOTH",
"122 30 OFFCURVE",
"99 73 OFFCURVE",
"113 153 CURVE SMOOTH",
"208 705 LINE",
"166 705 LINE",
"71 153 LINE SMOOTH",
"54 55 OFFCURVE",
"94 -8 OFFCURVE",
"177 -8 CURVE SMOOTH"
);
}
);
width = 275;
},
{
anchors = (
{
name = bottom;
position = "{164, 0}";
},
{
name = center;
position = "{165, 357}";
},
{
name = dot;
position = "{418, 350}";
},
{
name = top;
position = "{220, 705}";
},
{
name = topright;
position = "{354, 705}";
}
);
background = {
anchors = (
{
name = bottom;
position = "{164, 0}";
},
{
name = center;
position = "{165, 357}";
},
{
name = dot;
position = "{418, 350}";
},
{
name = top;
position = "{220, 705}";
},
{
name = topright;
position = "{354, 705}";
}
);
paths = (
{
closed = 1;
nodes = (
"247 -12 OFFCURVE",
"278 -8 OFFCURVE",
"309 1 CURVE",
"335 158 LINE",
"322 155 OFFCURVE",
"308 154 OFFCURVE",
"295 154 CURVE SMOOTH",
"255 154 OFFCURVE",
"241 176 OFFCURVE",
"246 212 CURVE SMOOTH",
"324 705 LINE",
"116 705 LINE",
"38 207 LINE SMOOTH",
"14 59 OFFCURVE",
"63 -12 OFFCURVE",
"212 -12 CURVE SMOOTH"
);
}
);
};
layerId = "4121B50C-FD42-45C5-8FBE-41E76D98F91E";
paths = (
{
closed = 1;
nodes = (
"257 -12 OFFCURVE",
"279 -8 OFFCURVE",
"309 1 CURVE",
"335 157 LINE",
"322 154 OFFCURVE",
"308 153 OFFCURVE",
"296 153 CURVE SMOOTH",
"257 153 OFFCURVE",
"242 185 OFFCURVE",
"248 221 CURVE SMOOTH",
"330 705 LINE",
"122 705 LINE",
"40 222 LINE SMOOTH",
"15 74 OFFCURVE",
"74 -12 OFFCURVE",
"222 -12 CURVE SMOOTH"
);
}
);
width = 364;
}
);
leftKerningGroup = h;
rightKerningGroup = ltail;
unicode = 006C;
userData = {
com.typemytype.robofont.layerData = {
b = {
anchors = (
);
components = (
);
contours = (
);
lib = {
};
name = l;
unicodes = (
);
width = 511;
};
};
};
},
{
glyphname = m;
lastChange = "2019-08-30 14:28:02 +0000";
layers = (
{
anchors = (
{
name = bottom;
position = "{420, 0}";
},
{
name = top;
position = "{420, 484}";
}
);
background = {
anchors = (
{
name = bottom;
position = "{381, 0}";
},
{
name = top;
position = "{458, 484}";
}
);
paths = (
{
closed = 1;
nodes = (
"546 492 OFFCURVE",
"472 442 OFFCURVE",
"439 365 CURVE",
"454 365 LINE",
"453 450 OFFCURVE",
"408 492 OFFCURVE",
"321 492 CURVE SMOOTH",
"240 492 OFFCURVE",
"173 448 OFFCURVE",
"136 366 CURVE",
"147 366 LINE",
"166 484 LINE",
"125 484 LINE",
"48 0 LINE",
"90 0 LINE",
"134 278 LINE SMOOTH",
"151 384 OFFCURVE",
"221 453 OFFCURVE",
"313 453 CURVE SMOOTH",
"398 453 OFFCURVE",
"425 406 OFFCURVE",
"408 304 CURVE SMOOTH",
"360 0 LINE",
"402 0 LINE",
"446 278 LINE SMOOTH",
"463 384 OFFCURVE",
"533 453 OFFCURVE",
"625 453 CURVE SMOOTH",
"710 453 OFFCURVE",
"737 406 OFFCURVE",
"720 304 CURVE SMOOTH",
"672 0 LINE",
"714 0 LINE",
"763 308 LINE SMOOTH",
"783 431 OFFCURVE",
"738 492 OFFCURVE",
"633 492 CURVE SMOOTH"
);
}
);
};
layerId = "F1F93986-3ED8-4AAE-84C4-CA3EEECDDFA0";
paths = (
{
closed = 1;
nodes = (
"91 0 LINE",
"133 264 LINE SMOOTH",
"152 382 OFFCURVE",
"217 453 OFFCURVE",
"312 453 CURVE SMOOTH",
"393 453 OFFCURVE",
"424 403 OFFCURVE",
"408 301 CURVE SMOOTH",
"360 0 LINE",
"402 0 LINE",
"444 264 LINE SMOOTH",
"463 382 OFFCURVE",
"528 453 OFFCURVE",
"623 453 CURVE SMOOTH",
"704 453 OFFCURVE",
"735 403 OFFCURVE",
"719 301 CURVE SMOOTH",
"672 0 LINE",
"714 0 LINE",
"761 295 LINE SMOOTH",
"782 429 OFFCURVE",
"726 492 OFFCURVE",
"625 492 CURVE SMOOTH",
"535 492 OFFCURVE",
"470 443 OFFCURVE",
"440 364 CURVE",
"452 363 LINE",
"445 447 OFFCURVE",
"393 492 OFFCURVE",
"314 492 CURVE SMOOTH",
"233 492 OFFCURVE",
"171 445 OFFCURVE",
"137 364 CURVE",
"147 363 LINE",
"167 484 LINE",
"126 484 LINE",
"49 0 LINE"
);
}
);
width = 838;
},
{
anchors = (
{
name = bottom;
position = "{418, 0}";
},
{
name = top;
position = "{498, 484}";
}
);
background = {
anchors = (
{
name = bottom;
position = "{420, 0}";
},
{
name = top;
position = "{496, 484}";
}
);
paths = (
{
closed = 1;
nodes = (
"670 506 OFFCURVE",
"599 468 OFFCURVE",
"556 405 CURVE",
"570 405 LINE",
"556 473 OFFCURVE",
"507 506 OFFCURVE",
"439 506 CURVE SMOOTH",
"364 506 OFFCURVE",
"301 468 OFFCURVE",
"264 415 CURVE",
"275 415 LINE",
"288 494 LINE",
"85 494 LINE",
"7 0 LINE",
"215 0 LINE",
"257 264 LINE SMOOTH",
"265 320 OFFCURVE",
"290 348 OFFCURVE",
"329 348 CURVE SMOOTH",
"359 348 OFFCURVE",
"368 330 OFFCURVE",
"360 282 CURVE SMOOTH",
"316 0 LINE",
"524 0 LINE",
"566 264 LINE SMOOTH",
"574 320 OFFCURVE",
"599 348 OFFCURVE",
"638 348 CURVE SMOOTH",
"668 348 OFFCURVE",
"677 330 OFFCURVE",
"669 282 CURVE SMOOTH",
"625 0 LINE",
"833 0 LINE",
"878 287 LINE SMOOTH",
"902 437 OFFCURVE",
"859 506 OFFCURVE",
"743 506 CURVE SMOOTH"
);
}
);
};
layerId = "4121B50C-FD42-45C5-8FBE-41E76D98F91E";
paths = (
{
closed = 1;
nodes = (
"215 0 LINE",
"254 244 LINE SMOOTH",
"266 317 OFFCURVE",
"284 348 OFFCURVE",
"328 348 CURVE SMOOTH",
"357 348 OFFCURVE",
"368 333 OFFCURVE",
"360 282 CURVE SMOOTH",
"317 0 LINE",
"524 0 LINE",
"562 244 LINE SMOOTH",
"573 317 OFFCURVE",
"592 348 OFFCURVE",
"636 348 CURVE SMOOTH",
"665 348 OFFCURVE",
"677 333 OFFCURVE",
"669 282 CURVE SMOOTH",
"625 0 LINE",
"833 0 LINE",
"877 280 LINE SMOOTH",
"902 440 OFFCURVE",
"831 506 OFFCURVE",
"730 506 CURVE SMOOTH",
"657 506 OFFCURVE",
"595 476 OFFCURVE",
"558 411 CURVE",
"572 400 LINE",
"544 476 OFFCURVE",
"480 506 OFFCURVE",
"430 506 CURVE SMOOTH",
"360 506 OFFCURVE",
"312 480 OFFCURVE",
"266 410 CURVE",
"274 406 LINE",
"288 494 LINE",
"85 494 LINE",
"7 0 LINE"
);
}
);
width = 916;
}
);
leftKerningGroup = n;
leftMetricsKey = "=n+2";
rightKerningGroup = n;
rightMetricsKey = "=n+2";
unicode = 006D;
userData = {
anchors = (
);
b = {
};
com.typemytype.robofont.layerData = {
b = {
anchors = (
);
components = (
);
contours = (
);
lib = {
};
name = m;
unicodes = (
);
width = 1838;
};
};
components = (
);
contours = (
);
lib = {
};
name = m;
unicodes = (
);
width = 1877;
};
},
{
glyphname = n;
lastChange = "2019-09-04 08:11:58 +0000";
layers = (
{
anchors = (
{
name = bottom;
position = "{239, 0}";
},
{
name = top;
position = "{316, 484}";
}
);
background = {
anchors = (
{
name = bottom;
position = "{238, 0}";
},
{
name = top;
position = "{315, 484}";
}
);
paths = (
{
closed = 1;
nodes = (
"251 492 OFFCURVE",
"174 450 OFFCURVE",
"134 366 CURVE",
"145 366 LINE",
"164 484 LINE",
"123 484 LINE",
"46 0 LINE",
"88 0 LINE",
"132 278 LINE SMOOTH",
"149 384 OFFCURVE",
"227 453 OFFCURVE",
"330 453 CURVE SMOOTH",
"422 453 OFFCURVE",
"454 406 OFFCURVE",
"437 304 CURVE SMOOTH",
"389 0 LINE",
"431 0 LINE",
"480 308 LINE SMOOTH",
"500 432 OFFCURVE",
"452 492 OFFCURVE",
"336 492 CURVE SMOOTH"
);
}
);
};
layerId = "F1F93986-3ED8-4AAE-84C4-CA3EEECDDFA0";
paths = (
{
closed = 1;
nodes = (
"89 0 LINE",
"131 266 LINE SMOOTH",
"149 380 OFFCURVE",
"228 453 OFFCURVE",
"330 453 CURVE SMOOTH",
"417 453 OFFCURVE",
"453 402 OFFCURVE",
"437 301 CURVE SMOOTH",
"389 0 LINE",
"431 0 LINE",
"478 295 LINE SMOOTH",
"499 428 OFFCURVE",
"439 492 OFFCURVE",
"332 492 CURVE SMOOTH",
"246 492 OFFCURVE",
"170 444 OFFCURVE",
"136 364 CURVE",
"146 364 LINE",
"165 484 LINE",
"124 484 LINE",
"47 0 LINE"
);
}
);
width = 553;
},
{
anchors = (
{
name = bottom;
position = "{272, 0}";
},
{
name = top;
position = "{348, 484}";
}
);
background = {
anchors = (
{
name = bottom;
position = "{272, 0}";
},
{
name = top;
position = "{348, 484}";
}
);
paths = (
{
closed = 1;
nodes = (
"371 506 OFFCURVE",
"305 472 OFFCURVE",
"262 415 CURVE",
"273 415 LINE",
"286 494 LINE",
"83 494 LINE",
"5 0 LINE",
"213 0 LINE",
"256 272 LINE SMOOTH",
"263 318 OFFCURVE",
"296 348 OFFCURVE",
"338 348 CURVE SMOOTH",
"367 348 OFFCURVE",
"381 330 OFFCURVE",
"373 279 CURVE SMOOTH",
"329 0 LINE",
"537 0 LINE",
"582 287 LINE SMOOTH",
"606 436 OFFCURVE",
"561 506 OFFCURVE",
"444 506 CURVE SMOOTH"
);
}
);
};
layerId = "4121B50C-FD42-45C5-8FBE-41E76D98F91E";
paths = (
{
closed = 1;
nodes = (
"213 0 LINE",
"253 251 LINE SMOOTH",
"263 316 OFFCURVE",
"289 348 OFFCURVE",
"332 348 CURVE SMOOTH",
"368 348 OFFCURVE",
"380 326 OFFCURVE",
"373 279 CURVE SMOOTH",
"329 0 LINE",
"537 0 LINE",
"581 280 LINE SMOOTH",
"605 432 OFFCURVE",
"539 506 OFFCURVE",
"436 506 CURVE SMOOTH",
"361 506 OFFCURVE",
"304 475 OFFCURVE",
"266 412 CURVE",
"272 406 LINE",
"286 494 LINE",
"83 494 LINE",
"5 0 LINE"
);
}
);
width = 618;
}
);
leftKerningGroup = n;
rightKerningGroup = n;
unicode = 006E;
userData = {
anchors = (
);
b = {
};
com.typemytype.robofont.layerData = {
b = {
anchors = (
);
components = (
);
contours = (
);
lib = {
};
name = n;
unicodes = (
);
width = 1152;
};
};
components = (
);
contours = {
};
lib = {
};
name = n;
points = {
};
segmentType = curve;
unicodes = (
);
width = 1195;
x = 137;
y = 113;
};
},
{
glyphname = eng;
lastChange = "2019-08-30 14:16:40 +0000";
layers = (
{
background = {
paths = (
{
closed = 1;
nodes = (
"480 308 LINE SMOOTH",
"500 432 OFFCURVE",
"452 492 OFFCURVE",
"336 492 CURVE SMOOTH",
"251 492 OFFCURVE",
"174 450 OFFCURVE",
"134 366 CURVE",
"145 366 LINE",
"164 484 LINE",
"123 484 LINE",
"46 0 LINE",
"88 0 LINE",
"132 278 LINE SMOOTH",
"149 384 OFFCURVE",
"227 453 OFFCURVE",
"330 453 CURVE SMOOTH",
"422 453 OFFCURVE",
"454 406 OFFCURVE",
"437 304 CURVE SMOOTH",
"386 -22 LINE SMOOTH",
"373 -102 OFFCURVE",
"329 -147 OFFCURVE",
"260 -152 CURVE SMOOTH",
"219 -155 LINE",
"216 -193 LINE",
"259 -190 LINE SMOOTH",
"350 -184 OFFCURVE",
"412 -124 OFFCURVE",
"428 -21 CURVE SMOOTH"
);
}
);
};
layerId = "F1F93986-3ED8-4AAE-84C4-CA3EEECDDFA0";
paths = (
{
closed = 1;
nodes = (
"480 308 LINE SMOOTH",
"500 432 OFFCURVE",
"452 492 OFFCURVE",
"336 492 CURVE SMOOTH",
"251 492 OFFCURVE",
"174 450 OFFCURVE",
"134 366 CURVE",
"145 366 LINE",
"164 484 LINE",
"123 484 LINE",
"46 0 LINE",
"88 0 LINE",
"132 278 LINE SMOOTH",
"149 384 OFFCURVE",
"227 453 OFFCURVE",
"330 453 CURVE SMOOTH",
"422 453 OFFCURVE",
"454 406 OFFCURVE",
"437 304 CURVE SMOOTH",
"386 -22 LINE SMOOTH",
"373 -102 OFFCURVE",
"329 -147 OFFCURVE",
"260 -152 CURVE SMOOTH",
"219 -155 LINE",
"216 -193 LINE",
"259 -190 LINE SMOOTH",
"350 -184 OFFCURVE",
"412 -124 OFFCURVE",
"428 -21 CURVE SMOOTH"
);
}
);
width = 553;
},
{
background = {
paths = (
{
closed = 1;
nodes = (
"330 506 OFFCURVE",
"269 472 OFFCURVE",
"236 415 CURVE",
"247 415 LINE",
"247 494 LINE",
"44 494 LINE",
"44 0 LINE",
"252 0 LINE",
"252 272 LINE SMOOTH",
"252 318 OFFCURVE",
"280 348 OFFCURVE",
"322 348 CURVE SMOOTH",
"351 348 OFFCURVE",
"368 330 OFFCURVE",
"368 279 CURVE SMOOTH",
"368 0 LINE",
"576 0 LINE",
"576 287 LINE SMOOTH",
"576 436 OFFCURVE",
"520 506 OFFCURVE",
"403 506 CURVE SMOOTH"
);
}
);
};
layerId = "4121B50C-FD42-45C5-8FBE-41E76D98F91E";
paths = (
{
closed = 1;
nodes = (
"582 287 LINE SMOOTH",
"606 436 OFFCURVE",
"561 506 OFFCURVE",
"444 506 CURVE SMOOTH",
"371 506 OFFCURVE",
"305 472 OFFCURVE",
"262 415 CURVE",
"273 415 LINE",
"286 494 LINE",
"83 494 LINE",
"5 0 LINE",
"213 0 LINE",
"256 272 LINE SMOOTH",
"263 318 OFFCURVE",
"296 348 OFFCURVE",
"338 348 CURVE SMOOTH",
"367 348 OFFCURVE",
"381 330 OFFCURVE",
"373 279 CURVE SMOOTH",
"330 8 LINE SMOOTH",
"325 -24 OFFCURVE",
"310 -38 OFFCURVE",
"273 -42 CURVE SMOOTH",
"222 -48 LINE",
"213 -193 LINE",
"258 -190 LINE SMOOTH",
"450 -177 OFFCURVE",
"518 -120 OFFCURVE",
"543 39 CURVE SMOOTH"
);
}
);
width = 618;
}
);
leftKerningGroup = n;
leftMetricsKey = n;
widthMetricsKey = n;
rightKerningGroup = n;
unicode = 014B;
},
{
glyphname = o;
lastChange = "2019-08-30 15:58:56 +0000";
layers = (
{
anchors = (
{
name = bottom;
position = "{233, 0}";
},
{
name = center;
position = "{272, 242}";
},
{
name = ogonek;
position = "{292, 0}";
},
{
name = top;
position = "{310, 484}";
},
{
name = topright;
position = "{356, 484}";
}
);
background = {
anchors = (
{
name = bottom;
position = "{230, 0}";
},
{
name = center;
position = "{269, 242}";
},
{
name = ogonek;
position = "{289, 0}";
},
{
name = top;
position = "{307, 484}";
},
{
name = topright;
position = "{353, 484}";
}
);
paths = (
{
closed = 1;
nodes = (
"361 -8 OFFCURVE",
"461 90 OFFCURVE",
"485 242 CURVE SMOOTH",
"509 394 OFFCURVE",
"440 492 OFFCURVE",
"308 492 CURVE SMOOTH",
"176 492 OFFCURVE",
"77 394 OFFCURVE",
"53 242 CURVE SMOOTH",
"29 90 OFFCURVE",
"97 -8 OFFCURVE",
"229 -8 CURVE SMOOTH"
);
},
{
closed = 1;
nodes = (
"129 31 OFFCURVE",
"75 109 OFFCURVE",
"96 242 CURVE SMOOTH",
"117 375 OFFCURVE",
"196 453 OFFCURVE",
"302 453 CURVE SMOOTH",
"408 453 OFFCURVE",
"463 375 OFFCURVE",
"442 242 CURVE SMOOTH",
"421 109 OFFCURVE",
"341 31 OFFCURVE",
"235 31 CURVE SMOOTH"
);
}
);
};
layerId = "F1F93986-3ED8-4AAE-84C4-CA3EEECDDFA0";
paths = (
{
closed = 1;
nodes = (
"402 -8 OFFCURVE",
"487 129 OFFCURVE",
"487 284 CURVE SMOOTH",
"487 414 OFFCURVE",
"412 492 OFFCURVE",
"293 492 CURVE SMOOTH",
"136 492 OFFCURVE",
"51 355 OFFCURVE",
"51 200 CURVE SMOOTH",
"51 70 OFFCURVE",
"126 -8 OFFCURVE",
"245 -8 CURVE SMOOTH"
);
},
{
closed = 1;
nodes = (
"152 31 OFFCURVE",
"94 88 OFFCURVE",
"94 197 CURVE SMOOTH",
"94 335 OFFCURVE",
"163 453 OFFCURVE",
"292 453 CURVE SMOOTH",
"386 453 OFFCURVE",
"444 396 OFFCURVE",
"444 287 CURVE SMOOTH",
"444 149 OFFCURVE",
"375 31 OFFCURVE",
"246 31 CURVE SMOOTH"
);
}
);
width = 538;
},
{
anchors = (
{
name = bottom;
position = "{268, 0}";
},
{
name = center;
position = "{307, 247}";
},
{
name = ogonek;
position = "{327, 0}";
},
{
name = top;
position = "{344, 484}";
},
{
name = topright;
position = "{416, 484}";
}
);
background = {
anchors = (
{
name = bottom;
position = "{269, 0}";
},
{
name = center;
position = "{308, 247}";
},
{
name = ogonek;
position = "{328, 0}";
},
{
name = top;
position = "{345, 484}";
},
{
name = topright;
position = "{417, 484}";
}
);
paths = (
{
closed = 1;
nodes = (
"438 -12 OFFCURVE",
"566 86 OFFCURVE",
"592 247 CURVE SMOOTH",
"617 408 OFFCURVE",
"520 506 OFFCURVE",
"349 506 CURVE SMOOTH",
"178 506 OFFCURVE",
"49 408 OFFCURVE",
"24 247 CURVE SMOOTH",
"-2 86 OFFCURVE",
"96 -12 OFFCURVE",
"267 -12 CURVE SMOOTH"
);
},
{
closed = 1;
nodes = (
"248 140 OFFCURVE",
"220 168 OFFCURVE",
"233 247 CURVE SMOOTH",
"245 326 OFFCURVE",
"282 354 OFFCURVE",
"325 354 CURVE SMOOTH",
"368 354 OFFCURVE",
"395 326 OFFCURVE",
"383 247 CURVE SMOOTH",
"370 168 OFFCURVE",
"334 140 OFFCURVE",
"291 140 CURVE SMOOTH"
);
}
);
};
layerId = "4121B50C-FD42-45C5-8FBE-41E76D98F91E";
paths = (
{
closed = 1;
nodes = (
"464 -12 OFFCURVE",
"591 98 OFFCURVE",
"591 268 CURVE SMOOTH",
"591 411 OFFCURVE",
"493 506 OFFCURVE",
"324 506 CURVE SMOOTH",
"152 506 OFFCURVE",
"25 396 OFFCURVE",
"25 226 CURVE SMOOTH",
"25 83 OFFCURVE",
"123 -12 OFFCURVE",
"292 -12 CURVE SMOOTH"
);
},
{
closed = 1;
nodes = (
"254 140 OFFCURVE",
"233 168 OFFCURVE",
"233 219 CURVE SMOOTH",
"233 301 OFFCURVE",
"263 354 OFFCURVE",
"316 354 CURVE SMOOTH",
"362 354 OFFCURVE",
"383 326 OFFCURVE",
"383 275 CURVE SMOOTH",
"383 193 OFFCURVE",
"353 140 OFFCURVE",
"300 140 CURVE SMOOTH"
);
}
);
width = 616;
}
);
leftKerningGroup = o;
rightKerningGroup = o;
unicode = 006F;
userData = {
anchors = (
);
b = {
};
com.typemytype.robofont.guides = (
);
com.typemytype.robofont.layerData = {
b = {
anchors = (
);
components = (
);
contours = (
);
lib = {
};
name = o;
unicodes = (
);
width = 1144;
};
};
components = (
);
contours = (
);
lib = {
};
name = o;
unicodes = (
);
width = 1199;
};
},
{
glyphname = oe;
lastChange = "2019-08-30 14:16:40 +0000";
layers = (
{
anchors = (
{
name = bottom;
position = "{425, 0}";
},
{
name = top;
position = "{502, 484}";
}
);
background = {
anchors = (
{
name = bottom;
position = "{425, 0}";
},
{
name = top;
position = "{502, 484}";
}
);
paths = (
{
closed = 1;
nodes = (
"332 -8 OFFCURVE",
"416 55 OFFCURVE",
"458 160 CURVE",
"440 160 LINE",
"447 50 OFFCURVE",
"517 -8 OFFCURVE",
"633 -8 CURVE SMOOTH",
"701 -8 OFFCURVE",
"774 18 OFFCURVE",
"821 60 CURVE",
"807 96 LINE",
"748 52 OFFCURVE",
"695 33 OFFCURVE",
"636 33 CURVE SMOOTH",
"518 33 OFFCURVE",
"465 109 OFFCURVE",
"485 240 CURVE SMOOTH",
"486 246 LINE SMOOTH",
"506 373 OFFCURVE",
"587 453 OFFCURVE",
"694 453 CURVE SMOOTH",
"798 453 OFFCURVE",
"840 382 OFFCURVE",
"821 262 CURVE",
"840 275 LINE",
"471 275 LINE",
"465 237 LINE",
"857 237 LINE",
"861 263 LINE SMOOTH",
"884 406 OFFCURVE",
"825 492 OFFCURVE",
"704 492 CURVE SMOOTH",
"595 492 OFFCURVE",
"509 429 OFFCURVE",
"466 321 CURVE",
"485 321 LINE",
"477 428 OFFCURVE",
"412 492 OFFCURVE",
"308 492 CURVE SMOOTH",
"176 492 OFFCURVE",
"77 394 OFFCURVE",
"53 242 CURVE SMOOTH",
"29 90 OFFCURVE",
"97 -8 OFFCURVE",
"229 -8 CURVE SMOOTH"
);
},
{
closed = 1;
nodes = (
"129 31 OFFCURVE",
"75 109 OFFCURVE",
"96 242 CURVE SMOOTH",
"117 375 OFFCURVE",
"196 453 OFFCURVE",
"302 453 CURVE SMOOTH",
"408 453 OFFCURVE",
"463 375 OFFCURVE",
"442 242 CURVE SMOOTH",
"421 109 OFFCURVE",
"341 31 OFFCURVE",
"235 31 CURVE SMOOTH"
);
}
);
};
layerId = "F1F93986-3ED8-4AAE-84C4-CA3EEECDDFA0";
paths = (
{
closed = 1;
nodes = (
"332 -8 OFFCURVE",
"416 55 OFFCURVE",
"458 160 CURVE",
"440 160 LINE",
"447 50 OFFCURVE",
"517 -8 OFFCURVE",
"633 -8 CURVE SMOOTH",
"701 -8 OFFCURVE",
"774 18 OFFCURVE",
"821 60 CURVE",
"807 96 LINE",
"748 52 OFFCURVE",
"695 33 OFFCURVE",
"636 33 CURVE SMOOTH",
"518 33 OFFCURVE",
"465 109 OFFCURVE",
"485 240 CURVE SMOOTH",
"486 246 LINE SMOOTH",
"506 373 OFFCURVE",
"587 453 OFFCURVE",
"694 453 CURVE SMOOTH",
"798 453 OFFCURVE",
"840 382 OFFCURVE",
"821 262 CURVE",
"840 275 LINE",
"471 275 LINE",
"465 237 LINE",
"857 237 LINE",
"861 263 LINE SMOOTH",
"884 406 OFFCURVE",
"825 492 OFFCURVE",
"704 492 CURVE SMOOTH",
"595 492 OFFCURVE",
"509 429 OFFCURVE",
"466 321 CURVE",
"485 321 LINE",
"477 428 OFFCURVE",
"412 492 OFFCURVE",
"308 492 CURVE SMOOTH",
"176 492 OFFCURVE",
"77 394 OFFCURVE",
"53 242 CURVE SMOOTH",
"29 90 OFFCURVE",
"97 -8 OFFCURVE",
"229 -8 CURVE SMOOTH"
);
},
{
closed = 1;
nodes = (
"129 31 OFFCURVE",
"75 109 OFFCURVE",
"96 242 CURVE SMOOTH",
"117 375 OFFCURVE",
"196 453 OFFCURVE",
"302 453 CURVE SMOOTH",
"408 453 OFFCURVE",
"463 375 OFFCURVE",
"442 242 CURVE SMOOTH",
"421 109 OFFCURVE",
"341 31 OFFCURVE",
"235 31 CURVE SMOOTH"
);
}
);
width = 906;
},
{
anchors = (
{
name = bottom;
position = "{445, 0}";
},
{
name = top;
position = "{521, 484}";
}
);
background = {
paths = (
{
closed = 1;
nodes = (
"479 -12 OFFCURVE",
"592 86 OFFCURVE",
"592 247 CURVE SMOOTH",
"592 408 OFFCURVE",
"479 506 OFFCURVE",
"308 506 CURVE SMOOTH",
"137 506 OFFCURVE",
"24 408 OFFCURVE",
"24 247 CURVE SMOOTH",
"24 86 OFFCURVE",
"137 -12 OFFCURVE",
"308 -12 CURVE SMOOTH"
);
},
{
closed = 1;
nodes = (
"265 140 OFFCURVE",
"233 168 OFFCURVE",
"233 247 CURVE SMOOTH",
"233 326 OFFCURVE",
"265 354 OFFCURVE",
"308 354 CURVE SMOOTH",
"351 354 OFFCURVE",
"383 326 OFFCURVE",
"383 247 CURVE SMOOTH",
"383 168 OFFCURVE",
"351 140 OFFCURVE",
"308 140 CURVE SMOOTH"
);
}
);
};
color = 11;
layerId = "4121B50C-FD42-45C5-8FBE-41E76D98F91E";
paths = (
{
closed = 1;
nodes = (
"349 -12 OFFCURVE",
"422 18 OFFCURVE",
"478 72 CURVE",
"441 72 LINE",
"481 19 OFFCURVE",
"550 -12 OFFCURVE",
"648 -12 CURVE SMOOTH",
"721 -12 OFFCURVE",
"804 10 OFFCURVE",
"864 45 CURVE",
"835 181 LINE",
"790 155 OFFCURVE",
"729 140 OFFCURVE",
"678 140 CURVE SMOOTH",
"597 140 OFFCURVE",
"573 168 OFFCURVE",
"587 255 CURVE SMOOTH",
"589 264 LINE SMOOTH",
"600 338 OFFCURVE",
"630 370 OFFCURVE",
"679 370 CURVE SMOOTH",
"724 370 OFFCURVE",
"742 342 OFFCURVE",
"736 286 CURVE",
"757 300 LINE",
"574 300 LINE",
"558 199 LINE",
"896 199 LINE",
"904 246 LINE SMOOTH",
"929 404 OFFCURVE",
"846 506 OFFCURVE",
"693 506 CURVE SMOOTH",
"617 506 OFFCURVE",
"551 482 OFFCURVE",
"496 434 CURVE",
"533 434 LINE",
"493 481 OFFCURVE",
"430 506 OFFCURVE",
"342 506 CURVE SMOOTH",
"178 506 OFFCURVE",
"49 408 OFFCURVE",
"24 247 CURVE SMOOTH",
"-2 86 OFFCURVE",
"96 -12 OFFCURVE",
"260 -12 CURVE SMOOTH"
);
},
{
closed = 1;
nodes = (
"248 140 OFFCURVE",
"220 168 OFFCURVE",
"233 247 CURVE SMOOTH",
"245 326 OFFCURVE",
"282 354 OFFCURVE",
"325 354 CURVE SMOOTH",
"368 354 OFFCURVE",
"395 326 OFFCURVE",
"383 247 CURVE SMOOTH",
"370 168 OFFCURVE",
"334 140 OFFCURVE",
"291 140 CURVE SMOOTH"
);
}
);
width = 924;
},
{
anchors = (
{
name = bottom;
position = "{484, 0}";
},
{
name = top;
position = "{484, 484}";
}
);
associatedMasterId = "4121B50C-FD42-45C5-8FBE-41E76D98F91E";
background = {
paths = (
{
closed = 1;
nodes = (
"390 -12 OFFCURVE",
"458 18 OFFCURVE",
"506 72 CURVE",
"469 72 LINE",
"517 19 OFFCURVE",
"591 -12 OFFCURVE",
"689 -12 CURVE SMOOTH",
"760 -12 OFFCURVE",
"842 10 OFFCURVE",
"896 45 CURVE",
"846 181 LINE",
"805 155 OFFCURVE",
"746 139 OFFCURVE",
"699 139 CURVE SMOOTH",
"618 139 OFFCURVE",
"586 168 OFFCURVE",
"586 255 CURVE SMOOTH",
"586 340 OFFCURVE",
"611 373 OFFCURVE",
"664 373 CURVE SMOOTH",
"709 373 OFFCURVE",
"736 347 OFFCURVE",
"736 286 CURVE",
"751 297 LINE",
"566 297 LINE",
"566 206 LINE",
"904 206 LINE",
"904 246 LINE SMOOTH",
"904 407 OFFCURVE",
"807 506 OFFCURVE",
"652 506 CURVE SMOOTH",
"576 506 OFFCURVE",
"514 482 OFFCURVE",
"467 434 CURVE",
"504 434 LINE",
"456 481 OFFCURVE",
"389 506 OFFCURVE",
"301 506 CURVE SMOOTH",
"132 506 OFFCURVE",
"24 407 OFFCURVE",
"24 250 CURVE SMOOTH",
"24 90 OFFCURVE",
"132 -12 OFFCURVE",
"301 -12 CURVE SMOOTH"
);
},
{
closed = 1;
nodes = (
"266 140 OFFCURVE",
"233 170 OFFCURVE",
"233 248 CURVE SMOOTH",
"233 325 OFFCURVE",
"265 354 OFFCURVE",
"308 354 CURVE SMOOTH",
"351 354 OFFCURVE",
"383 325 OFFCURVE",
"383 248 CURVE SMOOTH",
"383 170 OFFCURVE",
"352 140 OFFCURVE",
"309 140 CURVE SMOOTH"
);
}
);
};
layerId = "95007EC8-EECD-456E-B787-BFE6C0A97F04";
name = "Bold [177]";
paths = (
{
closed = 1;
nodes = (
"390 -12 OFFCURVE",
"458 18 OFFCURVE",
"506 72 CURVE",
"469 72 LINE",
"517 19 OFFCURVE",
"591 -12 OFFCURVE",
"689 -12 CURVE SMOOTH",
"760 -12 OFFCURVE",
"842 10 OFFCURVE",
"896 45 CURVE",
"846 181 LINE",
"805 155 OFFCURVE",
"746 139 OFFCURVE",
"699 139 CURVE SMOOTH",
"618 139 OFFCURVE",
"586 168 OFFCURVE",
"586 255 CURVE SMOOTH",
"586 264 LINE SMOOTH",
"586 340 OFFCURVE",
"613 373 OFFCURVE",
"664 373 CURVE SMOOTH",
"709 373 OFFCURVE",
"736 347 OFFCURVE",
"736 286 CURVE",
"751 297 LINE",
"566 297 LINE",
"566 206 LINE",
"904 206 LINE",
"904 246 LINE SMOOTH",
"904 407 OFFCURVE",
"807 506 OFFCURVE",
"652 506 CURVE SMOOTH",
"576 506 OFFCURVE",
"514 482 OFFCURVE",
"467 434 CURVE",
"504 434 LINE",
"456 481 OFFCURVE",
"389 506 OFFCURVE",
"301 506 CURVE SMOOTH",
"132 506 OFFCURVE",
"24 407 OFFCURVE",
"24 250 CURVE SMOOTH",
"24 90 OFFCURVE",
"132 -12 OFFCURVE",
"301 -12 CURVE SMOOTH"
);
},
{
closed = 1;
nodes = (
"266 140 OFFCURVE",
"233 170 OFFCURVE",
"233 248 CURVE SMOOTH",
"233 325 OFFCURVE",
"265 354 OFFCURVE",
"308 354 CURVE SMOOTH",
"351 354 OFFCURVE",
"383 325 OFFCURVE",
"383 248 CURVE SMOOTH",
"383 170 OFFCURVE",
"352 140 OFFCURVE",
"309 140 CURVE SMOOTH"
);
}
);
width = 924;
}
);
leftKerningGroup = o;
leftMetricsKey = o;
rightKerningGroup = e;
rightMetricsKey = e;
unicode = 0153;
},
{
glyphname = p;
lastChange = "2019-09-04 08:13:31 +0000";
layers = (
{
anchors = (
{
name = bottom;
position = "{243, 0}";
},
{
name = center;
position = "{290, 245}";
},
{
name = stroke;
position = "{468, 580}";
},
{
name = top;
position = "{320, 484}";
},
{
name = topright;
position = "{610, 705}";
}
);
background = {
anchors = (
{
name = bottom;
position = "{243, 0}";
},
{
name = top;
position = "{320, 484}";
}
);
paths = (
{
closed = 1;
nodes = (
"246 492 OFFCURVE",
"169 440 OFFCURVE",
"134 358 CURVE",
"145 358 LINE",
"165 484 LINE",
"123 484 LINE",
"18 -180 LINE",
"60 -180 LINE",
"108 126 LINE",
"97 126 LINE",
"106 44 OFFCURVE",
"167 -8 OFFCURVE",
"260 -8 CURVE SMOOTH",
"392 -8 OFFCURVE",
"490 89 OFFCURVE",
"515 242 CURVE SMOOTH",
"539 395 OFFCURVE",
"470 492 OFFCURVE",
"339 492 CURVE SMOOTH"
);
},
{
closed = 1;
nodes = (
"438 453 OFFCURVE",
"493 375 OFFCURVE",
"472 242 CURVE SMOOTH",
"451 109 OFFCURVE",
"371 31 OFFCURVE",
"265 31 CURVE SMOOTH",
"159 31 OFFCURVE",
"105 109 OFFCURVE",
"126 242 CURVE SMOOTH",
"147 375 OFFCURVE",
"226 453 OFFCURVE",
"332 453 CURVE SMOOTH"
);
}
);
};
layerId = "F1F93986-3ED8-4AAE-84C4-CA3EEECDDFA0";
paths = (
{
closed = 1;
nodes = (
"60 -180 LINE",
"108 122 LINE",
"104 124 LINE",
"124 33 OFFCURVE",
"195 -8 OFFCURVE",
"274 -8 CURVE SMOOTH",
"432 -8 OFFCURVE",
"517 129 OFFCURVE",
"517 284 CURVE SMOOTH",
"517 414 OFFCURVE",
"442 492 OFFCURVE",
"325 492 CURVE SMOOTH",
"238 492 OFFCURVE",
"167 442 OFFCURVE",
"133 358 CURVE",
"145 358 LINE",
"165 484 LINE",
"123 484 LINE",
"18 -180 LINE"
);
},
{
closed = 1;
nodes = (
"182 31 OFFCURVE",
"124 88 OFFCURVE",
"124 197 CURVE SMOOTH",
"124 335 OFFCURVE",
"193 453 OFFCURVE",
"322 453 CURVE SMOOTH",
"416 453 OFFCURVE",
"474 396 OFFCURVE",
"474 287 CURVE SMOOTH",
"474 149 OFFCURVE",
"405 31 OFFCURVE",
"276 31 CURVE SMOOTH"
);
}
);
width = 568;
},
{
anchors = (
{
name = bottom;
position = "{278, 0}";
},
{
name = center;
position = "{304, 247}";
},
{
name = stroke;
position = "{488, 595}";
},
{
name = top;
position = "{354, 484}";
},
{
name = topright;
position = "{689, 705}";
}
);
background = {
anchors = (
{
name = bottom;
position = "{276, 0}";
},
{
name = top;
position = "{352, 484}";
}
);
paths = (
{
closed = 1;
nodes = (
"362 506 OFFCURVE",
"291 468 OFFCURVE",
"264 413 CURVE",
"275 413 LINE",
"288 494 LINE",
"83 494 LINE",
"-24 -180 LINE",
"184 -180 LINE",
"224 73 LINE",
"212 73 LINE",
"225 24 OFFCURVE",
"283 -12 OFFCURVE",
"352 -12 CURVE SMOOTH",
"478 -12 OFFCURVE",
"582 86 OFFCURVE",
"608 247 CURVE SMOOTH",
"633 408 OFFCURVE",
"559 506 OFFCURVE",
"434 506 CURVE SMOOTH"
);
},
{
closed = 1;
nodes = (
"384 354 OFFCURVE",
"411 326 OFFCURVE",
"399 247 CURVE SMOOTH",
"386 168 OFFCURVE",
"350 140 OFFCURVE",
"307 140 CURVE SMOOTH",
"264 140 OFFCURVE",
"236 168 OFFCURVE",
"249 247 CURVE SMOOTH",
"261 326 OFFCURVE",
"298 354 OFFCURVE",
"341 354 CURVE SMOOTH"
);
}
);
};
layerId = "4121B50C-FD42-45C5-8FBE-41E76D98F91E";
paths = (
{
closed = 1;
nodes = (
"184 -180 LINE",
"223 67 LINE",
"204 78 LINE",
"232 26 OFFCURVE",
"283 -12 OFFCURVE",
"361 -12 CURVE SMOOTH",
"503 -12 OFFCURVE",
"608 98 OFFCURVE",
"608 284 CURVE SMOOTH",
"608 411 OFFCURVE",
"538 506 OFFCURVE",
"428 506 CURVE SMOOTH",
"362 506 OFFCURVE",
"306 475 OFFCURVE",
"271 417 CURVE",
"276 416 LINE",
"288 494 LINE",
"83 494 LINE",
"-24 -180 LINE"
);
},
{
closed = 1;
nodes = (
"271 140 OFFCURVE",
"250 168 OFFCURVE",
"250 219 CURVE SMOOTH",
"250 301 OFFCURVE",
"280 354 OFFCURVE",
"333 354 CURVE SMOOTH",
"379 354 OFFCURVE",
"400 326 OFFCURVE",
"400 275 CURVE SMOOTH",
"400 193 OFFCURVE",
"370 140 OFFCURVE",
"317 140 CURVE SMOOTH"
);
}
);
width = 632;
}
);
leftKerningGroup = n;
leftMetricsKey = n;
rightKerningGroup = o;
rightMetricsKey = o;
unicode = 0070;
userData = {
anchors = (
);
b = {
};
com.typemytype.robofont.layerData = {
b = {
anchors = (
);
components = (
);
contours = (
);
lib = {
};
name = p;
unicodes = (
);
width = 1181;
};
};
components = (
);
contours = (
);
lib = {
};
name = p;
unicodes = (
);
width = 1207;
};
},
{
glyphname = thorn;
lastChange = "2019-08-30 14:16:40 +0000";
layers = (
{
anchors = (
{
name = bottom;
position = "{242, 0}";
},
{
name = top;
position = "{319, 484}";
}
);
background = {
anchors = (
{
name = bottom;
position = "{242, 0}";
},
{
name = top;
position = "{319, 484}";
}
);
paths = (
{
closed = 1;
nodes = (
"246 492 OFFCURVE",
"169 440 OFFCURVE",
"134 358 CURVE",
"145 358 LINE",
"200 705 LINE",
"158 705 LINE",
"18 -180 LINE",
"60 -180 LINE",
"108 126 LINE",
"97 126 LINE",
"106 44 OFFCURVE",
"167 -8 OFFCURVE",
"260 -8 CURVE SMOOTH",
"392 -8 OFFCURVE",
"490 89 OFFCURVE",
"515 242 CURVE SMOOTH",
"539 395 OFFCURVE",
"470 492 OFFCURVE",
"339 492 CURVE SMOOTH"
);
},
{
closed = 1;
nodes = (
"438 453 OFFCURVE",
"493 375 OFFCURVE",
"472 242 CURVE SMOOTH",
"451 109 OFFCURVE",
"371 31 OFFCURVE",
"265 31 CURVE SMOOTH",
"159 31 OFFCURVE",
"105 109 OFFCURVE",
"126 242 CURVE SMOOTH",
"147 375 OFFCURVE",
"226 453 OFFCURVE",
"332 453 CURVE SMOOTH"
);
}
);
};
layerId = "F1F93986-3ED8-4AAE-84C4-CA3EEECDDFA0";
paths = (
{
closed = 1;
nodes = (
"246 492 OFFCURVE",
"169 440 OFFCURVE",
"134 358 CURVE",
"145 358 LINE",
"200 705 LINE",
"158 705 LINE",
"18 -180 LINE",
"60 -180 LINE",
"108 126 LINE",
"97 126 LINE",
"106 44 OFFCURVE",
"167 -8 OFFCURVE",
"260 -8 CURVE SMOOTH",
"392 -8 OFFCURVE",
"490 89 OFFCURVE",
"515 242 CURVE SMOOTH",
"539 395 OFFCURVE",
"470 492 OFFCURVE",
"339 492 CURVE SMOOTH"
);
},
{
closed = 1;
nodes = (
"438 453 OFFCURVE",
"493 375 OFFCURVE",
"472 242 CURVE SMOOTH",
"451 109 OFFCURVE",
"371 31 OFFCURVE",
"265 31 CURVE SMOOTH",
"159 31 OFFCURVE",
"105 109 OFFCURVE",
"126 242 CURVE SMOOTH",
"147 375 OFFCURVE",
"226 453 OFFCURVE",
"332 453 CURVE SMOOTH"
);
}
);
width = 568;
},
{
anchors = (
{
name = bottom;
position = "{281, 0}";
},
{
name = top;
position = "{357, 484}";
}
);
background = {
paths = (
{
closed = 1;
nodes = (
"321 506 OFFCURVE",
"256 468 OFFCURVE",
"238 413 CURVE",
"252 413 LINE",
"252 705 LINE",
"44 705 LINE",
"44 -180 LINE",
"252 -180 LINE",
"252 73 LINE",
"240 73 LINE",
"260 24 OFFCURVE",
"324 -12 OFFCURVE",
"392 -12 CURVE SMOOTH",
"517 -12 OFFCURVE",
"608 88 OFFCURVE",
"608 247 CURVE SMOOTH",
"608 406 OFFCURVE",
"516 506 OFFCURVE",
"392 506 CURVE SMOOTH"
);
},
{
closed = 1;
nodes = (
"282 140 OFFCURVE",
"249 166 OFFCURVE",
"249 246 CURVE SMOOTH",
"249 326 OFFCURVE",
"281 354 OFFCURVE",
"324 354 CURVE SMOOTH",
"367 354 OFFCURVE",
"399 326 OFFCURVE",
"399 246 CURVE SMOOTH",
"399 166 OFFCURVE",
"368 140 OFFCURVE",
"325 140 CURVE SMOOTH"
);
}
);
};
layerId = "4121B50C-FD42-45C5-8FBE-41E76D98F91E";
paths = (
{
closed = 1;
nodes = (
"362 506 OFFCURVE",
"291 468 OFFCURVE",
"264 413 CURVE",
"278 413 LINE",
"324 705 LINE",
"116 705 LINE",
"-24 -180 LINE",
"184 -180 LINE",
"224 73 LINE",
"212 73 LINE",
"225 24 OFFCURVE",
"283 -12 OFFCURVE",
"352 -12 CURVE SMOOTH",
"478 -12 OFFCURVE",
"582 86 OFFCURVE",
"608 247 CURVE SMOOTH",
"633 408 OFFCURVE",
"559 506 OFFCURVE",
"434 506 CURVE SMOOTH"
);
},
{
closed = 1;
nodes = (
"384 354 OFFCURVE",
"411 326 OFFCURVE",
"399 247 CURVE SMOOTH",
"386 168 OFFCURVE",
"350 140 OFFCURVE",
"307 140 CURVE SMOOTH",
"264 140 OFFCURVE",
"236 168 OFFCURVE",
"249 247 CURVE SMOOTH",
"261 326 OFFCURVE",
"298 354 OFFCURVE",
"341 354 CURVE SMOOTH"
);
}
);
width = 632;
}
);
leftKerningGroup = h;
leftMetricsKey = n;
rightKerningGroup = o;
rightMetricsKey = o;
unicode = 00FE;
},
